<?xml version="1.0" standalone="no"?>
<!DOCTYPE svg PUBLIC "-//W3C//DTD SVG 20010904//EN"
 "http://www.w3.org/TR/2001/REC-SVG-20010904/DTD/svg10.dtd">
<svg version="1.0" xmlns="http://www.w3.org/2000/svg"
 width="400.000000pt" height="400.000000pt" viewBox="0 0 400.000000 400.000000"
 preserveAspectRatio="xMidYMid meet">

<g transform="translate(0.000000,400.000000) scale(0.100000,-0.100000)"
fill="#232323" stroke="none">
<path d="M0 2000 l0 -2000 2000 0 2000 0 0 2000 0 2000 -2000 0 -2000 0 0
-2000z m1410 551 c0 -6 -30 -86 -66 -178 -113 -288 -164 -455 -164 -535 0 -80
17 -113 68 -135 28 -11 32 -16 22 -28 -15 -18 -73 -20 -103 -3 -35 18 -67 60
-81 107 l-13 44 -22 -36 c-50 -81 -124 -121 -182 -97 -31 13 -59 55 -59 89 0
52 -11 51 -61 -3 -111 -122 -256 -126 -285 -9 -10 40 12 141 47 213 45 91 161
206 254 250 85 41 180 52 220 26 36 -24 31 -42 -12 -50 -49 -8 -151 -56 -205
-97 -97 -74 -188 -210 -203 -305 -6 -32 -3 -43 14 -58 21 -19 22 -19 66 2 56
27 125 118 197 260 59 116 70 129 118 138 30 6 33 5 26 -12 -61 -153 -95 -297
-82 -348 10 -40 55 -36 94 9 39 44 58 88 122 277 110 329 165 458 203 476 28
13 87 15 87 3z m677 -297 c3 -9 -1 -41 -10 -72 -20 -71 -11 -92 41 -92 30 0
51 11 112 60 102 82 167 112 255 118 60 4 74 1 95 -16 31 -25 22 -35 -45 -52
-141 -37 -274 -148 -346 -290 -56 -108 -50 -189 13 -176 62 12 152 126 239
299 30 61 52 93 71 103 28 15 58 19 58 7 0 -3 -19 -63 -41 -132 -52 -160 -60
-235 -29 -274 13 -16 33 -33 46 -37 36 -14 20 -40 -25 -40 -70 0 -131 62 -131
135 0 14 -2 25 -4 25 -2 0 -29 -24 -59 -53 -83 -82 -155 -106 -222 -75 -74 33
-74 191 0 308 l23 37 -49 -3 -50 -2 -54 -109 c-82 -167 -169 -243 -275 -243
-44 0 -56 4 -82 30 -27 27 -30 35 -26 84 2 40 0 52 -9 49 -7 -3 -13 -9 -13
-13 0 -16 -116 -123 -147 -137 -117 -48 -181 40 -134 184 12 36 31 84 42 107
41 82 69 167 69 210 0 31 5 46 16 50 30 11 61 6 89 -16 25 -20 27 -26 22 -72
-3 -32 -31 -110 -72 -204 -36 -85 -65 -161 -63 -170 11 -60 119 26 197 158 25
41 64 114 88 162 36 74 46 88 67 88 36 0 51 -24 38 -63 -6 -18 -33 -97 -61
-177 -54 -155 -60 -189 -35 -214 21 -21 34 -20 65 7 70 62 207 336 199 398
-10 67 36 129 96 129 22 0 37 -6 41 -16z m1393 -6 c64 -33 88 -95 43 -112 -23
-9 -68 17 -71 42 -8 53 -107 65 -139 16 -17 -27 -12 -97 10 -124 7 -8 30 -44
52 -80 21 -36 42 -67 45 -70 17 -13 42 -109 36 -135 -32 -129 -287 -151 -352
-30 -33 62 25 103 69 48 71 -86 108 -102 148 -62 17 17 20 29 15 57 -5 32 -19
56 -105 180 -58 84 -51 186 17 242 66 54 157 65 232 28z m-690 -15 c38 -48 27
-99 -86 -406 -25 -67 -27 -79 -14 -87 8 -5 18 -10 21 -10 20 0 97 70 139 128
47 64 150 256 150 280 0 6 9 36 21 67 20 54 21 55 60 55 38 0 39 -1 39 -34 0
-79 -38 -302 -81 -471 -48 -186 -150 -316 -289 -368 -56 -21 -139 -22 -166 -3
-21 16 -25 13 56 41 151 53 247 177 299 389 22 90 22 116 0 74 -15 -29 -86
-115 -119 -145 -63 -57 -171 -81 -216 -49 -34 26 -24 110 36 286 36 103 54
175 56 215 2 33 3 61 4 63 0 1 15 2 34 2 26 0 40 -7 56 -27z"/>
</g>
</svg>
