<?xml version="1.0" standalone="no"?>
<!DOCTYPE svg PUBLIC "-//W3C//DTD SVG 20010904//EN"
 "http://www.w3.org/TR/2001/REC-SVG-20010904/DTD/svg10.dtd">
<svg version="1.0" xmlns="http://www.w3.org/2000/svg"
 width="1080.000000pt" height="1196.000000pt" viewBox="0 0 1080.000000 1196.000000"
 preserveAspectRatio="xMidYMid meet">

<g transform="translate(0.000000,1196.000000) scale(0.100000,-0.100000)"
fill="#232323" stroke="none">
<path d="M0 5980 l0 -5980 5400 0 5400 0 0 5980 0 5980 -5400 0 -5400 0 0
-5980z m5870 4630 c30 -6 114 -20 185 -30 181 -27 366 -68 540 -120 189 -56
273 -83 300 -95 17 -8 48 -21 70 -29 61 -21 145 -55 195 -78 117 -52 156 -70
170 -79 8 -5 31 -16 50 -24 19 -9 42 -20 50 -25 8 -6 25 -14 37 -20 13 -5 71
-37 130 -71 109 -62 137 -79 189 -113 16 -11 72 -48 124 -82 80 -53 158 -109
278 -201 12 -10 35 -29 50 -42 15 -13 73 -62 130 -110 290 -243 713 -738 868
-1016 9 -16 20 -32 24 -35 4 -3 18 -25 31 -49 13 -24 32 -58 42 -75 60 -102
162 -300 205 -396 51 -114 66 -148 84 -195 33 -83 78 -208 89 -245 5 -19 16
-51 24 -70 27 -69 102 -364 135 -535 30 -151 54 -335 71 -530 15 -161 8 -730
-9 -747 -15 -15 -122 -22 -141 -9 -13 8 -13 32 -3 168 7 87 12 203 12 258 0
119 -45 645 -59 695 -6 19 -17 78 -25 130 -15 94 -33 174 -62 280 -8 30 -22
83 -29 118 -8 34 -22 76 -30 92 -8 16 -15 36 -15 45 0 9 -11 47 -26 83 -14 37
-37 99 -51 137 -14 39 -37 93 -50 122 -12 28 -23 54 -23 58 0 24 -200 418
-264 520 -11 17 -29 46 -41 65 -34 55 -139 213 -152 230 -7 8 -39 51 -72 95
-107 145 -272 335 -410 473 -133 134 -261 252 -305 282 -12 8 -31 24 -43 35
-11 11 -31 28 -44 38 -13 9 -49 37 -79 61 -79 61 -162 119 -295 204 -38 25
-82 53 -97 64 -15 10 -38 23 -50 29 -13 6 -45 23 -73 39 -27 16 -70 40 -95 53
-25 13 -54 28 -65 34 -113 62 -465 213 -496 213 -6 0 -23 6 -37 14 -15 8 -74
29 -132 46 -58 18 -123 39 -145 46 -22 7 -65 18 -95 25 -30 6 -82 19 -115 29
-33 9 -87 21 -120 24 -33 4 -85 14 -115 21 -30 8 -100 19 -155 25 -55 6 -151
18 -213 26 -178 22 -642 19 -857 -6 -252 -30 -483 -68 -555 -92 -19 -6 -68
-19 -110 -29 -164 -39 -353 -99 -500 -160 -192 -78 -288 -121 -320 -140 -8 -5
-26 -14 -40 -19 -14 -6 -32 -15 -40 -20 -8 -6 -30 -17 -49 -26 -84 -39 -259
-142 -410 -243 -29 -20 -60 -40 -70 -46 -9 -5 -52 -37 -95 -70 -43 -33 -88
-67 -100 -75 -29 -20 -181 -146 -236 -195 -52 -47 -298 -292 -351 -351 -65
-71 -232 -279 -289 -359 -30 -43 -60 -83 -66 -89 -6 -6 -17 -22 -24 -36 -7
-13 -17 -29 -22 -34 -5 -6 -23 -33 -40 -61 -17 -27 -41 -66 -53 -85 -59 -94
-126 -215 -184 -335 -67 -139 -121 -256 -136 -294 -7 -20 -25 -67 -40 -106
-15 -38 -34 -90 -42 -115 -8 -25 -23 -65 -33 -90 -10 -25 -21 -62 -24 -84 -4
-21 -13 -52 -21 -70 -16 -38 -50 -177 -75 -306 -10 -52 -21 -102 -24 -110 -6
-14 -33 -208 -58 -410 -5 -47 -11 -251 -11 -455 l-2 -370 -64 0 c-63 0 -65 1
-73 30 -5 17 -11 147 -15 290 -5 266 13 646 38 752 6 26 19 100 29 163 31 190
48 264 117 500 37 128 82 262 97 290 7 14 16 39 20 55 4 17 16 48 26 70 10 22
32 74 50 115 34 80 166 345 209 421 14 25 35 61 45 80 40 71 185 292 249 379
84 113 90 121 191 244 163 199 485 512 690 671 22 17 62 48 90 70 59 47 70 55
230 161 16 10 39 26 52 34 75 50 368 216 449 254 181 85 263 122 295 131 14 4
41 16 60 26 19 11 42 19 50 19 8 0 28 7 43 15 15 8 56 23 90 34 34 10 76 24
92 30 96 33 385 111 411 111 11 0 54 9 95 19 41 11 117 24 169 31 52 6 116 15
142 21 25 6 86 14 135 19 125 12 945 4 1013 -10z m-660 -1074 c150 -28 263
-114 320 -244 l25 -57 3 -649 c2 -495 0 -652 -9 -663 -10 -12 -55 -14 -273
-11 l-261 3 -67 34 c-103 52 -208 167 -236 261 -6 19 -19 55 -28 80 -13 34
-18 77 -18 180 -1 126 1 140 27 206 64 158 214 265 400 284 43 4 84 13 90 19
8 8 12 59 12 153 l0 140 -35 29 c-19 16 -40 29 -46 29 -7 0 -25 -15 -42 -34
-22 -26 -31 -47 -36 -93 -4 -33 -4 -67 0 -76 11 -30 -5 -85 -27 -92 -12 -4
-91 -7 -177 -6 -198 0 -196 -2 -172 164 24 167 152 306 315 342 78 17 142 18
235 1z m-1792 -6 c235 -23 378 -100 446 -240 l31 -65 0 -186 0 -186 -29 -54
c-38 -69 -73 -104 -125 -125 -22 -9 -41 -23 -41 -30 0 -8 21 -27 47 -42 113
-65 182 -177 191 -307 3 -50 -2 -74 -28 -143 -39 -100 -94 -160 -190 -206 -62
-29 -71 -31 -190 -31 -113 1 -133 3 -205 30 -144 53 -222 122 -290 255 -52
102 -54 128 -55 747 l0 571 28 10 c38 13 287 14 410 2z m1000 -2 c9 -9 12
-167 12 -648 0 -520 2 -640 14 -655 9 -12 28 -19 61 -21 26 -1 52 -9 56 -16
14 -21 11 -242 -3 -256 -19 -19 -502 -17 -517 2 -9 11 -14 214 -18 797 -6 753
-5 782 12 795 25 19 365 20 383 2z m1855 1 c160 -44 279 -245 295 -497 4 -59
5 -150 2 -202 l-5 -95 -185 0 -185 0 -5 247 -5 247 -29 30 c-37 38 -47 38 -88
2 l-33 -29 -3 -479 c-2 -441 -1 -481 15 -513 35 -69 116 -63 154 12 20 37 23
61 25 172 2 95 6 131 16 137 7 5 83 8 168 6 l155 -2 -1 -135 c-1 -120 -4 -142
-27 -202 -54 -137 -125 -220 -242 -281 -58 -31 -63 -32 -190 -32 -119 0 -133
2 -162 23 -17 12 -36 22 -43 22 -19 0 -117 107 -148 163 -36 65 -77 186 -86
252 -4 28 -14 95 -23 149 -31 192 3 589 60 717 54 118 120 192 227 250 30 17
71 34 90 39 51 12 209 12 253 -1z m765 -3 c9 -5 12 -75 12 -279 0 -260 4 -317
19 -317 11 0 61 129 77 199 8 36 18 69 23 75 5 6 12 27 16 46 4 19 17 67 30
105 12 39 28 89 34 112 17 63 37 69 223 68 181 -1 190 -4 166 -62 -15 -38 -27
-68 -88 -233 -18 -47 -43 -110 -56 -141 -13 -31 -24 -63 -24 -70 0 -8 -8 -30
-18 -49 -11 -19 -22 -48 -26 -65 -4 -16 -14 -43 -21 -60 -35 -78 -64 -159 -59
-167 3 -5 28 -27 56 -49 100 -79 152 -180 175 -344 18 -128 14 -345 -7 -370
-19 -23 -341 -22 -364 1 -14 13 -16 50 -16 248 0 209 -2 234 -17 248 -30 25
-54 29 -79 13 -45 -29 -49 -48 -54 -290 l-5 -230 -176 -3 c-133 -2 -179 1
-187 10 -7 9 -11 267 -13 802 -2 702 -1 790 13 800 17 13 345 15 366 2z
m-2188 -1895 c243 -55 389 -199 421 -416 9 -64 11 -478 2 -533 -9 -53 -39 -62
-209 -62 l-146 0 -34 34 -34 34 0 236 c0 263 -4 284 -70 340 -40 33 -48 33
-98 -4 -69 -50 -67 -38 -67 -416 l0 -341 27 -35 c44 -58 69 -62 348 -54 303 9
286 16 282 -116 -3 -112 -6 -124 -35 -132 -12 -3 -130 -6 -263 -6 -145 0 -253
-4 -272 -11 -16 -6 -42 -27 -56 -48 -26 -37 -26 -37 -26 -247 0 -187 -2 -212
-19 -240 -33 -54 -70 -64 -241 -64 -164 0 -205 10 -215 53 -3 12 -4 378 -3
812 l3 790 29 65 c15 36 34 72 41 80 7 8 19 29 28 45 17 34 88 109 133 141 62
45 142 78 224 95 111 22 148 22 250 0z m1276 3 c205 -42 346 -152 409 -319 25
-67 25 -71 25 -359 0 -160 -4 -296 -8 -302 -18 -27 -56 -34 -196 -34 l-146 0
-32 29 -33 29 -5 249 -5 250 -27 41 c-16 23 -41 48 -58 57 -26 14 -33 14 -57
1 -16 -8 -41 -28 -58 -46 l-30 -31 -3 -337 c-2 -230 1 -344 8 -363 6 -15 25
-40 41 -55 l30 -29 280 0 c238 0 281 -2 289 -15 5 -8 10 -57 10 -107 0 -140
16 -133 -292 -133 -277 -1 -288 -3 -334 -59 l-29 -35 -5 -229 -5 -228 -25 -20
c-44 -35 -68 -39 -228 -39 -151 0 -158 1 -187 24 l-30 24 -3 754 c-3 731 1
848 28 883 4 6 13 28 20 50 7 22 18 47 25 55 7 8 19 29 28 45 18 36 94 117
139 150 62 45 156 84 234 99 106 19 138 19 230 0z m-3942 -5 c122 -17 281
-103 335 -182 8 -12 18 -24 22 -27 20 -15 65 -126 80 -200 14 -67 18 -133 19
-316 0 -219 -1 -233 -21 -258 l-20 -26 -173 0 c-168 0 -173 1 -194 23 -37 39
-42 81 -42 330 l0 238 -35 34 c-60 60 -135 37 -176 -54 -18 -41 -19 -70 -19
-577 0 -512 1 -535 20 -588 25 -65 75 -110 113 -100 14 3 40 21 58 40 l34 35
5 194 c4 169 7 197 23 212 16 16 39 18 213 18 250 0 234 13 234 -195 0 -131
-3 -159 -26 -232 -56 -184 -151 -316 -279 -387 -63 -36 -175 -61 -269 -61 -79
0 -252 34 -276 54 -8 7 -29 18 -46 25 -17 7 -54 34 -83 61 -90 84 -139 171
-169 300 -32 139 -33 154 -22 440 5 151 13 376 16 500 6 266 14 329 54 408 34
68 113 159 173 200 62 40 173 82 247 91 94 12 120 12 204 0z m1293 1 c212 -22
353 -114 430 -280 34 -73 34 -74 54 -345 23 -325 23 -480 0 -815 -17 -248 -20
-270 -47 -332 -70 -163 -208 -261 -403 -287 -167 -22 -321 -6 -420 44 -63 32
-81 45 -141 105 -63 63 -76 82 -110 154 -49 102 -62 224 -60 541 2 149 2 351
1 450 -3 362 53 534 214 658 131 100 264 130 482 107z m3936 0 c122 -14 241
-70 313 -147 67 -72 104 -142 141 -263 24 -78 26 -104 30 -312 l5 -228 -30
-30 -30 -30 -154 1 c-84 1 -163 4 -174 7 -12 4 -34 22 -50 41 l-28 33 -5 258
-6 258 -30 31 c-58 58 -128 29 -168 -72 -19 -48 -21 -76 -25 -358 -3 -301 -3
-306 19 -343 12 -21 33 -42 46 -47 13 -5 146 -9 294 -9 l270 0 35 -26 c34 -26
34 -27 34 -104 0 -77 0 -78 -34 -104 l-35 -26 -283 0 c-311 0 -320 -2 -333
-59 -8 -36 17 -88 58 -121 31 -25 31 -25 303 -30 349 -6 324 9 324 -201 l0
-148 -33 -25 -34 -26 -531 0 -531 0 -20 26 c-21 26 -21 33 -21 785 0 718 1
763 20 842 34 149 106 253 235 343 17 11 47 26 67 33 21 7 40 16 43 21 4 7 64
19 165 34 46 6 65 6 153 -4z m1288 0 c101 -12 197 -51 274 -113 50 -41 107
-111 121 -152 4 -11 13 -27 19 -35 7 -8 25 -60 41 -115 25 -91 28 -119 32
-306 6 -296 9 -293 -243 -287 l-156 3 -29 35 c-16 19 -31 48 -34 64 -3 16 -6
121 -6 235 0 113 -4 220 -9 237 -13 46 -56 84 -94 84 -44 0 -81 -44 -107 -127
-18 -59 -20 -93 -20 -357 0 -273 1 -293 20 -324 11 -18 32 -37 46 -42 14 -6
145 -10 297 -10 l273 0 32 -29 c30 -28 32 -34 32 -101 0 -67 -2 -73 -32 -101
l-32 -29 -292 0 c-265 0 -292 -2 -306 -17 -41 -47 -28 -115 30 -160 l37 -28
266 -3 266 -3 32 -30 32 -29 -3 -145 -3 -145 -30 -25 -30 -24 -531 -1 -531 0
-24 26 -24 26 1 761 c1 742 1 764 22 848 30 122 105 243 185 299 23 16 48 34
55 40 7 6 43 24 81 40 58 25 131 40 241 49 8 0 54 -4 101 -9z m-7259 -2368
c83 -40 143 -101 184 -187 27 -57 35 -90 44 -180 12 -119 4 -352 -12 -372 -8
-9 -53 -13 -161 -13 -131 0 -151 2 -163 18 -10 12 -13 61 -14 184 0 152 -2
171 -22 210 -34 68 -36 70 -69 52 -17 -8 -35 -27 -41 -42 -8 -17 -13 -119 -16
-273 -3 -219 -2 -248 13 -262 14 -15 45 -17 239 -17 159 0 225 -3 234 -12 16
-16 16 -150 0 -166 -9 -9 -75 -12 -234 -12 -194 0 -223 -2 -235 -17 -11 -12
-15 -70 -19 -232 l-5 -216 -169 -3 c-121 -2 -172 1 -183 10 -13 10 -14 96 -11
627 l3 616 34 78 c38 89 91 148 175 195 72 41 129 52 258 48 95 -3 114 -7 170
-34z m942 -6 c116 -41 188 -106 243 -221 l28 -60 0 -475 0 -475 -32 -66 c-40
-85 -124 -171 -201 -205 -126 -56 -315 -55 -430 2 -103 51 -158 112 -197 217
-33 91 -37 165 -36 547 2 478 11 529 122 641 58 59 74 69 145 92 123 41 247
41 358 3z m2066 9 c69 -28 93 -49 125 -107 l30 -53 6 -235 c4 -129 8 -436 8
-681 1 -369 -1 -449 -13 -458 -9 -8 -66 -11 -182 -9 l-169 3 -5 575 c-5 624
-5 616 -61 645 -32 17 -38 12 -68 -56 -20 -42 -21 -64 -21 -594 0 -415 -3
-554 -12 -563 -8 -8 -59 -12 -164 -12 -135 0 -154 2 -175 19 l-24 19 0 729 0
728 23 30 c13 17 36 32 50 35 15 3 158 5 317 4 256 -1 295 -3 335 -19z m1939
-12 c114 -43 165 -104 187 -223 24 -125 46 -1266 25 -1298 -12 -19 -322 -28
-466 -13 -86 8 -123 17 -170 40 -104 50 -182 150 -204 262 -32 165 -19 403 27
497 55 112 138 166 322 208 140 32 145 38 145 157 -1 108 -19 152 -66 159 -44
7 -79 -52 -88 -149 -10 -102 -11 -103 -183 -103 -135 0 -138 1 -153 24 -23 35
-30 123 -15 199 19 102 92 191 195 237 100 45 328 46 444 3z m1574 -5 l27 -31
0 -736 c0 -560 -3 -740 -12 -749 -14 -14 -334 -17 -356 -4 -19 13 -18 1533 1
1547 8 6 74 9 163 7 l149 -3 28 -31z m756 5 c120 -45 198 -130 241 -263 25
-75 25 -76 25 -495 0 -409 -1 -422 -22 -487 -72 -214 -263 -321 -515 -289
-152 19 -256 91 -319 219 -29 60 -31 73 -46 280 -15 222 -13 482 7 684 19 191
103 302 270 356 36 12 83 23 105 25 77 7 190 -6 254 -30z m-5615 7 c8 -8 13
-187 16 -593 6 -636 7 -641 61 -649 16 -3 34 1 40 8 6 7 17 52 25 101 11 68
14 203 14 599 0 499 0 511 20 532 20 21 27 22 167 19 129 -3 147 -6 159 -22
12 -16 14 -150 14 -764 0 -452 -4 -752 -10 -761 -8 -13 -50 -16 -257 -18 -136
-2 -296 1 -354 6 -95 8 -110 12 -143 38 -22 17 -50 55 -69 94 l-32 65 -7 654
c-5 537 -4 659 7 680 l13 26 162 -2 c103 -1 167 -6 174 -13z m4390 4 c11 -11
16 -35 16 -79 0 -78 -3 -80 -120 -88 -70 -5 -88 -10 -102 -28 -17 -20 -18 -67
-18 -675 0 -636 -1 -654 -19 -664 -23 -12 -330 -14 -349 -1 -11 6 -13 134 -12
658 1 769 14 697 -129 708 -112 9 -126 20 -119 99 8 92 -24 86 434 86 353 0
405 -2 418 -16z m2309 -3 c56 -26 91 -64 119 -131 l23 -55 0 -675 0 -675 -180
0 -180 0 -5 585 c-4 407 -9 593 -16 610 -7 14 -23 35 -36 48 -23 21 -25 21
-41 5 -45 -50 -47 -78 -48 -653 0 -300 -4 -556 -8 -570 l-7 -25 -157 -3 c-97
-1 -165 2 -177 8 -20 11 -20 23 -20 761 0 498 3 757 10 770 10 18 25 19 346
19 309 0 338 -1 377 -19z m-4343 -15 c56 -12 70 -20 105 -59 28 -30 47 -65 61
-108 18 -59 19 -102 22 -579 2 -451 1 -523 -14 -582 -20 -84 -57 -133 -127
-167 l-52 -26 -363 -3 c-270 -3 -367 0 -378 9 -20 16 -21 1484 0 1511 10 14
34 18 122 21 200 8 556 -2 624 -17z m-5008 -519 c76 -37 138 -133 138 -212 -1
-132 -114 -245 -245 -245 -56 0 -129 28 -162 62 -43 46 -83 130 -83 176 0 49
40 139 77 174 82 76 178 92 275 45z m1230 -1345 c15 -6 43 -39 93 -108 29 -40
172 -212 219 -264 58 -63 281 -286 341 -340 83 -75 306 -253 369 -296 16 -10
41 -28 56 -39 34 -25 133 -90 180 -120 19 -12 53 -34 76 -48 22 -15 43 -27 47
-27 3 0 21 -10 39 -22 19 -13 85 -49 148 -81 63 -33 122 -63 130 -67 78 -43
387 -170 413 -170 7 0 17 -4 23 -9 15 -14 285 -98 429 -133 44 -11 127 -28
184 -39 57 -10 120 -23 140 -28 20 -5 61 -12 91 -16 30 -3 129 -14 219 -25
129 -16 226 -20 445 -20 155 1 313 5 351 10 39 4 135 16 215 25 80 9 163 21
184 26 21 6 87 19 145 30 141 25 301 67 481 126 116 38 268 94 365 136 85 36
371 177 440 217 28 16 61 35 75 42 89 47 450 295 526 363 7 5 29 24 50 40 223
177 547 514 738 769 21 28 48 56 60 63 29 17 128 16 151 -1 18 -13 16 -17 -30
-82 -27 -38 -51 -71 -54 -74 -4 -3 -19 -23 -36 -45 -139 -187 -432 -497 -635
-670 -57 -50 -112 -97 -121 -105 -24 -20 -51 -41 -139 -106 -41 -30 -82 -60
-90 -67 -18 -14 -175 -118 -235 -155 -22 -14 -52 -34 -67 -44 -15 -10 -38 -23
-50 -29 -13 -6 -45 -23 -73 -39 -45 -26 -356 -182 -430 -215 -28 -13 -92 -38
-230 -90 -132 -50 -294 -101 -398 -125 -44 -10 -91 -23 -105 -29 -15 -6 -63
-17 -107 -25 -44 -8 -116 -21 -160 -30 -303 -58 -342 -61 -825 -61 -325 0
-476 4 -530 13 -41 7 -131 21 -200 32 -201 31 -398 76 -626 143 -44 13 -86 27
-92 31 -6 4 -37 14 -69 22 -31 8 -62 18 -67 23 -6 5 -29 14 -51 20 -22 7 -53
19 -70 26 -16 8 -64 28 -105 45 -41 17 -97 42 -125 55 -72 34 -178 85 -195 95
-8 5 -58 32 -110 61 -52 28 -114 63 -138 78 -72 44 -206 130 -217 138 -5 5
-23 17 -40 27 -31 19 -216 156 -225 166 -3 3 -27 23 -55 44 -27 22 -57 47 -66
55 -9 9 -43 38 -75 65 -104 88 -397 388 -495 506 -129 157 -249 317 -249 333
0 8 3 17 7 20 8 9 133 8 155 -1z m6529 -102 c20 -11 25 -52 13 -97 l-6 -23
-2958 0 c-2688 0 -2958 1 -2964 16 -13 33 -6 93 12 103 24 15 5876 15 5903 1z"/>
<path d="M5080 8669 c-24 -21 -25 -25 -28 -176 -4 -175 -2 -190 32 -224 37
-37 88 -29 116 18 18 30 20 51 20 177 0 149 -9 200 -40 216 -30 16 -73 11
-100 -11z"/>
<path d="M3424 9235 c-40 -27 -46 -62 -42 -255 3 -177 4 -182 27 -201 32 -26
92 -25 117 2 17 19 19 41 22 202 2 99 1 191 -3 204 -14 56 -76 80 -121 48z"/>
<path d="M3405 8565 c-24 -23 -25 -29 -25 -166 0 -141 0 -143 27 -171 40 -42
92 -39 128 7 26 35 26 37 23 170 -3 125 -4 135 -27 159 -33 35 -92 36 -126 1z"/>
<path d="M3301 7261 l-31 -29 0 -602 0 -602 34 -34 c69 -69 166 -32 181 67 3
24 5 297 3 607 l-3 564 -33 29 c-46 41 -107 41 -151 0z"/>
<path d="M2170 5011 c-15 -4 -32 -21 -42 -41 -16 -32 -18 -72 -15 -463 l2
-429 33 -29 c38 -34 56 -36 100 -9 25 16 32 26 32 52 0 28 0 780 0 861 0 20
-8 32 -32 47 -35 21 -39 22 -78 11z"/>
<path d="M6126 4407 c-25 -33 -26 -38 -26 -187 0 -153 0 -154 27 -182 39 -41
84 -39 117 5 25 33 26 39 26 182 0 143 -1 149 -26 182 -35 47 -83 47 -118 0z"/>
<path d="M8498 5009 c-49 -18 -52 -47 -50 -489 1 -223 2 -413 2 -423 0 -26 54
-77 81 -77 12 0 37 11 56 26 l33 25 0 437 c0 240 -3 447 -6 460 -6 23 -51 53
-76 51 -7 0 -25 -5 -40 -10z"/>
<path d="M5135 5009 c-46 -26 -45 -20 -45 -488 1 -339 4 -450 13 -461 39 -47
105 -48 135 -2 15 23 17 69 20 437 2 225 0 424 -3 442 -3 17 -13 41 -23 51
-21 25 -70 35 -97 21z"/>
</g>
</svg>
