<?xml version="1.0" standalone="no"?>
<!DOCTYPE svg PUBLIC "-//W3C//DTD SVG 20010904//EN"
 "http://www.w3.org/TR/2001/REC-SVG-20010904/DTD/svg10.dtd">
<svg version="1.0" xmlns="http://www.w3.org/2000/svg"
 width="1080.000000pt" height="783.000000pt" viewBox="0 0 1080.000000 783.000000"
 preserveAspectRatio="xMidYMid meet">

<g transform="translate(0.000000,783.000000) scale(0.100000,-0.100000)"
fill="#232323" stroke="none">
<path d="M5525 6820 c-22 -4 -83 -11 -135 -15 -104 -8 -114 -9 -180 -25 -25
-6 -65 -16 -90 -22 -159 -37 -334 -110 -504 -210 -137 -81 -379 -308 -460
-432 -21 -33 -43 -64 -48 -70 -25 -29 -85 -138 -173 -314 -53 -105 -106 -199
-118 -207 -12 -8 -17 -15 -12 -15 6 0 2 -5 -7 -11 -10 -5 -18 -21 -18 -35 0
-14 -7 -32 -15 -40 -10 -10 -15 -35 -15 -68 0 -28 -5 -57 -11 -63 -22 -22 -1
-385 30 -527 11 -51 15 -63 51 -174 29 -90 91 -224 157 -342 76 -136 279 -366
418 -474 33 -26 66 -51 72 -57 7 -5 52 -33 100 -62 272 -164 535 -245 843
-260 99 -5 361 9 405 23 17 4 55 13 85 20 106 21 172 41 285 89 35 14 220 106
230 114 5 4 48 32 95 63 47 31 90 61 95 67 6 7 33 30 60 52 57 46 141 130 194
195 20 25 44 54 54 65 10 11 28 36 40 55 11 19 24 37 27 40 22 18 136 229 170
315 24 62 40 106 55 160 10 33 22 71 26 85 11 33 27 125 40 235 12 101 6 405
-9 475 -6 25 -18 79 -27 120 -90 410 -356 812 -690 1041 -27 19 -52 36 -55 39
-8 8 -42 28 -90 52 -25 12 -62 33 -82 45 -21 13 -46 23 -57 23 -11 0 -21 5
-23 12 -2 6 -20 11 -38 10 -19 0 -43 6 -52 15 -17 15 -18 15 -18 -3 0 -10 -4
-15 -8 -9 -9 12 -52 15 -52 3 0 -5 -8 -4 -18 1 -11 6 -23 6 -28 1 -5 -5 -28
-5 -54 0 -25 5 -77 9 -117 10 -39 0 -75 5 -78 10 -4 7 -13 6 -27 -1 -12 -7
-24 -7 -29 -2 -6 6 -34 6 -67 2 -34 -5 -61 -4 -66 2 -6 5 -12 9 -15 8 -4 -1
-24 -5 -46 -9z m188 -334 c1 -5 -20 -25 -48 -44 -85 -61 -113 -99 -124 -171
l-6 -46 -220 -7 c-327 -11 -456 -41 -543 -126 -83 -82 -117 -179 -146 -412
-16 -128 -32 -952 -20 -984 5 -14 51 -16 401 -16 253 0 401 4 414 10 15 9 19
22 19 70 l0 60 133 0 134 0 -4 -182 c-3 -101 -6 -189 -8 -195 -4 -10 -128 -13
-582 -12 -318 1 -616 4 -663 7 l-85 7 0 480 c1 589 20 854 75 1060 48 177 137
303 256 362 145 73 288 96 684 109 163 5 227 11 265 24 54 19 65 20 68 6z
m-16 -455 c98 -26 154 -54 217 -111 67 -62 112 -150 127 -250 9 -54 10 -279 6
-815 -6 -696 -7 -740 -24 -753 -15 -12 -119 -13 -593 -11 -316 2 -591 -1 -610
-5 l-35 -9 24 27 c14 14 29 26 34 26 5 0 23 14 39 31 23 24 29 37 25 59 -3 15
-1 32 6 39 8 8 139 11 474 11 363 0 463 3 464 13 1 6 1 329 -1 717 -2 766 0
728 -60 788 -67 68 -236 99 -360 68 -131 -34 -193 -102 -198 -220 -4 -94 15
-132 82 -165 37 -18 71 -26 132 -29 l83 -4 17 -47 c24 -62 50 -98 85 -116 16
-9 29 -21 29 -28 0 -17 -162 -12 -271 8 -168 31 -255 83 -307 185 -100 198
-14 447 189 551 113 57 293 74 426 40z m8 -996 l0 -60 -124 -3 -124 -3 -29 35
c-17 21 -41 37 -61 41 -53 11 -126 36 -133 46 -3 6 86 8 233 7 l238 -3 0 -60z
m683 -774 c9 -5 11 -19 7 -42 -5 -27 -1 -42 19 -72 14 -21 26 -40 26 -42 0 -2
-42 -6 -92 -8 -51 -2 -102 -6 -113 -8 -18 -4 -20 3 -25 69 -7 110 -6 112 87
112 43 0 84 -4 91 -9z"/>
<path d="M615 2454 c-59 -29 -105 -75 -137 -135 -22 -42 -23 -54 -23 -254 1
-243 8 -271 90 -343 111 -98 284 -97 389 3 52 50 70 77 84 135 13 55 19 211 8
228 -11 17 -276 17 -277 0 -4 -50 0 -82 12 -89 8 -5 44 -9 80 -9 76 0 83 -7
72 -73 -10 -69 -46 -113 -112 -142 -80 -35 -168 2 -218 92 -18 32 -18 364 0
396 36 65 98 107 159 107 39 0 101 -33 127 -67 40 -53 41 -54 94 -51 51 3 52
4 49 32 -7 61 -92 151 -169 179 -71 25 -166 22 -228 -9z"/>
<path d="M1322 2471 c-9 -5 -12 -24 -10 -52 l3 -44 50 0 50 0 3 44 c4 49 -6
61 -53 61 -16 0 -36 -4 -43 -9z"/>
<path d="M1825 2461 c-61 -28 -78 -53 -82 -119 -6 -85 -10 -97 -38 -110 -38
-18 -35 -66 5 -80 l30 -11 2 -243 3 -243 48 -3 c40 -3 47 0 48 15 0 10 0 117
-1 238 0 121 4 226 8 233 10 15 30 20 80 21 30 1 32 3 32 35 l0 35 -52 3 c-50
3 -53 5 -62 36 -5 19 -5 45 0 65 9 30 13 32 59 37 l50 5 0 50 0 50 -45 3 c-28
1 -60 -5 -85 -17z"/>
<path d="M3854 2463 c-58 -23 -84 -65 -84 -139 0 -68 -5 -79 -43 -93 -42 -16
-38 -58 8 -77 l35 -14 2 -243 3 -242 45 0 45 0 3 240 c1 144 6 243 12 249 6 6
32 11 58 11 47 1 47 1 50 38 l3 37 -50 0 c-57 0 -71 14 -71 72 0 49 18 67 70
70 l45 3 0 50 0 50 -45 2 c-25 1 -63 -5 -86 -14z"/>
<path d="M5065 2468 c-3 -7 -4 -193 -3 -413 l3 -400 39 -3 c21 -2 43 1 49 7 6
6 9 77 8 178 -2 147 0 175 17 214 22 50 34 62 77 76 46 15 101 -3 132 -43 25
-34 25 -35 24 -208 -1 -96 1 -186 5 -200 6 -25 10 -27 53 -24 l46 3 3 220 c3
207 1 222 -19 263 -43 87 -160 126 -251 85 -72 -34 -77 -35 -83 -10 -3 12 -6
76 -8 142 l-2 120 -43 3 c-28 2 -44 -1 -47 -10z"/>
<path d="M7100 2462 c-25 -10 -67 -39 -95 -68 -72 -72 -85 -121 -85 -334 0
-206 12 -253 85 -325 113 -113 291 -115 405 -5 74 72 85 104 85 245 l0 120
-135 0 -135 0 -3 -29 c-2 -15 -1 -39 3 -53 5 -23 9 -24 73 -21 37 1 73 -2 80
-6 18 -11 14 -72 -8 -116 -62 -121 -195 -145 -282 -50 -42 47 -58 115 -58 246
0 165 30 243 110 284 82 42 169 9 228 -86 4 -6 33 -13 65 -16 68 -6 71 2 30
82 -28 55 -83 104 -146 133 -48 22 -157 21 -217 -1z"/>
<path d="M7784 2467 c-3 -8 -4 -32 -2 -53 l3 -39 50 0 50 0 0 50 0 50 -48 3
c-34 2 -49 -1 -53 -11z"/>
<path d="M2189 2404 c-9 -12 -13 -36 -11 -76 4 -63 -5 -84 -45 -99 -39 -15
-28 -60 19 -78 l26 -10 4 -209 c3 -185 5 -212 21 -230 24 -26 99 -54 134 -50
26 3 28 7 31 49 3 46 3 47 -32 53 -19 4 -37 13 -40 21 -7 19 -9 365 -2 372 3
3 16 7 28 8 13 1 29 3 36 4 7 0 12 15 12 36 0 33 -2 35 -34 35 -19 0 -38 5
-42 11 -4 6 -6 44 -5 85 2 63 -1 74 -18 83 -29 16 -67 13 -82 -5z"/>
<path d="M4623 2412 c-7 -5 -13 -39 -15 -87 -3 -76 -4 -80 -30 -93 -16 -7 -28
-21 -28 -32 0 -22 26 -50 46 -50 12 0 14 -32 14 -192 0 -182 2 -195 23 -233
25 -44 58 -64 117 -72 32 -5 40 -2 50 16 19 37 9 74 -23 82 -57 15 -57 17 -57
210 0 170 1 179 21 189 11 7 27 9 35 6 18 -7 39 35 31 58 -4 9 -16 16 -27 16
-50 0 -60 16 -60 93 0 40 -4 77 -8 83 -8 13 -71 17 -89 6z"/>
<path d="M3164 2231 c-41 -10 -88 -44 -115 -82 -63 -89 -63 -320 1 -409 12
-17 45 -44 73 -60 42 -24 64 -30 114 -30 77 0 125 20 178 77 45 46 65 112 65
214 0 134 -37 221 -115 269 -38 23 -148 35 -201 21z m161 -133 c29 -28 36 -43
44 -98 15 -99 -3 -174 -52 -214 -50 -40 -100 -41 -150 -3 -42 32 -57 74 -57
162 0 127 41 185 131 185 42 0 55 -5 84 -32z"/>
<path d="M5950 2229 c-113 -35 -170 -151 -157 -328 8 -128 52 -198 147 -234
88 -33 189 -20 273 37 35 24 34 39 -5 69 l-32 25 -48 -24 c-66 -34 -124 -32
-174 5 -43 30 -73 96 -54 115 6 6 66 9 147 8 148 -3 209 3 216 21 9 28 -11
156 -32 198 -33 67 -99 108 -181 114 -36 2 -81 0 -100 -6z m134 -101 c24 -13
46 -40 63 -80 20 -47 -2 -58 -120 -58 -56 0 -108 4 -116 9 -19 12 -6 76 20
102 44 44 102 54 153 27z"/>
<path d="M8955 2229 c-51 -19 -89 -54 -120 -110 -27 -50 -29 -61 -29 -169 -1
-129 14 -181 67 -233 84 -84 246 -90 348 -14 37 27 36 40 -5 72 l-33 25 -44
-25 c-78 -44 -155 -30 -208 37 -20 25 -29 87 -13 88 4 1 77 2 162 4 85 2 163
4 173 5 15 1 17 12 17 80 0 66 -4 88 -25 127 -28 53 -44 70 -94 98 -40 22
-152 31 -196 15z m156 -119 c44 -35 68 -85 50 -103 -13 -13 -186 -23 -226 -13
-32 8 -33 48 -3 92 28 40 51 52 103 53 31 1 49 -6 76 -29z"/>
<path d="M9733 2228 c-18 -6 -33 -15 -33 -19 0 -15 -50 -10 -56 6 -4 11 -21
15 -55 15 l-49 0 2 -287 3 -288 39 -3 c21 -2 43 1 49 7 6 6 9 79 8 183 -2 133
1 181 13 208 28 68 79 93 155 76 43 -10 45 -9 72 24 39 47 37 64 -10 78 -46
14 -94 14 -138 0z"/>
<path d="M10224 2231 c-81 -21 -142 -107 -129 -183 16 -92 81 -139 210 -148
85 -6 118 -18 135 -50 13 -24 1 -50 -36 -79 -21 -16 -41 -21 -88 -21 -60 0
-135 25 -150 49 -12 19 -40 12 -74 -18 -17 -17 -32 -32 -32 -35 0 -8 95 -62
140 -79 90 -34 228 -16 292 38 32 27 68 90 68 121 0 27 -41 114 -62 131 -27
23 -105 43 -170 43 -57 0 -71 4 -97 26 -17 14 -31 34 -31 43 0 26 36 59 79 72
33 10 48 9 93 -7 29 -10 57 -22 63 -26 18 -16 43 -7 68 24 32 37 26 49 -40 79
-49 22 -187 34 -239 20z"/>
<path d="M1317 2223 c-4 -3 -7 -131 -7 -284 0 -303 -3 -289 59 -289 50 0 51 4
51 302 l0 278 -48 0 c-27 0 -52 -3 -55 -7z"/>
<path d="M7785 2218 c-3 -7 -4 -137 -3 -288 l3 -275 50 0 50 0 0 285 0 285
-48 3 c-32 2 -49 -1 -52 -10z"/>
<path d="M8118 2224 c-6 -5 7 -46 52 -164 12 -30 30 -82 41 -115 11 -33 24
-69 29 -80 4 -11 15 -40 25 -65 9 -25 23 -60 31 -78 8 -18 14 -39 14 -46 0
-17 22 -26 61 -26 31 0 30 -1 83 123 9 21 16 46 16 57 0 10 4 21 9 25 5 3 13
20 17 37 3 18 10 39 14 48 4 8 16 35 25 60 9 25 23 60 31 78 8 18 14 39 14 46
0 8 7 27 15 42 27 53 21 64 -35 64 -55 0 -59 -5 -95 -120 -10 -30 -23 -71 -30
-90 -7 -19 -22 -64 -33 -100 -15 -50 -25 -66 -41 -68 -15 -3 -22 3 -26 25 -3
15 -10 42 -16 58 -6 17 -14 44 -19 60 -10 37 -30 95 -40 115 -4 9 -11 31 -15
50 -13 59 -25 70 -76 70 -25 0 -48 -3 -51 -6z"/>
<path d="M2811 1034 c-67 -30 -81 -61 -81 -181 0 -145 30 -187 132 -188 51 0
60 3 92 34 l36 35 0 116 c0 130 -8 149 -79 184 -41 19 -55 19 -100 0z m89 -49
c36 -19 45 -48 45 -147 -1 -83 -15 -111 -63 -129 -31 -12 -77 12 -97 51 -18
34 -20 141 -4 173 13 27 59 67 77 67 7 0 26 -7 42 -15z"/>
<path d="M8003 1034 c-18 -7 -44 -31 -58 -51 -22 -34 -25 -47 -25 -134 0 -91
2 -98 30 -137 24 -34 37 -42 74 -47 65 -10 102 2 136 43 29 35 30 40 30 141 0
96 -2 107 -26 138 -25 33 -81 64 -113 62 -9 0 -30 -7 -48 -15z m106 -65 c30
-29 31 -34 31 -115 0 -96 -8 -117 -51 -140 -25 -13 -36 -13 -60 -4 -47 20 -59
49 -59 144 0 81 1 86 31 115 17 17 41 31 54 31 13 0 37 -14 54 -31z"/>
<path d="M2013 1034 c-10 -4 -13 -51 -13 -185 l0 -179 25 0 c24 0 25 2 25 69
0 44 5 72 13 79 7 6 42 12 77 14 50 2 65 7 65 18 0 12 -14 15 -63 16 -34 1
-69 7 -77 14 -19 15 -20 93 -2 108 7 6 49 12 92 14 63 2 80 6 80 18 0 12 -19
15 -105 17 -58 1 -111 -1 -117 -3z"/>
<path d="M3514 1029 c-10 -16 -4 -238 7 -284 15 -58 49 -80 126 -80 108 0 132
45 133 240 0 115 -7 142 -34 132 -13 -5 -16 -26 -16 -131 0 -69 -4 -136 -10
-150 -5 -14 -23 -32 -41 -41 -26 -14 -36 -15 -60 -4 -53 21 -59 41 -59 185 0
111 -3 133 -16 138 -21 8 -22 8 -30 -5z"/>
<path d="M4307 1023 c-9 -34 -7 -338 2 -352 5 -8 16 -11 25 -8 13 5 16 25 16
119 0 62 4 119 8 126 13 19 44 -21 137 -176 34 -56 47 -67 83 -63 9 1 12 43
12 175 0 146 -3 176 -16 187 -26 21 -31 -2 -28 -127 2 -112 2 -115 -19 -112
-18 3 -42 32 -64 78 -4 8 -11 20 -15 25 -5 6 -28 39 -51 75 -44 67 -81 89 -90
53z"/>
<path d="M5135 1030 c-4 -6 -7 -88 -7 -182 0 -127 4 -173 13 -179 7 -4 49 -6
93 -4 76 4 82 6 115 39 l35 35 0 108 c0 99 -2 111 -24 141 -14 19 -38 36 -59
42 -47 13 -158 13 -166 0z m170 -54 c29 -23 30 -28 33 -114 3 -56 0 -98 -8
-112 -21 -40 -120 -66 -148 -38 -8 8 -12 53 -12 138 0 85 4 130 12 138 21 21
90 14 123 -12z"/>
<path d="M5996 1018 c-9 -13 -19 -39 -22 -56 -4 -18 -11 -35 -15 -38 -5 -3 -9
-12 -9 -21 0 -8 -7 -31 -16 -51 -9 -21 -22 -52 -30 -70 -8 -18 -14 -40 -14
-49 0 -9 -8 -25 -17 -35 -13 -14 -14 -21 -4 -31 17 -17 42 2 64 47 l18 37 72
-3 72 -3 18 -37 c13 -29 23 -38 42 -38 28 0 29 2 16 28 -22 43 -41 94 -41 110
0 9 -7 26 -15 36 -8 11 -15 29 -15 41 0 12 -3 25 -7 29 -4 4 -17 33 -29 64
-23 63 -45 76 -68 40z m60 -123 c6 -22 14 -48 18 -57 15 -34 0 -48 -53 -48
-57 0 -68 14 -46 63 7 17 16 45 20 60 4 22 11 28 28 25 16 -2 25 -13 33 -43z"/>
<path d="M6600 1030 c-21 -13 -5 -23 48 -30 l47 -5 3 -163 c2 -162 3 -163 25
-160 21 3 22 7 27 163 l5 160 48 5 c26 3 47 8 47 13 0 4 0 12 0 17 0 13 -229
13 -250 0z"/>
<path d="M7367 1033 c-10 -9 -9 -361 1 -367 4 -2 14 -1 21 3 10 6 13 50 12
180 0 94 -3 176 -6 181 -7 12 -19 13 -28 3z"/>
<path d="M8725 1030 c-4 -6 -7 -88 -7 -183 0 -171 1 -172 23 -172 23 0 24 4
15 200 -1 23 3 30 18 30 13 0 36 -26 72 -85 29 -47 56 -89 61 -95 5 -5 12 -18
16 -28 7 -19 53 -44 63 -34 8 8 17 323 10 352 -4 16 -13 25 -26 25 -19 0 -20
-7 -20 -119 0 -172 -10 -172 -113 -2 -57 92 -81 121 -102 121 -2 0 -7 -5 -10
-10z"/>
</g>
</svg>
