<?xml version="1.0" standalone="no"?>
<!DOCTYPE svg PUBLIC "-//W3C//DTD SVG 20010904//EN"
 "http://www.w3.org/TR/2001/REC-SVG-20010904/DTD/svg10.dtd">
<svg version="1.0" xmlns="http://www.w3.org/2000/svg"
 width="652.000000pt" height="684.000000pt" viewBox="0 0 652.000000 684.000000"
 preserveAspectRatio="xMidYMid meet">

<g transform="translate(0.000000,684.000000) scale(0.100000,-0.100000)"
fill="#232323" stroke="none">
<path d="M2475 5915 c-99 -58 -202 -118 -230 -134 -123 -72 -415 -241 -468
-270 -33 -18 -123 -70 -200 -115 -78 -45 -218 -127 -312 -180 -350 -202 -430
-250 -437 -260 -10 -14 -10 -2108 0 -2122 4 -6 99 -64 212 -129 113 -64 219
-125 235 -135 17 -10 147 -85 290 -167 143 -82 321 -185 395 -228 521 -301
649 -374 676 -388 34 -18 27 -21 304 140 145 84 422 245 455 263 22 12 85 48
140 80 55 32 119 68 141 81 664 383 820 474 826 483 4 6 8 484 8 1061 0 578
-4 1055 -8 1061 -4 6 -83 55 -177 109 -93 54 -237 137 -320 185 -82 48 -271
157 -420 242 -148 85 -342 197 -430 248 -88 51 -176 102 -195 113 -19 10 -92
53 -162 93 -69 41 -130 74 -135 73 -4 0 -89 -47 -188 -104z m955 -1280 c127
-27 178 -46 184 -69 11 -39 7 -294 -5 -301 -6 -4 -36 7 -67 23 -135 72 -313
99 -467 73 -236 -41 -376 -216 -376 -471 0 -237 109 -393 316 -451 64 -18 247
-18 298 -1 l37 14 0 182 c0 162 2 185 18 198 26 22 289 158 307 158 13 0 15
-44 15 -358 0 -410 10 -370 -102 -422 -110 -51 -237 -74 -423 -74 -215 0 -314
20 -465 92 -93 44 -221 167 -262 252 -69 143 -94 278 -85 460 6 131 28 217 83
330 45 90 178 229 267 279 76 41 217 88 303 100 95 13 333 6 424 -14z m-1456
-16 c8 -41 8 -1358 -1 -1427 l-6 -52 -161 2 -161 3 -3 740 c-1 407 0 746 3
753 3 9 45 12 163 12 l160 0 6 -31z"/>
<path d="M1635 830 c-23 -25 -13 -67 20 -82 57 -26 113 28 80 78 -20 31 -74
33 -100 4z"/>
<path d="M2155 830 c-23 -25 -13 -67 20 -82 57 -26 113 28 80 78 -20 31 -74
33 -100 4z"/>
<path d="M3715 821 c-49 -22 -90 -63 -118 -116 -30 -57 -37 -250 -12 -326 38
-114 147 -178 284 -166 72 6 121 23 164 57 27 21 27 22 27 146 l0 125 -117 -3
-118 -3 0 -40 0 -40 63 -3 62 -3 0 -60 c0 -59 -1 -60 -35 -75 -84 -35 -171 -6
-210 71 -28 56 -29 232 -1 289 25 49 68 76 126 76 55 0 85 -19 108 -68 17 -36
19 -37 67 -36 48 2 50 3 48 29 -1 14 -14 47 -28 72 -37 62 -103 93 -200 93
-46 0 -83 -7 -110 -19z"/>
<path d="M410 525 l0 -305 55 0 55 0 0 305 0 305 -55 0 -55 0 0 -305z"/>
<path d="M1880 736 l0 -56 -35 0 c-34 0 -35 -1 -35 -39 0 -37 2 -40 33 -43
l32 -3 5 -162 c5 -159 6 -163 31 -189 28 -27 89 -41 133 -30 23 6 26 12 26 46
0 37 -2 40 -28 40 -48 0 -52 13 -52 162 l0 138 41 0 40 0 -3 38 c-3 35 -5 37
-40 40 l-37 3 -3 52 -3 52 -52 3 -53 3 0 -55z"/>
<path d="M719 657 c-47 -31 -76 -78 -90 -145 -15 -73 0 -170 36 -223 48 -73
143 -99 218 -59 l37 20 0 -34 c0 -22 -9 -45 -24 -63 -21 -24 -31 -28 -79 -28
-42 0 -63 6 -87 23 l-31 23 -19 -23 c-31 -37 -25 -54 32 -82 118 -59 268 -16
307 87 7 17 11 125 11 278 l0 249 -46 0 c-37 0 -47 -4 -51 -20 -3 -11 -7 -20
-10 -20 -3 0 -16 9 -30 20 -37 29 -128 28 -174 -3z m182 -83 c16 -15 19 -32
19 -130 0 -105 -1 -114 -22 -128 -31 -22 -90 -20 -121 4 -17 14 -30 38 -38 74
-25 112 31 215 109 202 19 -3 43 -13 53 -22z"/>
<path d="M1130 450 l0 -230 55 0 55 0 0 163 c0 157 1 164 23 184 29 27 59 35
92 27 45 -11 55 -53 55 -224 l0 -150 56 0 56 0 -4 183 c-4 201 -13 233 -68
262 -47 24 -129 20 -172 -10 l-38 -25 -6 25 c-6 22 -11 25 -55 25 l-49 0 0
-230z"/>
<path d="M1630 450 l0 -230 55 0 55 0 0 230 0 230 -55 0 -55 0 0 -230z"/>
<path d="M2150 450 l0 -230 55 0 55 0 0 230 0 230 -55 0 -55 0 0 -230z"/>
<path d="M2480 669 c-136 -54 -172 -289 -61 -400 83 -84 228 -77 308 14 92
105 64 309 -52 374 -44 25 -147 31 -195 12z m147 -91 c58 -48 55 -219 -5 -264
-9 -7 -34 -14 -55 -14 -106 -1 -147 182 -60 269 29 29 38 33 69 28 20 -3 43
-12 51 -19z"/>
<path d="M2860 450 l0 -230 55 0 55 0 0 163 c0 162 0 164 26 188 31 29 95 33
121 6 16 -15 18 -41 21 -187 l4 -170 55 0 55 0 -4 183 c-4 203 -12 233 -70
263 -43 22 -134 15 -175 -14 l-31 -22 -6 25 c-6 22 -11 25 -56 25 l-50 0 0
-230z"/>
<path d="M4167 674 c-4 -4 -7 -108 -7 -231 l0 -223 55 0 55 0 0 145 c0 84 5
154 11 168 14 30 48 47 94 47 l35 0 0 50 0 50 -39 0 c-28 0 -49 -8 -70 -25
l-30 -26 -3 23 c-3 20 -10 23 -48 26 -25 2 -49 0 -53 -4z"/>
<path d="M4570 669 c-36 -14 -79 -58 -103 -104 -31 -61 -30 -174 3 -240 58
-116 214 -151 321 -73 73 54 103 207 60 304 -27 60 -45 81 -93 105 -41 21
-144 25 -188 8z m147 -91 c26 -21 43 -74 43 -132 0 -97 -33 -146 -99 -146 -54
0 -86 29 -101 89 -18 74 -4 139 37 180 29 29 38 33 69 28 20 -3 43 -12 51 -19z"/>
<path d="M4954 666 c-3 -8 -4 -93 -2 -190 3 -195 9 -212 79 -249 46 -24 128
-19 169 12 30 21 30 21 30 1 0 -18 6 -20 55 -20 l55 0 -2 228 -3 227 -52 3
-52 3 -3 -171 c-3 -167 -4 -172 -27 -191 -32 -26 -95 -25 -121 1 -18 18 -20
33 -20 190 l0 170 -50 0 c-35 0 -52 -5 -56 -14z"/>
<path d="M5445 667 c-3 -7 -4 -149 -3 -317 l3 -305 53 -3 52 -3 0 105 c0 59 1
106 3 106 1 0 20 -9 42 -20 84 -43 181 -10 225 75 21 42 25 63 25 140 0 76 -4
98 -25 140 -34 68 -77 95 -150 95 -42 0 -64 -5 -83 -20 -14 -11 -27 -20 -30
-20 -3 0 -7 9 -10 20 -4 16 -14 20 -51 20 -28 0 -49 -5 -51 -13z m230 -77 c70
-27 87 -208 24 -271 -28 -28 -93 -26 -124 6 -23 22 -25 32 -25 117 0 100 11
131 54 148 28 12 40 12 71 0z"/>
</g>
</svg>
