<?xml version="1.0" standalone="no"?>
<!DOCTYPE svg PUBLIC "-//W3C//DTD SVG 20010904//EN"
 "http://www.w3.org/TR/2001/REC-SVG-20010904/DTD/svg10.dtd">
<svg version="1.0" xmlns="http://www.w3.org/2000/svg"
 width="551.000000pt" height="556.000000pt" viewBox="0 0 551.000000 556.000000"
 preserveAspectRatio="xMidYMid meet">

<g transform="translate(0.000000,556.000000) scale(0.100000,-0.100000)"
fill="#232323" stroke="none">
<path d="M2325 5160 c-125 -32 -211 -67 -352 -141 -212 -110 -296 -170 -429
-303 -210 -211 -365 -492 -444 -805 -27 -106 -60 -363 -60 -464 0 -196 49
-472 117 -662 90 -252 211 -443 403 -636 225 -228 529 -374 809 -391 l54 -3
33 130 c36 141 71 265 85 305 5 14 16 54 24 90 8 36 26 108 40 160 14 52 35
132 47 178 12 45 26 82 32 82 6 0 37 -64 68 -142 66 -164 133 -329 153 -373 7
-16 31 -75 54 -130 58 -145 92 -217 86 -180 -3 17 -9 64 -15 105 -5 41 -18
143 -30 225 -11 83 -32 240 -46 350 -14 109 -27 202 -30 206 -2 4 0 10 4 13 9
5 24 -10 91 -89 18 -22 52 -60 75 -85 22 -25 75 -84 116 -130 41 -47 79 -90
85 -96 5 -6 66 -74 134 -152 69 -78 126 -142 127 -142 1 0 -92 187 -207 416
-116 229 -208 419 -205 421 3 3 124 -62 268 -145 145 -82 286 -162 313 -177
28 -15 55 -31 60 -35 6 -4 37 -22 70 -40 33 -18 71 -40 85 -48 25 -15 -127
139 -458 460 -100 97 -182 180 -182 184 0 4 21 4 48 0 55 -7 447 -82 512 -97
25 -6 104 -21 175 -34 72 -13 144 -27 160 -30 17 -3 -28 23 -100 59 -71 36
-133 65 -136 66 -4 0 -78 34 -165 76 -88 42 -216 103 -286 137 -71 33 -128 64
-128 69 0 4 2 8 5 8 2 0 183 24 402 54 219 30 426 58 461 62 34 4 61 8 59 11
-2 2 -42 8 -88 13 -718 83 -849 100 -848 109 0 3 188 100 417 214 229 114 406
206 392 203 -38 -6 -254 -51 -440 -91 -327 -71 -453 -96 -458 -90 -3 2 141
152 321 332 179 180 324 329 322 331 -2 2 -20 -8 -42 -21 -42 -27 -306 -184
-338 -201 -23 -13 -307 -181 -345 -205 -14 -8 -39 -23 -57 -33 l-32 -18 8 23
c5 12 27 60 50 106 23 47 41 91 41 98 0 7 4 13 8 13 5 0 15 18 22 40 7 22 16
40 20 40 3 0 12 16 19 35 12 34 187 403 217 458 29 53 -2 24 -99 -91 -54 -64
-110 -131 -125 -148 -15 -17 -45 -53 -67 -80 -46 -56 -224 -264 -240 -280 -6
-7 -24 -26 -39 -44 -15 -18 -29 -31 -31 -29 -2 2 7 99 20 214 48 432 75 661
81 688 9 43 -2 32 -24 -25 -11 -29 -40 -105 -65 -168 -25 -63 -56 -144 -70
-180 -14 -36 -55 -141 -92 -235 -36 -93 -71 -182 -77 -198 -6 -15 -14 -30 -18
-32 -4 -3 -18 37 -30 88 -58 241 -90 380 -110 472 -13 55 -36 153 -51 217 -16
64 -29 126 -29 137 0 26 -13 26 -105 1z m-295 -370 c62 -32 105 -75 136 -138
25 -50 29 -68 29 -152 0 -83 -3 -102 -27 -150 -43 -88 -62 -103 -116 -95 -69
10 -129 42 -166 89 -55 69 -68 104 -74 198 -4 75 -1 97 18 148 32 85 67 120
119 120 23 0 59 -9 81 -20z m400 -1256 l0 -686 -27 7 c-67 16 -199 124 -265
215 -31 43 -80 138 -106 205 -39 100 -54 302 -32 431 46 263 237 507 403 513
l27 1 0 -686z m-854 465 c52 -25 110 -87 135 -144 25 -57 35 -180 19 -231 -20
-63 -72 -144 -97 -151 -69 -17 -164 27 -219 100 -50 68 -67 122 -67 212 1 68
6 91 31 147 16 36 38 71 48 77 31 17 104 13 150 -10z m71 -891 c18 -7 33 -16
33 -20 0 -4 6 -8 13 -8 19 0 82 -69 108 -120 21 -39 24 -59 24 -155 0 -110 0
-110 -38 -171 -43 -71 -63 -80 -134 -63 -121 30 -201 138 -211 284 -4 71 -1
88 23 150 37 91 59 115 109 115 22 0 55 -5 73 -12z m-275 -436 c31 -64 54
-119 52 -122 -10 -9 -61 57 -86 110 -27 57 -45 130 -31 130 4 -1 33 -54 65
-118z m985 -127 c76 -32 73 -20 73 -292 l0 -243 -41 0 c-89 0 -189 81 -228
184 -40 108 -20 258 46 336 21 25 32 30 69 30 25 0 61 -7 81 -15z"/>
<path d="M1998 1530 c-163 -21 -304 -105 -364 -214 -109 -199 -33 -451 166
-551 84 -42 180 -58 309 -52 102 4 127 9 206 40 50 19 104 42 120 51 17 9 38
16 48 16 27 0 21 22 -29 104 -45 72 -64 86 -64 46 0 -10 -15 -30 -33 -44 -105
-80 -306 -104 -433 -51 -161 67 -219 264 -119 404 74 103 238 147 395 106 79
-20 146 -57 153 -85 3 -11 9 -20 14 -20 5 0 35 40 67 90 56 87 65 121 27 100
-13 -6 -34 -4 -72 11 -119 43 -281 64 -391 49z"/>
<path d="M320 1517 c0 -7 9 -18 20 -25 19 -12 20 -23 20 -366 0 -195 -3 -361
-6 -370 -3 -9 -12 -16 -20 -16 -8 0 -14 -7 -14 -15 0 -12 20 -15 120 -15 122
0 136 5 105 36 -11 12 -15 41 -15 123 0 119 2 124 70 171 19 13 41 30 49 38
17 16 -1 34 170 -166 125 -147 143 -172 121 -172 -5 0 -10 -7 -10 -15 0 -13
23 -15 145 -15 119 0 145 3 145 14 0 8 -8 17 -19 21 -24 7 -154 145 -277 295
-16 19 -41 48 -56 65 -56 63 -68 78 -68 86 0 5 46 45 103 90 56 44 118 94 137
110 19 17 63 49 98 72 34 22 62 47 62 54 0 10 -36 13 -160 13 -163 0 -181 -5
-148 -38 16 -16 -12 -44 -142 -145 -127 -99 -118 -92 -155 -123 -68 -57 -65
-61 -65 104 0 121 3 152 15 162 8 7 15 19 15 26 0 11 -25 14 -120 14 -90 0
-120 -3 -120 -13z"/>
<path d="M3244 1518 c-4 -7 2 -18 14 -26 12 -8 22 -18 22 -23 0 -5 -30 -71
-66 -146 -113 -235 -144 -303 -144 -313 0 -6 -4 -10 -10 -10 -5 0 -10 -5 -10
-11 0 -21 -102 -223 -121 -240 -38 -33 -24 -39 91 -39 91 0 110 3 110 15 0 8
-7 15 -16 15 -19 0 -14 19 26 108 l29 62 193 -2 193 -3 32 -60 c32 -60 42
-105 23 -105 -5 0 -10 -7 -10 -15 0 -13 22 -15 135 -15 144 0 158 5 111 45
-14 11 -78 124 -142 250 -64 127 -141 277 -170 334 -57 110 -64 137 -37 156 9
7 13 17 9 23 -10 17 -252 16 -262 0z m193 -361 c29 -65 53 -121 53 -123 0 -2
-58 -4 -130 -4 -81 0 -130 4 -130 10 0 6 30 70 66 142 57 114 67 129 77 112 6
-10 35 -72 64 -137z"/>
<path d="M4285 1520 c-4 -6 7 -15 24 -21 l31 -11 -2 -371 -3 -371 -24 -6 c-14
-3 -26 -11 -29 -18 -3 -9 32 -12 142 -12 123 0 146 2 146 15 0 8 -9 15 -19 15
-28 0 -31 18 -31 165 l0 132 218 5 c212 4 218 5 280 33 106 48 137 105 130
236 -4 64 -9 84 -30 111 -36 47 -113 86 -194 98 -93 13 -631 13 -639 0z m642
-151 c37 -14 43 -25 43 -84 0 -27 -4 -55 -8 -62 -17 -26 -69 -33 -253 -33
l-189 0 0 95 0 95 189 0 c110 0 201 -4 218 -11z"/>
<path d="M320 450 c0 -62 4 -110 9 -110 6 0 11 19 13 43 4 51 19 50 36 -3 8
-22 18 -40 23 -40 13 0 11 12 -12 74 l-21 55 21 36 c23 39 26 55 11 55 -5 0
-17 -16 -26 -35 -24 -50 -34 -52 -34 -6 0 23 -4 41 -10 41 -6 0 -10 -43 -10
-110z"/>
<path d="M444 513 c14 -106 29 -173 37 -173 4 0 11 27 15 60 4 33 10 63 14 65
4 3 11 -25 15 -61 4 -43 11 -64 18 -61 7 2 12 8 13 13 0 5 6 48 13 95 8 47 11
92 9 100 -8 19 -14 0 -23 -66 -6 -39 -9 -46 -16 -30 -4 11 -8 34 -8 50 -1 32
-16 63 -26 53 -3 -3 -9 -31 -12 -62 -3 -31 -9 -56 -13 -56 -5 0 -11 27 -15 60
-4 33 -12 60 -17 60 -7 0 -8 -17 -4 -47z"/>
<path d="M649 560 c-1 -3 -3 -14 -4 -25 -1 -11 -10 -52 -19 -92 -9 -40 -16
-79 -16 -87 0 -27 19 -17 22 12 4 36 40 38 48 3 3 -14 12 -27 19 -29 10 -3 12
2 8 19 -4 13 -14 60 -24 104 -14 68 -30 111 -34 95z m20 -122 c1 -5 -6 -8 -15
-8 -11 0 -14 5 -10 16 3 9 6 21 7 27 0 12 17 -20 18 -35z"/>
<path d="M744 547 c-9 -23 0 -202 10 -197 5 3 8 30 7 60 -3 66 6 61 23 -12
l13 -53 7 40 c14 77 25 84 25 18 1 -35 5 -63 11 -63 6 0 10 44 10 111 0 81 -3
110 -12 107 -6 -2 -17 -28 -24 -56 -6 -29 -13 -55 -16 -58 -3 -2 -11 23 -18
56 -12 58 -25 75 -36 47z"/>
<path d="M926 549 c-7 -20 -28 -127 -33 -173 -4 -27 -2 -37 6 -32 6 4 11 16
11 26 0 10 4 21 9 24 18 11 41 -6 41 -31 0 -15 5 -23 13 -20 6 2 10 11 9 18
-2 8 -11 53 -21 101 -17 88 -27 112 -35 87z m17 -122 c-7 -12 -23 3 -23 22 0
28 14 35 21 9 3 -13 4 -26 2 -31z"/>
<path d="M1037 542 c-10 -11 -17 -35 -17 -59 0 -37 3 -42 30 -52 19 -6 30 -17
30 -29 0 -22 -26 -37 -35 -22 -10 17 -25 11 -25 -10 0 -13 9 -22 25 -26 38
-10 55 11 55 68 0 46 -2 50 -30 59 -35 13 -43 49 -10 49 11 0 20 -4 20 -10 0
-5 5 -10 10 -10 18 0 11 39 -9 50 -25 13 -25 13 -44 -8z"/>
<path d="M1150 536 c-3 -127 -1 -186 7 -188 4 -2 9 16 11 40 3 37 6 42 28 42
22 0 24 -4 24 -45 0 -25 5 -45 10 -45 6 0 10 43 10 110 0 67 -4 110 -10 110
-5 0 -10 -20 -10 -45 0 -41 -2 -45 -25 -45 -22 0 -25 4 -25 39 0 43 -20 69
-20 27z"/>
<path d="M1286 551 c-10 -16 2 -181 14 -196 20 -24 55 -18 68 10 14 31 16 195
2 195 -5 0 -11 -39 -12 -87 -3 -83 -4 -88 -25 -91 -22 -3 -23 -1 -23 82 0 77
-9 111 -24 87z"/>
<path d="M1500 538 c-26 -28 -29 -141 -4 -176 19 -28 49 -28 68 0 17 23 11 47
-7 29 -16 -16 -44 -13 -51 5 -3 9 -6 33 -6 54 0 21 3 45 6 54 7 17 44 22 44 6
0 -5 5 -10 10 -10 18 0 11 39 -9 50 -26 13 -27 13 -51 -12z"/>
<path d="M1640 535 c-30 -32 -39 -109 -16 -153 19 -38 31 -45 55 -37 42 13 55
127 21 183 -24 39 -30 39 -60 7z m50 -34 c25 -47 2 -131 -33 -118 -22 8 -32
71 -17 107 14 34 35 39 50 11z"/>
<path d="M1760 450 c0 -118 17 -154 22 -47 l3 62 9 -52 c10 -62 22 -68 32 -15
12 68 23 70 24 5 0 -37 4 -63 10 -63 7 0 10 38 8 108 -2 62 -7 107 -13 107 -5
0 -17 -27 -26 -59 l-15 -60 -13 50 c-19 73 -20 74 -31 74 -6 0 -10 -41 -10
-110z"/>
<path d="M1917 553 c-4 -3 -7 -53 -7 -110 0 -115 17 -143 22 -35 l3 67 14 -60
c14 -63 17 -62 39 15 9 33 10 31 11 -27 1 -35 6 -63 11 -63 6 0 10 44 10 111
0 84 -3 110 -12 107 -7 -3 -18 -28 -25 -57 -6 -29 -13 -55 -16 -57 -2 -2 -10
23 -17 56 -12 57 -19 68 -33 53z"/>
<path d="M2064 546 c-10 -27 3 -175 16 -191 16 -20 44 -19 61 1 19 23 27 208
8 202 -9 -3 -12 -21 -10 -61 3 -79 -6 -117 -29 -117 -25 0 -32 26 -29 105 2
66 -5 92 -17 61z"/>
<path d="M2200 451 c0 -121 17 -155 22 -43 2 47 6 61 12 47 4 -11 16 -39 25
-63 10 -24 22 -43 27 -43 13 1 18 198 5 206 -7 4 -11 -14 -11 -54 0 -34 -4
-61 -8 -61 -4 0 -17 26 -28 57 -33 92 -44 80 -44 -46z"/>
<path d="M2340 449 c0 -74 4 -109 11 -107 6 2 10 7 10 11 -1 4 -1 52 -1 107 0
60 -4 100 -10 100 -6 0 -10 -44 -10 -111z"/>
<path d="M2443 553 c-29 -3 -43 -9 -43 -19 0 -8 7 -14 15 -14 11 0 15 -18 17
-85 4 -104 22 -114 25 -12 1 39 2 78 2 85 1 6 8 12 16 12 8 0 15 9 15 20 0 11
-1 19 -2 18 -2 -1 -22 -3 -45 -5z"/>
<path d="M2517 554 c-2 -3 4 -33 14 -67 10 -34 19 -81 19 -104 0 -24 5 -43 10
-43 6 0 10 19 10 43 0 23 7 67 15 97 17 64 19 83 5 75 -5 -3 -12 -21 -16 -40
-3 -19 -10 -35 -14 -35 -4 0 -11 16 -14 35 -7 34 -18 50 -29 39z"/>
<path d="M2729 558 c0 -2 -2 -18 -5 -37 -2 -18 -11 -62 -19 -98 -18 -76 -18
-83 -5 -83 6 0 10 9 10 20 0 10 9 24 20 30 21 11 21 10 36 -37 6 -23 27 -14
21 10 -3 12 -13 61 -23 110 -10 48 -21 87 -26 87 -4 0 -8 -1 -9 -2z m21 -109
c0 -10 -6 -19 -14 -19 -9 0 -12 8 -8 25 5 28 22 24 22 -6z"/>
<path d="M2825 548 c-3 -8 -4 -57 -3 -109 l3 -94 35 0 c47 0 62 29 58 117 -4
75 -10 85 -56 94 -23 5 -33 2 -37 -8z m69 -44 c3 -9 6 -33 6 -54 0 -54 -8 -70
-36 -70 -23 0 -24 3 -24 70 0 67 1 70 24 70 13 0 27 -7 30 -16z"/>
<path d="M2951 548 c1 -29 36 -199 42 -205 4 -3 9 -4 12 -2 7 7 45 212 40 217
-7 7 -26 -9 -24 -21 4 -22 -13 -107 -22 -113 -5 -3 -9 4 -9 15 0 33 -23 121
-32 121 -4 0 -8 -6 -7 -12z"/>
<path d="M3096 473 c-9 -49 -19 -98 -22 -110 -9 -34 10 -28 23 7 6 17 16 30
23 30 6 0 16 -13 21 -30 11 -30 29 -41 29 -17 1 25 -44 207 -51 207 -3 0 -14
-39 -23 -87z m30 -40 c-14 -14 -23 4 -13 27 l10 25 5 -23 c2 -13 1 -26 -2 -29z"/>
<path d="M3210 450 c0 -67 4 -110 10 -110 6 0 10 29 10 68 1 73 7 71 35 -16
10 -29 22 -51 27 -50 5 2 10 50 10 106 0 56 -4 101 -8 100 -4 -2 -6 -29 -5
-62 3 -71 -9 -67 -39 14 -12 33 -26 60 -31 60 -5 0 -9 -49 -9 -110z"/>
<path d="M3371 541 c-39 -39 -39 -136 -2 -183 17 -21 21 -21 45 -9 18 10 26
22 26 40 -1 24 -2 24 -14 9 -32 -43 -72 -3 -63 65 7 51 21 66 47 49 17 -10 21
-10 27 4 4 11 -1 22 -12 30 -25 18 -31 18 -54 -5z"/>
<path d="M3491 551 c-7 -5 -10 -43 -8 -107 l2 -99 43 -3 c37 -3 42 -1 42 17 0
17 -6 21 -36 21 -33 0 -35 2 -32 28 2 21 8 27 26 25 16 -2 22 2 22 17 0 15 -7
20 -25 20 -20 0 -25 5 -25 25 0 22 4 25 36 25 27 0 35 4 32 16 -3 17 -56 27
-77 15z"/>
<path d="M3610 451 c0 -76 4 -111 11 -111 8 0 10 18 7 55 -6 70 8 82 17 15 9
-62 22 -64 31 -5 10 71 27 68 22 -4 -3 -41 -1 -60 6 -58 15 5 12 210 -2 215
-6 2 -17 -24 -23 -57 -7 -33 -15 -58 -18 -55 -3 3 -11 28 -16 56 -6 28 -16 53
-23 56 -9 3 -12 -23 -12 -107z"/>
<path d="M3889 555 c-4 -37 0 -205 6 -205 5 0 7 27 6 60 -1 33 1 60 6 60 5 0
20 -29 33 -65 13 -36 28 -65 32 -65 4 0 8 50 8 110 0 120 -17 154 -22 43 l-3
-66 -25 66 c-21 57 -38 82 -41 62z"/>
<path d="M4017 553 c-14 -13 -6 -33 13 -33 19 0 20 -7 20 -90 0 -53 4 -90 10
-90 6 0 10 37 10 90 0 84 1 90 21 90 14 0 19 5 17 17 -2 11 -15 17 -44 20 -22
1 -44 0 -47 -4z"/>
<path d="M4210 558 c-1 -2 -1 -50 -2 -108 -1 -70 3 -105 11 -108 7 -2 11 12
11 42 0 42 2 46 25 46 40 0 61 65 33 103 -11 13 -77 34 -78 25z m58 -65 c-2
-17 -10 -29 -20 -31 -14 -3 -18 3 -18 27 0 25 4 31 21 31 16 0 20 -5 17 -27z"/>
<path d="M4335 552 c-10 -10 -5 -212 5 -212 6 0 10 20 10 45 0 60 27 63 36 5
6 -37 19 -58 29 -48 2 2 -1 23 -7 46 -8 32 -8 46 1 55 15 15 14 69 -2 91 -12
17 -61 29 -72 18z m60 -62 c0 -18 -6 -26 -22 -28 -20 -3 -23 1 -23 28 0 27 3
31 23 28 16 -2 22 -10 22 -28z"/>
<path d="M4481 531 c-23 -32 -29 -110 -12 -154 12 -30 46 -44 66 -27 39 32 40
150 3 189 -25 28 -33 26 -57 -8z m59 -41 c15 -35 5 -99 -16 -107 -26 -10 -44
17 -44 66 0 71 37 97 60 41z"/>
<path d="M4640 471 c0 -92 -8 -113 -36 -90 -14 11 -15 10 -12 -11 4 -29 32
-38 53 -16 11 11 15 38 15 110 0 57 -4 96 -10 96 -6 0 -10 -36 -10 -89z"/>
<path d="M4705 552 c-3 -3 -5 -52 -5 -109 l0 -103 45 0 c38 0 45 3 45 20 0 16
-7 20 -36 20 -33 0 -35 2 -32 28 2 19 9 27 23 27 11 0 21 8 23 18 3 13 -3 17
-22 17 -21 0 -26 5 -26 25 0 22 4 25 36 25 28 0 35 3 32 18 -2 12 -14 17 -40
18 -21 1 -40 -1 -43 -4z"/>
<path d="M4845 541 c-20 -23 -30 -94 -21 -146 10 -49 48 -68 78 -38 25 25 16
48 -12 31 -29 -18 -50 6 -50 57 0 24 3 50 6 59 7 18 35 21 51 5 7 -7 12 -6 16
4 13 35 -40 57 -68 28z"/>
<path d="M4950 538 c0 -10 7 -18 15 -18 11 0 15 -18 17 -85 2 -47 7 -86 12
-88 5 -1 8 37 7 86 -2 82 -1 87 18 87 13 0 21 6 21 18 0 14 -9 17 -45 17 -36
0 -45 -3 -45 -17z"/>
<path d="M5085 536 c-23 -35 -16 -88 13 -102 38 -19 43 -28 28 -49 -12 -17
-16 -17 -30 -6 -21 17 -34 6 -20 -17 17 -26 50 -26 68 0 30 43 16 101 -29 112
-31 8 -36 46 -6 46 11 0 22 -6 24 -12 4 -10 8 -9 16 2 8 11 6 19 -10 33 -28
23 -36 22 -54 -7z"/>
<path d="M3760 445 l0 -105 46 0 c38 0 45 3 42 18 -2 11 -14 18 -36 20 -28 3
-32 7 -32 33 0 27 2 29 26 23 22 -6 25 -4 22 12 -2 11 -13 20 -26 22 -16 3
-22 10 -22 28 0 20 5 24 30 24 20 0 30 5 30 15 0 11 -11 15 -40 15 l-40 0 0
-105z"/>
</g>
</svg>
