<?xml version="1.0" standalone="no"?>
<!DOCTYPE svg PUBLIC "-//W3C//DTD SVG 20010904//EN"
 "http://www.w3.org/TR/2001/REC-SVG-20010904/DTD/svg10.dtd">
<svg version="1.0" xmlns="http://www.w3.org/2000/svg"
 width="340.000000pt" height="340.000000pt" viewBox="0 0 340.000000 340.000000"
 preserveAspectRatio="xMidYMid meet">

<g transform="translate(0.000000,340.000000) scale(0.100000,-0.100000)"
fill="#232323" stroke="none">
<path d="M0 1700 l0 -1700 1700 0 1700 0 0 1700 0 1700 -1700 0 -1700 0 0
-1700z m1915 1070 c18 -8 17 -9 -7 -9 -42 -1 -61 -27 -55 -77 3 -33 1 -41 -9
-37 -18 7 -104 -6 -102 -15 1 -4 -6 -25 -15 -46 -10 -22 -20 -50 -23 -62 -3
-12 -17 -32 -30 -45 -28 -26 -32 -19 -6 11 9 11 17 24 18 28 1 20 30 100 42
120 8 12 24 22 37 22 38 0 53 10 48 30 -3 10 2 29 11 42 9 12 16 18 16 13 0
-5 7 1 16 13 16 23 27 26 59 12z m170 -66 c20 -8 -1 -28 -115 -106 -112 -77
-257 -184 -330 -246 -72 -59 -280 -262 -280 -272 0 -8 152 -171 255 -275 94
-94 142 -130 193 -145 60 -19 46 -23 -34 -10 -126 20 -154 41 -381 282 -119
127 -118 128 -108 -120 4 -103 11 -192 17 -199 5 -6 24 -14 41 -16 18 -2 -22
-4 -88 -4 -66 0 -111 2 -100 4 43 11 45 19 45 177 l0 151 -53 -55 c-29 -30
-111 -119 -181 -197 -70 -79 -132 -143 -138 -143 -6 0 6 20 26 45 20 25 53 66
74 92 62 80 208 248 249 291 22 22 23 30 23 192 0 180 1 177 -54 191 -19 4 18
7 94 7 109 1 121 -1 90 -11 -33 -11 -35 -15 -42 -67 -9 -84 -9 -192 1 -188 7
2 227 207 305 284 26 25 247 203 306 247 36 26 74 58 85 72 20 24 64 32 100
19z m-9 -354 c164 0 244 -3 244 -11 0 -14 -198 -273 -392 -514 -26 -33 -48
-65 -48 -70 0 -6 30 -19 68 -28 37 -9 132 -35 212 -57 80 -22 163 -40 184 -40
40 0 76 22 76 47 0 7 5 13 11 13 10 0 4 -93 -8 -112 -8 -14 -31 -9 -166 33
-183 56 -307 87 -407 101 -47 6 -87 13 -89 14 -2 2 43 61 100 133 57 71 131
164 164 207 33 42 88 113 123 157 34 44 62 85 62 90 0 6 -65 8 -167 5 -187 -4
-218 -13 -248 -72 -16 -31 -16 -31 -10 24 9 78 14 92 32 86 8 -3 125 -6 259
-6z m387 -39 c29 -26 72 -66 96 -87 24 -22 53 -48 65 -59 12 -11 39 -35 61
-54 22 -18 81 -71 130 -116 50 -45 110 -101 135 -123 l45 -41 3 52 c4 78 -12
435 -21 443 -4 4 -24 10 -44 14 -26 5 0 8 77 8 102 1 111 -1 80 -11 l-35 -12
-5 -302 c-3 -166 -8 -305 -12 -309 -5 -4 -16 -1 -25 8 -227 192 -356 305 -490
431 -39 37 -76 67 -80 67 -7 0 -6 -79 6 -422 1 -45 23 -68 63 -68 17 0 29 -3
25 -6 -8 -9 -217 -10 -217 -1 0 4 11 7 25 7 14 0 29 8 35 19 6 12 10 131 10
315 0 206 3 296 11 296 6 0 34 -22 62 -49z m-1418 -81 c-63 -9 -86 -18 -108
-47 -10 -12 -21 -22 -25 -22 -19 3 -32 -2 -32 -12 0 -8 6 -7 17 2 15 13 16 12
8 -6 -4 -11 -11 -65 -14 -121 -5 -90 -9 -104 -34 -137 -32 -42 -74 -67 -112
-67 -14 0 -24 -4 -21 -8 4 -8 0 -9 -59 -16 -16 -2 -37 -6 -45 -9 -8 -3 -49
-16 -90 -28 -41 -13 -80 -30 -86 -38 -6 -8 -18 -11 -27 -8 -9 3 -19 1 -23 -5
-4 -7 -3 -8 4 -4 27 16 9 -8 -35 -50 -27 -24 -50 -39 -52 -33 -2 6 12 24 30
41 l34 29 -38 -27 c-28 -20 -37 -33 -33 -46 2 -11 -11 -52 -30 -91 -19 -39
-34 -80 -34 -90 0 -10 -9 -21 -20 -24 -18 -5 -20 -13 -18 -102 l2 -96 3 93 c2
50 7 92 11 92 4 0 6 -53 6 -117 -1 -65 2 -109 6 -98 6 17 8 15 14 -15 5 -19
23 -61 42 -93 19 -32 31 -64 27 -70 -3 -7 -3 -9 2 -5 4 4 35 -17 69 -47 106
-96 201 -129 363 -130 71 0 104 -3 90 -8 -35 -13 -176 -10 -242 6 -132 31
-282 141 -344 251 -50 89 -66 152 -65 256 1 189 82 331 230 407 23 12 88 33
145 48 57 15 123 32 147 38 54 14 110 60 128 103 8 19 14 68 14 114 0 103 19
138 96 179 27 15 55 21 94 20 l55 -2 -50 -7z m1405 -795 c57 -29 59 -146 4
-176 -29 -15 -80 -14 -99 1 -46 38 -37 147 13 174 35 19 46 19 82 1z m638 9
c12 -4 22 -13 22 -22 0 -12 -3 -13 -12 -4 -17 17 -49 15 -64 -5 -7 -10 -14
-41 -14 -69 0 -61 23 -90 65 -80 14 4 25 2 25 -4 0 -10 -25 -14 -65 -11 -11 1
-30 13 -42 27 -43 47 -25 142 31 164 27 11 26 11 54 4z m-2404 -10 c22 -8 21
-67 -1 -86 -10 -8 -26 -18 -37 -22 -15 -5 -17 -13 -13 -41 5 -30 3 -35 -14
-35 -17 0 -19 8 -19 95 l0 95 34 0 c19 0 41 -3 50 -6z m148 -30 c-3 -26 1 -32
20 -36 38 -7 48 1 48 38 0 27 4 34 20 34 19 0 20 -7 20 -95 0 -88 -1 -95 -20
-95 -17 0 -20 7 -20 45 0 45 0 45 -36 45 l-36 0 4 -42 c2 -34 -1 -43 -15 -46
-15 -3 -17 7 -17 93 0 86 2 96 18 93 13 -2 16 -11 14 -34z m248 -59 c0 -78 -3
-95 -15 -95 -12 0 -15 17 -15 95 0 78 3 95 15 95 12 0 15 -17 15 -95z m150 10
c0 -84 0 -85 25 -85 14 0 25 -5 25 -11 0 -6 -17 -9 -41 -7 l-42 3 1 88 c0 48
1 89 1 92 1 3 8 5 16 5 12 0 15 -16 15 -85z m180 51 c0 -28 4 -35 26 -40 36
-9 55 9 47 45 -5 25 -2 29 16 29 20 0 21 -5 21 -95 0 -88 -1 -95 -20 -95 -17
0 -20 7 -20 45 0 45 0 45 -35 45 -35 0 -35 0 -35 -45 0 -33 -4 -45 -15 -45
-12 0 -15 17 -15 95 0 78 3 95 15 95 10 0 15 -10 15 -34z m309 -48 c13 -46 26
-89 29 -96 3 -9 -1 -13 -14 -10 -10 1 -21 14 -24 28 -5 20 -12 25 -35 25 -23
0 -30 -5 -35 -24 -3 -14 -11 -26 -17 -28 -7 -3 1 35 20 91 18 53 37 96 42 96
6 0 21 -37 34 -82z m229 65 c13 -24 7 -55 -13 -69 -15 -11 -15 -16 4 -53 26
-49 26 -51 2 -51 -13 0 -23 11 -31 35 -16 50 -32 55 -28 9 2 -30 -1 -39 -14
-42 -16 -3 -18 6 -18 92 l0 96 45 0 c32 0 47 -5 53 -17z m152 -10 c6 -16 15
-36 20 -45 6 -10 10 -25 10 -33 0 -23 19 -18 29 8 28 74 42 100 50 91 5 -5 12
-48 15 -96 6 -76 5 -88 -8 -88 -11 0 -16 9 -16 29 0 16 -3 43 -7 62 l-6 33
-21 -56 c-12 -30 -25 -56 -31 -56 -5 -1 -19 22 -30 51 -17 46 -20 49 -26 27
-4 -14 -7 -40 -8 -57 -1 -18 -6 -33 -12 -33 -7 0 -9 12 -6 33 4 17 9 60 13 95
7 67 19 78 34 35z m562 -33 c23 -33 45 -60 49 -60 5 0 10 28 12 63 2 47 4 38
5 -35 1 -56 -2 -98 -7 -98 -6 0 -29 27 -52 60 -23 33 -46 60 -50 60 -5 0 -9
-27 -9 -61 0 -33 -3 -58 -7 -56 -11 7 -4 187 7 187 5 0 28 -27 52 -60z m218
-36 c0 -82 -2 -95 -16 -92 -13 2 -16 18 -15 91 0 48 0 89 1 92 0 3 7 5 15 5
12 0 15 -17 15 -96z m-1349 -313 c-5 -23 -5 -41 0 -41 5 0 15 -13 24 -30 19
-38 6 -40 -17 -2 -16 25 -17 26 -18 5 0 -12 -4 -25 -10 -28 -12 -8 -12 -4 -1
48 6 23 13 55 16 71 3 15 8 26 11 23 3 -2 1 -23 -5 -46z m1329 -47 c-17 -82
-24 -58 -9 28 8 40 15 63 17 50 2 -12 -2 -47 -8 -78z m-1551 -15 c5 -9 6 -21
1 -28 -4 -8 -12 6 -19 36 -7 26 -17 51 -23 54 -6 4 -8 15 -3 25 6 15 10 10 21
-26 7 -25 18 -52 23 -61z m67 21 l-14 -65 4 63 c1 34 6 68 10 74 14 23 14 -8
0 -72z m894 70 c0 -5 -5 -10 -11 -10 -5 0 -7 5 -4 10 3 6 8 10 11 10 2 0 4 -4
4 -10z m184 -52 c-4 -24 -7 -51 -6 -60 0 -10 -4 -18 -10 -18 -9 0 -5 56 8 103
10 34 16 16 8 -25z m350 -22 c-4 -31 -11 -56 -16 -56 -4 0 -6 10 -4 23 3 12 8
39 11 61 10 58 16 37 9 -28z m-1331 -18 c-3 -21 -10 -38 -15 -38 -6 0 -7 7 -4
16 3 9 6 30 6 47 0 18 4 27 9 22 4 -6 6 -27 4 -47z m141 3 c-4 -23 -9 -40 -11
-37 -3 3 -2 23 2 46 4 23 9 39 11 37 3 -2 2 -23 -2 -46z m51 12 c-3 -21 -11
-42 -16 -48 -10 -9 -7 13 8 68 9 32 15 17 8 -20z m59 19 c-1 -6 -2 -25 -2 -42
-1 -16 -6 -30 -11 -30 -6 0 -7 16 -4 36 4 25 2 39 -8 46 -11 7 -9 8 6 6 11 -2
20 -9 19 -16z m49 -41 c-10 -13 -24 20 -17 40 8 23 8 23 14 -6 3 -16 5 -32 3
-34z m50 39 c-8 -30 -21 -33 -19 -5 0 14 6 25 13 25 6 0 9 -9 6 -20z m91 -29
c-4 -23 -9 -40 -11 -37 -3 3 -2 23 2 46 4 23 9 39 11 37 3 -2 2 -23 -2 -46z
m58 8 c-6 -59 -21 -68 -19 -12 1 30 6 51 12 50 6 -2 8 -19 7 -38z m57 14 c0
-16 -5 -37 -10 -48 -7 -16 -8 -12 -4 14 3 19 0 40 -6 47 -9 11 -8 14 5 14 11
0 16 -9 15 -27z m47 -9 c-5 -22 -3 -41 5 -50 10 -12 9 -13 -5 -8 -17 6 -20 32
-10 72 10 35 17 25 10 -14z m57 -12 c-4 -26 -11 -42 -19 -42 -10 0 -12 5 -5
18 6 9 13 30 16 46 9 42 15 27 8 -22z m121 -1 c-4 -22 -11 -41 -15 -41 -9 0
-6 23 8 73 9 33 14 11 7 -32z m49 23 c-14 -22 -14 -29 -4 -46 10 -16 10 -19
-1 -16 -17 6 -23 55 -7 74 20 24 30 15 12 -12z m267 -13 c0 -16 -7 -34 -15
-41 -9 -8 -15 -9 -15 -2 0 6 5 14 11 18 6 3 9 19 7 35 -3 15 -1 26 4 23 4 -3
8 -18 8 -33z m93 15 c-3 -14 -12 -27 -20 -31 -13 -4 -14 -3 -3 10 7 8 10 22 6
30 -3 9 0 15 8 15 9 0 12 -8 9 -24z m94 -8 c-3 -7 -5 -2 -5 12 0 14 2 19 5 13
2 -7 2 -19 0 -25z m163 10 c0 -33 -11 -68 -20 -68 -5 0 -4 15 1 33 7 26 6 34
-8 45 -15 11 -15 12 5 12 16 0 22 -6 22 -22z m40 -6 c-4 -17 -4 -36 2 -47 8
-13 7 -16 -3 -13 -18 6 -23 42 -9 67 15 29 20 26 10 -7z m60 8 c0 -11 -4 -20
-8 -20 -4 0 -8 9 -9 20 -1 11 2 20 8 20 5 0 9 -9 9 -20z m37 -29 c-6 -22 -13
-39 -15 -36 -7 7 10 85 18 80 4 -2 3 -23 -3 -44z m-856 -24 c-8 -8 -11 -8 -11
2 0 7 -7 19 -15 28 -8 8 -13 19 -9 24 3 5 15 -2 26 -16 15 -20 18 -29 9 -38z
m301 21 c-4 -33 -6 -38 -14 -24 -7 12 -7 26 1 42 15 33 17 30 13 -18z m110 17
c6 -28 -6 -34 -16 -9 -5 14 0 34 8 34 2 0 6 -11 8 -25z m93 -15 c0 -22 -3 -40
-7 -40 -11 0 -20 39 -13 60 10 33 20 23 20 -20z m-1285 -22 c0 -16 -3 -19 -11
-11 -6 6 -8 16 -5 22 11 17 16 13 16 -11z m392 -21 c3 -6 4 -17 0 -25 -4 -12
-7 -10 -14 7 -10 29 -40 24 -49 -9 -4 -14 -7 -18 -8 -10 -2 40 10 57 37 52 15
-3 30 -10 34 -15z m841 6 c12 -7 8 -30 -10 -44 -15 -13 -15 -12 -5 7 13 25 7
34 -25 34 -12 0 -23 5 -23 10 0 9 42 5 63 -7z m467 1 c0 -8 -5 -12 -10 -9 -6
4 -8 11 -5 16 9 14 15 11 15 -7z m-527 -34 c3 -11 1 -20 -4 -20 -5 0 -9 9 -9
20 0 11 2 20 4 20 2 0 6 -9 9 -20z"/>
<path d="M867 2123 c-10 -9 -8 -76 2 -92 5 -8 7 5 4 34 -4 34 -2 50 8 56 8 5
9 9 3 9 -6 0 -14 -3 -17 -7z"/>
<path d="M861 1949 c-13 -38 -13 -39 -2 -39 9 0 24 60 17 67 -2 2 -9 -10 -15
-28z"/>
<path d="M820 1880 l-25 -21 28 12 c15 7 27 16 27 21 0 11 -1 10 -30 -12z"/>
<path d="M267 1573 c-9 -20 -14 -39 -12 -42 3 -2 12 13 20 34 21 49 14 56 -8
8z"/>
<path d="M230 1501 c0 -25 6 -27 13 -6 4 8 2 17 -3 20 -6 4 -10 -3 -10 -14z"/>
<path d="M2377 1412 c-24 -26 -22 -103 2 -133 41 -50 96 21 76 98 -13 55 -47
69 -78 35z"/>
<path d="M637 1424 c-4 -4 -7 -22 -7 -41 0 -40 26 -46 36 -7 7 26 -15 62 -29
48z"/>
<path d="M1667 1358 c-10 -34 -9 -38 8 -38 16 0 20 27 6 48 -6 10 -10 8 -14
-10z"/>
<path d="M1888 1423 c-2 -4 -5 -23 -7 -41 -2 -28 0 -33 16 -30 13 2 18 12 18
37 0 31 -18 53 -27 34z"/>
</g>
</svg>
