<?xml version="1.0" standalone="no"?>
<!DOCTYPE svg PUBLIC "-//W3C//DTD SVG 20010904//EN"
 "http://www.w3.org/TR/2001/REC-SVG-20010904/DTD/svg10.dtd">
<svg version="1.0" xmlns="http://www.w3.org/2000/svg"
 width="298.000000pt" height="300.000000pt" viewBox="0 0 298.000000 300.000000"
 preserveAspectRatio="xMidYMid meet">

<g transform="translate(0.000000,300.000000) scale(0.100000,-0.100000)"
fill="#000000" stroke="none">
<path d="M0 1500 l0 -1500 1490 0 1490 0 0 1500 0 1500 -1490 0 -1490 0 0
-1500z m2420 410 l0 -950 -930 0 -930 0 0 950 0 950 930 0 930 0 0 -950z"/>
<path d="M582 1908 l3 -923 908 -3 907 -2 0 925 0 925 -910 0 -910 0 2 -922z
m750 717 c15 -11 46 -49 69 -85 84 -129 115 -150 215 -147 57 1 77 -3 112 -23
l42 -24 32 24 c30 22 33 23 61 7 16 -10 37 -17 47 -17 10 0 22 -4 25 -10 4 -6
-7 -10 -24 -10 -17 0 -31 -4 -31 -8 0 -18 27 -32 63 -32 47 0 47 -23 -1 -28
-24 -2 -40 5 -70 32 -22 21 -50 36 -64 36 -23 0 -24 -2 -24 -71 l1 -71 40 6
c24 4 58 0 85 -9 32 -10 36 -14 14 -11 -16 3 -36 6 -43 8 -8 2 -15 -2 -17 -8
-4 -10 72 -53 97 -55 8 0 4 -5 -9 -11 -19 -10 -29 -7 -68 20 -24 18 -53 32
-63 32 -17 0 -18 -7 -13 -67 4 -63 8 -71 47 -114 24 -25 46 -60 50 -77 7 -35
30 -52 69 -52 14 0 26 -4 26 -10 0 -5 -13 -10 -30 -10 -32 0 -62 26 -87 75
-27 52 -44 65 -85 65 -49 0 -80 29 -105 99 -12 35 -23 50 -33 48 -16 -3 -16
-10 -5 -39 5 -13 2 -18 -9 -18 -9 0 -16 7 -16 15 0 12 -15 15 -76 15 -71 0
-78 -2 -117 -34 -74 -59 -110 -67 -205 -46 -34 8 -49 7 -73 -6 -17 -8 -33 -14
-35 -11 -8 8 31 35 66 46 34 10 33 11 -17 7 -29 -1 -50 1 -47 6 3 4 35 8 72 8
40 0 62 -4 54 -9 -10 -6 -8 -10 10 -14 38 -11 47 -8 69 17 18 20 24 22 48 13
16 -6 35 -7 45 -4 20 8 21 37 1 37 -30 0 -65 47 -65 85 0 23 -5 38 -16 42 -8
3 -20 17 -25 30 -5 13 -13 21 -19 18 -6 -3 -14 5 -20 19 -5 14 -14 26 -20 26
-18 0 -23 -29 -10 -61 7 -16 10 -32 7 -35 -3 -4 -13 10 -21 30 -17 40 -43 51
-31 14 4 -13 7 -34 6 -48 -1 -14 -2 -42 -2 -62 -1 -35 -4 -38 -28 -38 -23 0
-33 9 -55 50 -33 61 -39 65 -61 40 -12 -13 -30 -20 -54 -19 l-36 1 34 14 c18
8 35 23 38 34 3 11 16 20 32 22 24 3 26 7 28 53 2 37 8 54 24 66 21 16 21 17
5 67 -15 46 -20 51 -36 42 -10 -6 -22 -15 -25 -20 -10 -16 -81 -12 -95 5 -11
13 -7 15 23 15 70 0 91 27 37 47 -40 15 -42 46 -2 37 15 -3 34 -15 44 -25 25
-29 58 -24 71 11 6 17 18 30 27 30 12 1 12 3 -2 14 -38 28 -21 38 55 34 52 -2
79 -9 99 -23z m-202 -51 c0 -16 -16 -19 -25 -4 -8 13 4 32 16 25 5 -4 9 -13 9
-21z m-208 -136 c16 -13 22 -29 19 -57 -1 -9 -10 -5 -26 13 -45 49 -90 24
-121 -66 -15 -42 -19 -48 -22 -29 -2 13 4 44 13 68 26 67 96 103 137 71z
m1218 -3 c32 -17 53 -51 65 -104 5 -23 4 -31 -4 -27 -6 4 -11 17 -11 29 0 28
-43 75 -77 83 -21 6 -31 2 -49 -19 -29 -34 -34 -34 -34 3 0 48 53 65 110 35z
m-1102 -163 c3 -10 -4 -13 -24 -10 -15 2 -29 9 -32 16 -3 10 4 13 24 10 15 -2
29 -9 32 -16z m-260 -27 c37 -31 40 -31 74 2 34 32 37 14 6 -30 -27 -38 -37
-145 -19 -200 18 -52 104 -170 156 -213 l47 -38 53 11 c63 14 146 -2 222 -40
l46 -24 -46 0 c-57 0 -92 -22 -107 -68 -13 -39 -24 -44 -40 -16 -16 32 -12 49
20 78 17 14 30 31 30 36 0 6 -30 8 -76 5 -54 -4 -83 -11 -102 -25 -35 -26 -50
-67 -34 -93 14 -24 15 -30 3 -30 -25 0 -43 34 -37 71 l6 37 -73 0 c-72 0 -105
8 -141 37 -29 22 -14 27 38 14 56 -14 153 -6 174 14 12 13 7 19 -41 50 -63 41
-97 81 -131 159 -13 30 -32 62 -41 71 -21 22 -63 22 -86 1 -17 -15 -19 -14
-25 10 -10 42 21 69 69 63 28 -4 40 -1 44 10 8 20 -13 55 -47 78 -32 21 -38
40 -17 48 26 11 47 6 75 -18z m1512 17 c0 -4 -16 -24 -35 -42 -26 -25 -35 -42
-33 -60 3 -22 7 -25 39 -22 40 4 69 -17 69 -48 0 -22 -16 -35 -25 -20 -3 5
-19 10 -35 10 -34 0 -45 -14 -85 -110 -27 -62 -98 -146 -150 -176 -55 -32 83
-57 168 -31 61 20 59 1 -4 -30 -31 -16 -63 -22 -106 -23 l-63 0 6 -43 c5 -33
2 -46 -10 -56 -22 -18 -31 -8 -15 17 42 67 -111 141 -208 100 -27 -11 -27 -12
-6 -15 43 -8 70 -77 40 -102 -16 -13 -27 -5 -27 19 0 9 -11 27 -25 40 -21 19
-32 22 -80 18 -30 -3 -55 -2 -55 2 0 4 28 20 63 36 51 23 81 29 164 34 l102 5
42 40 c130 126 172 280 109 399 -31 57 -28 73 5 36 24 -27 41 -25 61 5 13 20
25 25 55 25 22 0 39 -4 39 -8z m-1000 -133 c0 -16 5 -19 20 -14 22 7 25 -2 10
-25 -9 -13 -13 -12 -30 9 -20 24 -28 67 -10 56 6 -3 10 -15 10 -26z m588 -58
c3 -9 -2 -9 -22 0 -14 7 -26 19 -26 27 0 13 3 13 22 0 12 -8 24 -20 26 -27z
m-413 -21 c3 -5 -1 -10 -10 -10 -9 0 -13 5 -10 10 3 6 8 10 10 10 2 0 7 -4 10
-10z m-429 -35 c-11 -8 -25 -15 -30 -15 -6 0 -2 7 8 15 11 8 25 15 30 15 6 0
2 -7 -8 -15z m929 -25 c8 -13 -15 -13 -35 0 -12 8 -11 10 7 10 12 0 25 -4 28
-10z m-112 -74 c30 -38 36 -56 12 -36 -23 19 -58 70 -48 70 4 0 20 -16 36 -34z
m-319 -279 c21 -44 15 -58 -14 -32 -22 20 -40 14 -23 -7 7 -9 7 -21 1 -38
l-10 -25 -10 28 c-6 18 -15 26 -24 23 -20 -8 -17 9 9 55 27 48 46 47 71 -4z
m-400 -267 c32 -12 43 -46 22 -69 -9 -10 -16 -28 -16 -42 0 -13 -4 -30 -9 -38
-14 -22 -32 -3 -25 26 11 44 -40 61 -56 18 -9 -24 -21 -31 -32 -20 -5 6 26
117 38 137 6 10 32 6 78 -12z m794 -27 c-5 -20 -7 -56 -3 -80 5 -34 3 -43 -9
-43 -8 0 -18 10 -21 23 -4 12 -25 41 -47 63 -35 36 -37 42 -21 48 12 5 23 0
35 -14 21 -25 38 -18 38 15 0 22 17 37 32 29 3 -2 2 -21 -4 -41z m-662 -67
c-6 -54 -5 -64 10 -70 24 -9 44 12 44 48 0 47 11 76 28 76 12 0 14 -10 8 -56
-9 -79 -19 -94 -64 -94 -49 0 -62 14 -62 70 0 60 9 90 27 90 13 0 14 -11 9
-64z m484 39 c6 -8 9 -23 5 -34 -3 -10 -1 -22 5 -26 16 -10 12 -54 -7 -63 -10
-5 -37 -12 -59 -16 l-42 -6 -10 72 c-8 55 -8 74 1 80 21 13 94 9 107 -7z
m-205 -15 c23 -25 12 -37 -19 -21 -13 7 -32 11 -42 9 -24 -4 -42 -53 -28 -76
13 -20 65 -23 72 -4 2 6 -3 12 -12 12 -17 0 -22 15 -8 24 5 3 18 2 30 -1 18
-4 22 -13 22 -42 l0 -36 -50 -2 c-39 -2 -55 2 -70 17 -27 27 -27 89 0 118 27
28 80 29 105 2z"/>
<path d="M1283 2471 c2 -57 4 -61 42 -89 22 -16 51 -41 64 -56 33 -35 41 -33
41 13 0 50 -8 71 -24 65 -8 -3 -15 6 -19 24 -3 16 -17 37 -31 46 -25 16 -26
16 -26 -4 0 -33 -17 -23 -24 15 -11 59 -26 50 -23 -14z"/>
<path d="M1560 2318 c0 -6 10 -22 22 -35 30 -32 12 -48 -52 -48 -35 0 -46 -3
-39 -11 22 -27 157 -24 166 3 4 11 -77 103 -90 103 -4 0 -7 -5 -7 -12z"/>
<path d="M1075 1343 c-6 -18 10 -33 38 -33 25 0 18 31 -10 41 -16 6 -23 3 -28
-8z"/>
<path d="M1670 1285 c0 -9 9 -15 24 -15 13 0 26 7 30 15 4 11 -2 15 -24 15
-20 0 -30 -5 -30 -15z"/>
<path d="M1693 1243 c-7 -2 -13 -14 -13 -25 0 -15 4 -18 23 -13 30 10 41 21
33 34 -7 11 -22 13 -43 4z"/>
</g>
</svg>
