<?xml version="1.0" standalone="no"?>
<!DOCTYPE svg PUBLIC "-//W3C//DTD SVG 20010904//EN"
 "http://www.w3.org/TR/2001/REC-SVG-20010904/DTD/svg10.dtd">
<svg version="1.0" xmlns="http://www.w3.org/2000/svg"
 width="563.000000pt" height="544.000000pt" viewBox="0 0 563.000000 544.000000"
 preserveAspectRatio="xMidYMid meet">

<g transform="translate(0.000000,544.000000) scale(0.100000,-0.100000)"
fill="#232323" stroke="none">
<path d="M2766 5207 c-15 -11 -17 -34 -18 -199 0 -102 3 -191 6 -197 4 -6 14
-11 22 -11 8 0 14 -2 14 -3 0 -9 -262 -267 -271 -267 -5 0 -9 6 -9 14 0 8 -11
24 -25 37 -36 34 -55 72 -55 113 0 34 -11 51 -82 131 -14 16 -35 41 -47 55
-30 36 -26 11 13 -100 26 -74 39 -99 62 -112 30 -19 63 -71 64 -103 0 -11 9
-35 20 -53 26 -42 25 -58 -5 -106 l-24 -40 64 -27 c68 -28 103 -50 176 -111
26 -21 49 -38 52 -38 2 0 5 11 5 24 0 56 15 140 27 152 7 8 16 32 20 54 13 75
20 65 65 -85 10 -35 -1 -117 -20 -139 -15 -20 -10 -20 49 -1 25 8 94 23 153
35 106 20 178 44 178 58 0 8 -57 112 -80 150 -11 17 -12 26 -4 40 6 10 28 49
48 88 31 58 44 74 77 88 67 30 90 106 44 151 -65 66 -154 -1 -140 -105 6 -44
3 -55 -30 -114 -20 -36 -40 -66 -45 -66 -4 0 -20 16 -35 36 -15 20 -72 80
-127 135 -92 91 -112 124 -70 117 15 -3 17 6 16 62 -1 36 -3 118 -4 183 -2 99
-5 121 -22 142 -22 28 -36 31 -62 12z m-102 -926 c-7 -7 -34 21 -34 36 0 10 6
8 19 -8 11 -13 18 -26 15 -28z m224 -36 c-22 -33 -38 -45 -38 -26 0 8 49 61
56 61 3 0 -6 -16 -18 -35z"/>
<path d="M2389 4283 c-47 -120 -60 -163 -75 -251 -9 -56 -14 -109 -10 -118 6
-15 10 -13 37 12 l30 29 41 -43 41 -43 43 42 44 43 41 -44 41 -43 40 40 c39
39 40 43 31 79 -7 33 -5 46 15 84 25 47 65 90 84 90 6 0 8 3 5 6 -4 4 -19 2
-34 -5 -19 -7 -39 -8 -60 -2 -22 6 -56 6 -98 -1 -66 -11 -137 1 -152 25 -3 5
3 6 15 3 26 -9 92 3 92 15 0 5 -12 14 -27 20 -16 6 -49 28 -75 50 -26 21 -49
39 -53 39 -3 0 -10 -12 -16 -27z"/>
<path d="M3168 4212 c-55 -49 -126 -86 -253 -131 -166 -59 -169 -62 -160 -119
4 -26 13 -58 22 -71 l15 -23 44 43 44 43 43 -42 43 -42 42 42 42 42 43 -42 43
-42 42 42 42 42 35 -34 35 -34 0 47 c0 88 -53 296 -77 304 -6 2 -26 -9 -45
-25z"/>
<path d="M2330 3845 c-21 -22 -22 -30 -16 -97 12 -125 52 -272 100 -366 14
-28 26 -55 26 -60 0 -5 -36 -76 -80 -158 -75 -140 -86 -176 -47 -161 8 3 45
62 81 131 37 69 72 126 79 126 7 0 23 -16 36 -36 37 -54 141 -145 215 -188
l66 -39 0 -93 c0 -56 4 -94 10 -94 6 0 10 38 10 93 l0 94 78 50 c71 47 154
125 209 196 13 16 28 27 34 25 7 -2 45 -62 85 -134 40 -71 79 -130 88 -132 24
-5 21 6 -39 119 -31 57 -68 127 -82 156 l-26 52 36 79 c42 91 71 198 87 313
l11 82 -32 33 c-18 19 -37 34 -43 34 -6 0 -27 -17 -48 -37 l-38 -37 -38 37
c-21 20 -42 37 -47 37 -5 0 -26 -17 -47 -37 l-38 -37 -38 37 c-21 20 -42 37
-47 37 -5 0 -26 -17 -47 -37 l-38 -37 -38 37 c-21 20 -43 37 -49 37 -6 0 -25
-16 -42 -35 -17 -19 -34 -35 -39 -35 -4 0 -23 16 -42 35 -19 19 -38 35 -44 35
-6 0 -27 -17 -48 -37 l-38 -37 -38 37 c-21 20 -42 37 -48 37 -6 0 -21 -11 -34
-25z m630 -250 c0 -13 -24 -15 -154 -15 -141 0 -177 5 -159 24 3 3 75 6 160 6
129 0 153 -2 153 -15z m-185 -60 c0 -11 -99 -20 -122 -11 -8 3 -11 11 -8 16 8
14 130 9 130 -5z m183 3 c-5 -14 -99 -24 -125 -14 -32 12 2 26 63 26 48 0 65
-3 62 -12z m-7 -63 c-1 -15 -124 -12 -128 2 -3 8 12 13 44 15 54 3 85 -3 84
-17z m-173 3 c-5 -14 -99 -24 -125 -14 -32 12 2 26 63 26 48 0 65 -3 62 -12z
m-9 -47 c25 -16 0 -31 -52 -31 -61 0 -91 14 -67 30 19 12 100 13 119 1z m181
-1 c24 -16 -6 -30 -67 -30 -51 0 -70 10 -58 30 8 13 105 13 125 0z m-172 -67
c3 -10 -14 -13 -62 -13 -61 0 -84 8 -69 24 12 12 126 2 131 -11z m180 0 c3
-10 -14 -13 -62 -13 -61 0 -84 8 -69 24 12 12 126 2 131 -11z m-180 -60 c3
-10 -14 -13 -62 -13 -61 0 -84 8 -69 24 12 12 126 2 131 -11z m180 0 c3 -10
-14 -13 -62 -13 -61 0 -84 8 -69 24 12 12 126 2 131 -11z"/>
<path d="M1287 2153 c-2 -4 -4 -62 -3 -128 l1 -120 25 0 c23 0 25 4 30 59 l5
60 38 -62 c30 -49 43 -62 63 -62 33 0 30 16 -11 77 -19 29 -35 57 -35 64 0 6
16 33 35 59 19 26 35 50 35 54 0 3 -11 6 -25 6 -19 0 -34 -13 -63 -52 l-37
-53 -5 50 c-4 42 -9 51 -27 53 -11 2 -23 0 -26 -5z"/>
<path d="M1500 2148 c0 -18 52 -211 62 -230 5 -11 20 -18 38 -18 31 0 27 -8
61 123 12 46 25 41 34 -16 12 -72 31 -107 58 -107 34 0 39 10 72 130 35 131
35 125 6 125 -22 0 -26 -7 -44 -85 -11 -47 -21 -87 -24 -90 -8 -9 -20 23 -38
101 -17 75 -20 79 -46 79 -30 0 -33 -7 -60 -127 -7 -29 -15 -53 -19 -53 -3 0
-14 33 -24 73 -10 39 -20 80 -23 90 -5 19 -53 24 -53 5z"/>
<path d="M1921 2044 c-47 -132 -49 -144 -20 -144 13 0 23 10 30 30 10 28 15
30 60 30 44 0 50 -3 64 -30 14 -27 43 -39 57 -24 5 5 -13 63 -68 212 -14 38
-19 42 -49 42 l-33 0 -41 -116z m100 -19 c3 -16 -2 -21 -30 -23 -31 -3 -33 -2
-27 22 3 14 11 38 17 53 l11 28 13 -30 c7 -16 15 -39 16 -50z"/>
<path d="M2142 2143 c2 -14 15 -19 51 -21 26 -2 47 -7 47 -12 0 -5 -22 -44
-50 -86 -27 -42 -50 -87 -50 -101 0 -24 1 -24 88 -21 69 2 87 6 87 18 0 11
-14 16 -52 18 -30 2 -53 8 -53 14 0 6 23 47 50 90 28 43 50 88 50 98 0 18 -7
20 -86 20 -76 0 -85 -2 -82 -17z"/>
<path d="M2360 2055 c0 -99 2 -107 25 -130 44 -45 164 -27 179 27 3 13 6 65 6
116 0 92 0 92 -25 92 -25 0 -25 0 -25 -93 0 -101 -12 -127 -57 -127 -41 0 -53
30 -53 128 0 91 0 92 -25 92 l-25 0 0 -105z"/>
<path d="M2634 2147 c-2 -7 -3 -65 -2 -128 l3 -114 70 0 c56 0 70 3 70 15 0
10 -12 16 -35 18 -56 6 -60 14 -60 123 0 93 -1 99 -20 99 -11 0 -23 -6 -26
-13z"/>
<path d="M2810 2059 c0 -98 1 -101 29 -130 25 -24 37 -29 81 -29 88 0 114 45
108 185 -3 67 -4 70 -28 70 -25 0 -25 -1 -30 -100 -5 -97 -6 -100 -31 -109
-59 -20 -79 15 -79 135 0 78 0 79 -25 79 l-25 0 0 -101z"/>
<path d="M3185 2148 c-3 -8 -4 -66 -3 -129 3 -110 4 -114 26 -117 21 -3 22 -1
22 89 0 51 3 89 8 85 4 -4 27 -44 52 -89 41 -74 49 -82 75 -82 l30 0 3 128 3
128 -23 -3 c-21 -3 -23 -9 -28 -83 l-5 -80 -45 80 c-41 72 -49 80 -78 83 -20
2 -34 -2 -37 -10z"/>
<path d="M3482 2038 c-23 -68 -42 -126 -42 -130 0 -5 9 -8 21 -8 14 0 24 10
32 30 11 28 15 30 63 30 49 0 53 -2 63 -30 7 -23 16 -30 35 -30 15 0 26 3 25
8 0 4 -19 61 -43 127 l-42 120 -36 3 -35 3 -41 -123z m108 -25 c0 -8 -14 -13
-35 -13 -37 0 -40 5 -26 42 5 13 13 32 16 43 6 17 10 15 26 -20 10 -22 19 -46
19 -52z"/>
<path d="M3690 2140 c0 -16 7 -20 34 -20 43 0 46 -8 46 -127 0 -92 1 -94 23
-91 21 3 22 8 25 111 l3 107 34 0 c28 0 35 4 35 20 0 19 -7 20 -100 20 -93 0
-100 -1 -100 -20z"/>
<path d="M3951 2048 c-47 -129 -50 -148 -20 -148 13 0 23 10 30 30 10 28 14
30 60 30 47 0 51 -2 61 -31 8 -24 15 -29 34 -27 14 2 25 5 27 8 1 3 -18 60
-42 128 l-43 122 -33 0 c-33 0 -33 0 -74 -112z m99 -25 c0 -19 -5 -23 -31 -23
-28 0 -31 2 -25 25 3 13 11 37 17 52 l11 28 14 -30 c7 -16 13 -40 14 -52z"/>
<path d="M4182 2033 l3 -128 70 0 c56 0 70 3 70 15 0 10 -13 16 -42 18 -25 2
-43 8 -44 15 0 7 -1 55 -2 107 l-2 95 -28 3 -28 3 3 -128z"/>
<path d="M2112 1600 c-48 -22 -72 -64 -72 -125 0 -79 51 -125 139 -125 79 0
81 2 81 82 l0 69 -52 -3 c-39 -2 -53 -7 -53 -18 0 -9 11 -16 28 -18 25 -3 28
-7 25 -35 -3 -27 -8 -33 -32 -35 -33 -4 -71 27 -81 65 -8 33 12 91 35 103 24
13 86 13 111 0 16 -9 19 -7 19 14 0 18 -8 27 -31 35 -44 15 -67 14 -117 -9z"/>
<path d="M3605 1606 c-50 -23 -68 -51 -73 -115 -5 -63 13 -112 47 -131 34 -18
120 -12 151 10 42 30 59 113 37 172 -9 24 -26 49 -36 55 -32 20 -93 24 -126 9z
m99 -58 c23 -33 21 -113 -4 -138 -25 -25 -72 -26 -92 -2 -32 36 -29 132 4 154
26 16 76 9 92 -14z"/>
<path d="M1540 1480 l0 -130 25 0 c23 0 25 3 25 49 0 28 4 53 10 56 19 12 47
-15 64 -60 14 -36 22 -45 42 -45 31 0 31 22 -1 78 -24 42 -24 43 -5 62 26 26
26 74 0 100 -16 16 -33 20 -90 20 l-70 0 0 -130z m121 74 c19 -23 -1 -49 -37
-49 -30 0 -42 20 -30 51 7 19 50 18 67 -2z"/>
<path d="M1780 1505 c0 -99 2 -107 25 -130 35 -36 120 -36 159 0 25 23 26 28
26 130 l0 105 -25 0 c-25 0 -25 0 -25 -94 0 -102 -10 -126 -54 -126 -44 0 -56
28 -56 128 0 91 0 92 -25 92 l-25 0 0 -105z"/>
<path d="M2320 1479 l0 -131 74 4 c55 2 80 8 95 22 27 25 28 77 1 101 -17 16
-18 20 -5 38 21 30 19 44 -10 72 -21 22 -33 25 -90 25 l-65 0 0 -131z m118 64
c4 -25 -27 -46 -52 -37 -16 6 -22 45 -9 58 16 15 58 1 61 -21z m14 -96 c20
-31 -5 -60 -49 -55 -29 3 -41 31 -29 65 7 18 65 11 78 -10z"/>
<path d="M2540 1600 c0 -6 16 -42 35 -80 26 -52 35 -82 35 -120 0 -50 1 -51
28 -48 25 3 27 7 32 63 4 40 17 81 38 122 18 34 32 65 32 68 0 3 -12 5 -26 5
-21 0 -29 -8 -47 -50 -11 -27 -24 -50 -27 -50 -3 0 -16 23 -27 50 -18 42 -26
50 -47 50 -14 0 -26 -5 -26 -10z"/>
<path d="M2874 1595 c-4 -8 -4 -57 -2 -107 4 -84 6 -93 32 -114 40 -35 123
-34 157 2 22 23 24 36 27 130 l4 104 -26 0 -26 0 0 -88 c0 -101 -14 -132 -59
-132 -16 0 -33 6 -39 13 -6 7 -13 56 -14 108 -3 89 -4 94 -26 97 -13 2 -25 -3
-28 -13z"/>
<path d="M3157 1603 c-4 -3 -7 -62 -7 -130 l0 -123 25 0 c24 0 24 2 27 93 l3
92 34 -65 c53 -102 69 -122 100 -118 l26 3 3 128 3 127 -25 0 c-25 0 -25 -2
-28 -87 l-3 -88 -39 75 c-21 41 -43 81 -48 88 -11 13 -60 17 -71 5z"/>
<path d="M3430 1480 l0 -130 25 0 25 0 0 130 0 130 -25 0 -25 0 0 -130z"/>
<path d="M3830 1480 c0 -123 1 -130 20 -130 17 0 20 7 22 58 0 31 0 66 -1 77
-5 57 13 44 60 -43 45 -84 52 -92 79 -92 25 0 30 5 35 33 3 17 5 75 3 127 -3
90 -4 95 -25 98 -22 3 -23 1 -23 -77 0 -45 -3 -81 -7 -81 -5 0 -27 36 -51 80
-41 76 -45 80 -78 80 l-34 0 0 -130z"/>
</g>
</svg>
