<?xml version="1.0" encoding="UTF-8"?>
<svg version="1.1" xmlns="http://www.w3.org/2000/svg" width="211" height="180">
<path d="M0 0 C69.63 0 139.26 0 211 0 C211 59.4 211 118.8 211 180 C141.37 180 71.74 180 0 180 C0 120.6 0 61.2 0 0 Z " fill="#039FE3" transform="translate(0,0)"/>
<path d="M0 0 C15.84 0 31.68 0 48 0 C43.51162141 21.53019107 39.01058008 43.05230019 34.31231689 64.537323 C31.73359373 76.35233066 29.39479445 88.19729646 27.15209961 100.08032227 C25.40736758 109.2021652 23.35331409 118.21528366 21.12207031 127.22924805 C18.77139606 136.76140477 16.83176425 146.35629996 15 156 C15.81257767 155.98264297 16.62515533 155.96528595 17.46235657 155.94740295 C29.45290025 155.81045661 41.33778267 156.64718562 53.29296875 157.49609375 C55.53286829 157.65114266 57.77280337 157.80567879 60.01277161 157.95973206 C65.8791877 158.36430862 71.74518344 158.77466924 77.61108398 159.18664551 C86.97757397 159.84362335 96.34464723 160.49220202 105.71178627 161.13984871 C108.94628112 161.36438186 112.18057097 161.5916928 115.4148407 161.81944275 C125.71195652 162.53881449 136.00440551 163.2056238 146.31809521 163.63958645 C150.8857089 163.84334412 155.39689231 164.21929196 159.9364109 164.76843071 C163.46041084 165.16388258 166.9951278 165.34520955 170.53515625 165.53515625 C171.29928329 165.57813339 172.06341034 165.62111053 172.85069275 165.66539001 C175.25450675 165.80006545 177.65849157 165.93134592 180.0625 166.0625 C181.70769489 166.15407079 183.35287732 166.24586574 184.99804688 166.33789062 C188.99855883 166.5611804 192.99922758 166.78142897 197 167 C196.96777344 165.78441406 196.93554688 164.56882813 196.90234375 163.31640625 C196.91075157 157.11984287 197.74884623 151.07196847 198.5625 144.9375 C198.73618568 143.59375523 198.90917127 142.24991982 199.08154297 140.90600586 C199.37319665 138.63307385 199.66537763 136.36021829 199.95947266 134.08760071 C201.39379444 122.99765239 202.77211814 111.90062744 204.15744019 100.80447388 C204.61634063 97.13180269 205.07667745 93.45931408 205.53735352 89.78686523 C207.07308808 77.52999273 208.58608978 65.27157148 210 53 C210.33 53 210.66 53 211 53 C211 94.91 211 136.82 211 180 C141.37 180 71.74 180 0 180 C0 120.6 0 61.2 0 0 Z " fill="#838483" transform="translate(0,0)"/>
<path d="M0 0 C53.46 0 106.92 0 162 0 C162 13.86 162 27.72 162 42 C157.27651173 41.21275196 152.65352271 40.287221 148 39.1875 C147.24944336 39.01081787 146.49888672 38.83413574 145.72558594 38.65209961 C141.19607378 37.56964413 136.71875882 36.3774697 132.25 35.0625 C126.39509114 33.34443123 120.50289756 31.8923551 114.5625 30.5 C104.58173159 28.1585254 94.68094092 25.6132734 84.81640625 22.81640625 C75.79222238 20.26456759 66.74446788 17.94498338 57.61352539 15.80493164 C48.57259953 13.68094416 39.61386772 11.30513058 30.67578125 8.78125 C20.50543036 5.91477099 10.30560916 3.3350684 0 1 C0 0.67 0 0.34 0 0 Z " fill="#FCFEFE" transform="translate(49,0)"/>
<path d="M0 0 C15.84 0 31.68 0 48 0 C47.01 4.95 46.02 9.9 45 15 C41.04 14.67 37.08 14.34 33 14 C32.12358341 18.20804279 31.24848856 22.41634895 30.375 26.625 C30.24127991 27.26925934 30.10755981 27.91351868 29.9697876 28.57730103 C28.4228134 36.03733063 26.89168672 43.50010782 25.40625 50.97265625 C25.14924316 52.2654248 24.89223633 53.55819336 24.62744141 54.89013672 C24.1434331 57.3327925 23.66119196 59.77579946 23.18115234 62.21923828 C21.74792601 69.45850409 20.20467802 76.66620836 18.59140015 83.86689758 C16.70248951 92.30188735 14.88378779 100.75160631 13.07275391 109.20361328 C12.50181528 111.86653333 11.92868202 114.52897503 11.35546875 117.19140625 C9.27640277 126.87383087 7.25782555 136.56526993 5.3470459 146.28244019 C4.04332491 152.89086434 2.57749392 159.45101008 1 166 C0.67 166 0.34 166 0 166 C0 111.22 0 56.44 0 0 Z " fill="#FEFEFE" transform="translate(0,0)"/>
<path d="M0 0 C2.81091259 -0.46466106 5.30086743 -1.51493197 7.9375 -2.5625 C13.87043299 -4.60628628 19.80157689 -4.25866681 26 -4 C26 -3.34 26 -2.68 26 -2 C26.99 -1.81824219 27.98 -1.63648437 29 -1.44921875 C47.16816061 1.97283479 47.16816061 1.97283479 50.35546875 5.5 C53.18459116 8.0804822 56.84837684 8.34067372 60.50390625 9.15625 C63 10 63 10 65 13 C63.19447288 14.80552712 60.43005096 14.17213747 57.99462891 14.20532227 C56.04682777 14.23520988 56.04682777 14.23520988 54.05967712 14.26570129 C52.61530727 14.28274618 51.17093566 14.2996433 49.7265625 14.31640625 C48.22900395 14.33722082 46.73145046 14.35840217 45.23390198 14.37992859 C41.20017966 14.4362854 37.16640299 14.48579326 33.13256454 14.53303528 C30.63504687 14.56238195 28.13754555 14.59287698 25.64004517 14.62365723 C15.65018258 14.74589728 5.66022363 14.85420629 -4.32989502 14.95318604 C-7.3248269 14.98288846 -10.3197373 15.01395817 -13.31463623 15.04681396 C-20.72274139 15.12790675 -28.13065003 15.19466412 -35.53912354 15.23117065 C-37.71457311 15.24368443 -39.88999998 15.26117025 -42.06536865 15.28372192 C-45.05023474 15.31308287 -48.03453903 15.32341684 -51.01953125 15.328125 C-51.88275497 15.34042648 -52.7459787 15.35272797 -53.63536072 15.36540222 C-57.04667783 15.35260354 -59.53275428 15.25457788 -62.5612793 13.60449219 C-64 12 -64 12 -64 10 C-62.91332031 9.92652344 -62.91332031 9.92652344 -61.8046875 9.8515625 C-56.58541133 9.44793848 -51.90186342 8.98724193 -47 7 C-47 6.34 -47 5.68 -47 5 C-46.40985107 4.85377197 -45.81970215 4.70754395 -45.21166992 4.55688477 C-42.53663838 3.89332533 -39.86206595 3.22793347 -37.1875 2.5625 C-36.25873047 2.33240234 -35.32996094 2.10230469 -34.37304688 1.86523438 C-33.48037109 1.64287109 -32.58769531 1.42050781 -31.66796875 1.19140625 C-30.84578857 0.98717041 -30.0236084 0.78293457 -29.17651367 0.57250977 C-27.43247603 0.11375842 -25.71082088 -0.42972637 -24 -1 C-24 -1.66 -24 -2.32 -24 -3 C-15.43913012 -4.71217398 -7.74378781 -4.15520321 0 0 Z " fill="#91D6F3" transform="translate(114,87)"/>
<path d="M0 0 C0.33 0 0.66 0 1 0 C1 41.91 1 83.82 1 127 C-8.57 127 -18.14 127 -28 127 C-27.67 122.71 -27.34 118.42 -27 114 C-22.38 114 -17.76 114 -13 114 C-13.03222656 112.78441406 -13.06445312 111.56882812 -13.09765625 110.31640625 C-13.08924843 104.11984287 -12.25115377 98.07196847 -11.4375 91.9375 C-11.26381432 90.59375523 -11.09082873 89.24991982 -10.91845703 87.90600586 C-10.62680335 85.63307385 -10.33462237 83.36021829 -10.04052734 81.08760071 C-8.60620556 69.99765239 -7.22788186 58.90062744 -5.84255981 47.80447388 C-5.38365937 44.13180269 -4.92332255 40.45931408 -4.46264648 36.78686523 C-2.92691192 24.52999273 -1.41391022 12.27157148 0 0 Z " fill="#FAFDFE" transform="translate(210,53)"/>
<path d="M0 0 C0.66 0 1.32 0 2 0 C0.49222254 5.68595597 -2.39903885 10.04424599 -5.625 14.875 C-6.3984375 16.050625 -6.3984375 16.050625 -7.1875 17.25 C-8.45236838 19.17072607 -9.72327503 21.08714347 -11 23 C-10.11054688 22.50886719 -10.11054688 22.50886719 -9.203125 22.0078125 C-6.3759757 20.71454208 -4.07231289 20.86034941 -1 21 C-1.48821094 25.29625631 -2.29294512 27.6615409 -5 31 C-4.05640625 30.25943359 -4.05640625 30.25943359 -3.09375 29.50390625 C2.38841885 25.40053589 6.10576775 23.12767097 13 23 C13.99 24.485 13.99 24.485 15 26 C14.31292969 26.59167969 13.62585938 27.18335937 12.91796875 27.79296875 C12.01691406 28.58316406 11.11585938 29.37335938 10.1875 30.1875 C9.29417969 30.96480469 8.40085937 31.74210937 7.48046875 32.54296875 C5.1068383 34.89417119 3.56759953 37.06791184 2 40 C10.66464148 36.73434914 18.5309788 32.60971027 26.53125 27.98828125 C33.9761194 23.72089552 33.9761194 23.72089552 39 24 C38.505 25.485 38.505 25.485 38 27 C35.70903747 28.01388551 33.48493331 28.87056694 31.125 29.6875 C23.76103995 32.40272288 18.09755675 36.00532773 12 41 C12.33 41.33 12.66 41.66 13 42 C15.13810904 41.63186828 17.26197769 41.17960564 19.375 40.6875 C21.11910156 40.29111328 21.11910156 40.29111328 22.8984375 39.88671875 C26.13043479 39.13304486 26.13043479 39.13304486 29 37 C31.6875 36.875 31.6875 36.875 34 37 C34 37.66 34 38.32 34 39 C33.02417969 39.40992188 32.04835938 39.81984375 31.04296875 40.2421875 C29.75774425 40.78629714 28.47259175 41.33057689 27.1875 41.875 C26.54490234 42.14441406 25.90230469 42.41382813 25.24023438 42.69140625 C22.28509592 43.94695731 19.68084233 45.21277178 17 47 C19.64 48.32 22.28 49.64 25 51 C23 52 23 52 20.8359375 51.44140625 C20.02382812 51.15136719 19.21171875 50.86132812 18.375 50.5625 C17.55773437 50.27503906 16.74046875 49.98757812 15.8984375 49.69140625 C15.27195312 49.46324219 14.64546875 49.23507813 14 49 C14.165 48.360625 14.33 47.72125 14.5 47.0625 C15.03926667 45.19173179 15.03926667 45.19173179 15 44 C12.36 44.33 9.72 44.66 7 45 C7.33 43.68 7.66 42.36 8 41 C5.36 41.66 2.72 42.32 0 43 C0 41 0 39 0 37 C-0.94875 37.66 -1.8975 38.32 -2.875 39 C-6 41 -6 41 -8 41 C-7.67 39.02 -7.34 37.04 -7 35 C-7.81404297 35.433125 -7.81404297 35.433125 -8.64453125 35.875 C-9.71767578 36.431875 -9.71767578 36.431875 -10.8125 37 C-11.52019531 37.37125 -12.22789063 37.7425 -12.95703125 38.125 C-15 39 -15 39 -18 39 C-18.495 36.03 -18.495 36.03 -19 33 C-19.598125 33.825 -20.19625 34.65 -20.8125 35.5 C-21.534375 36.325 -22.25625 37.15 -23 38 C-23.99 38 -24.98 38 -26 38 C-26.66 36.35 -27.32 34.7 -28 33 C-28.53109375 33.58910156 -29.0621875 34.17820313 -29.609375 34.78515625 C-30.31578125 35.53667969 -31.0221875 36.28820312 -31.75 37.0625 C-32.44609375 37.81660156 -33.1421875 38.57070312 -33.859375 39.34765625 C-36 41 -36 41 -38.203125 40.93359375 C-40 40 -40 40 -41 37 C-41.99 38.98 -42.98 40.96 -44 43 C-46.86724686 42.42655063 -47.8614515 42.1385485 -50 40 C-50.33 41.98 -50.66 43.96 -51 46 C-54.19957435 47.05711427 -55.96645088 46.95184778 -59.109375 45.78515625 C-59.86347656 45.51123047 -60.61757812 45.23730469 -61.39453125 44.95507812 C-62.17183594 44.66052734 -62.94914062 44.36597656 -63.75 44.0625 C-64.54277344 43.77181641 -65.33554688 43.48113281 -66.15234375 43.18164062 C-68.10512629 42.46405186 -70.05305941 41.73329094 -72 41 C-72.495 41.495 -72.495 41.495 -73 42 C-68.39893171 46.02188688 -68.39893171 46.02188688 -63.5625 49.75 C-62.7890625 50.36875 -62.7890625 50.36875 -62 51 C-62 51.66 -62 52.32 -62 53 C-66.43116603 52.5632745 -68.97062467 49.51314156 -72 46.5625 C-75.15403533 43.51385941 -78.01531684 40.91008894 -82 39 C-83.25 36.375 -83.25 36.375 -84 34 C-82.35 34.33 -80.7 34.66 -79 35 C-79 35.66 -79 36.32 -79 37 C-78.071875 37.0825 -77.14375 37.165 -76.1875 37.25 C-70.87465502 37.98242925 -65.97221202 40.06686151 -61 42 C-61.40992187 41.39671875 -61.81984375 40.7934375 -62.2421875 40.171875 C-62.78101562 39.37265625 -63.31984375 38.5734375 -63.875 37.75 C-64.40867187 36.96109375 -64.94234375 36.1721875 -65.4921875 35.359375 C-67.95890486 31.49953747 -69 29.70096675 -69 25 C-67.09765625 25.19921875 -67.09765625 25.19921875 -65 26 C-64.05859375 28.14453125 -64.05859375 28.14453125 -63.4375 30.8125 C-62.54220943 34.57716906 -61.50341553 37.02502697 -59 40 C-59.09539062 39.31292969 -59.19078125 38.62585938 -59.2890625 37.91796875 C-59.39992188 37.01691406 -59.51078125 36.11585937 -59.625 35.1875 C-59.74101563 34.29417969 -59.85703125 33.40085938 -59.9765625 32.48046875 C-60 30 -60 30 -58 27 C-54.875 26.8125 -54.875 26.8125 -52 27 C-51.81824219 27.60328125 -51.63648438 28.2065625 -51.44921875 28.828125 C-49.58012094 34.85585198 -49.58012094 34.85585198 -46 40 C-41.93363153 31.22180775 -43.96666451 21.18375667 -45.5546875 11.96875 C-46.1131793 8.24547131 -46.1472745 4.75549981 -46 1 C-44.68 1.33 -43.36 1.66 -42 2 C-41.94465088 2.74048584 -41.88930176 3.48097168 -41.83227539 4.24389648 C-41.57733959 7.64189088 -41.31993719 11.03969424 -41.0625 14.4375 C-40.93198242 16.18450195 -40.93198242 16.18450195 -40.79882812 17.96679688 C-40.31494634 24.32894622 -39.75220702 30.66384175 -39 37 C-37.9275 36.443125 -36.855 35.88625 -35.75 35.3125 C-35.14671875 34.99925781 -34.5434375 34.68601563 -33.921875 34.36328125 C-28.49509179 30.51379479 -27.15323278 25.92997763 -25.875 19.75 C-25.31777985 17.13428889 -24.70211148 14.58424225 -24 12 C-23.34 11.67 -22.68 11.34 -22 11 C-22.31042917 13.87523714 -22.62327519 16.75017727 -22.9375 19.625 C-23.02451172 20.43324219 -23.11152344 21.24148437 -23.20117188 22.07421875 C-23.67709537 26.41041058 -24.22837189 30.70390836 -25 35 C-21.39988875 32.33984954 -18.97150967 29.86842423 -16.625 26.0625 C-16.03074219 25.09957031 -15.43648438 24.13664062 -14.82421875 23.14453125 C-12.93590592 19.88951664 -11.1800426 16.58506497 -9.4375 13.25 C-6.75649597 8.18386852 -4.05498415 4.05498415 0 0 Z " fill="#E5F5FC" transform="translate(137,36)"/>
<path d="M0 0 C15.98573633 0.59430744 31.93274969 1.45040203 47.890625 2.55859375 C50.09851296 2.70958031 52.30641952 2.86029507 54.51434326 3.01075745 C60.26401147 3.4033456 66.01340862 3.79977148 71.76275635 4.19702148 C77.54088244 4.59547807 83.31928732 4.98984927 89.09765625 5.38476562 C122.68557232 7.68338738 122.68557232 7.68338738 136.02246094 8.64648438 C137.30803894 8.73930191 138.59361694 8.83211945 139.91815186 8.92774963 C142.13217627 9.08870135 144.34610032 9.25104565 146.55987549 9.41539001 C156.69647242 10.15675406 166.84466687 10.60622178 177 11 C177 11.33 177 11.66 177 12 C118.59 12 60.18 12 0 12 C0 8.04 0 4.08 0 0 Z " fill="#FCFCFC" transform="translate(0,168)"/>
<path d="M0 0 C0.33 0 0.66 0 1 0 C1.495 3.465 1.495 3.465 2 7 C5.057952 5.26440562 7.63379989 3.61527381 10 1 C10 3.31 10 5.62 10 8 C10.62648437 7.71125 11.25296875 7.4225 11.8984375 7.125 C12.71570313 6.75375 13.53296875 6.3825 14.375 6 C15.18710938 5.62875 15.99921875 5.2575 16.8359375 4.875 C19 4 19 4 21 4 C20.67 5.98 20.34 7.96 20 10 C23.3 8.02 26.6 6.04 30 4 C29.34 6.64 28.68 9.28 28 12 C30.97 11.01 33.94 10.02 37 9 C36.34 10.65 35.68 12.3 35 14 C40.445 13.01 40.445 13.01 46 12 C45.01 12.99 44.02 13.98 43 15 C42.67 15.99 42.34 16.98 42 18 C43.546875 18.185625 43.546875 18.185625 45.125 18.375 C48.62116846 18.93889814 51.68397627 19.78682059 55 21 C54.505 22.485 54.505 22.485 54 24 C52.97261719 23.72285156 51.94523437 23.44570312 50.88671875 23.16015625 C42.92380896 21.06161378 35.26911464 19.35038621 27 19 C28.32 18.67 29.64 18.34 31 18 C31 17.34 31 16.68 31 16 C28.10212027 16.25578378 25.20768966 16.52900803 22.3125 16.8125 C21.49587891 16.88275391 20.67925781 16.95300781 19.83789062 17.02539062 C15.03726478 17.51128393 12.13341452 18.40078979 8 21 C5.96484375 20.78515625 5.96484375 20.78515625 4 20 C-3.84781082 17.21063078 -10.66989521 16.64747205 -19 17 C-19 17.66 -19 18.32 -19 19 C-15.7 19 -12.4 19 -9 19 C-9 19.33 -9 19.66 -9 20 C-9.72960937 20.02578125 -10.45921875 20.0515625 -11.2109375 20.078125 C-19.11593827 20.50753245 -26.42305237 21.83246575 -34.08154297 23.80371094 C-36.03597814 24.2845539 -38.01752952 24.65238297 -40 25 C-40.66 24.34 -41.32 23.68 -42 23 C-41 22 -41 22 -37.4375 21.9375 C-36.303125 21.958125 -35.16875 21.97875 -34 22 C-37.23908338 18.62595482 -40.73272547 15.6111535 -44.29296875 12.5859375 C-46 11 -46 11 -47 9 C-40.87682848 10.20455833 -35.2851979 11.90022478 -29.48046875 14.1953125 C-26.80048869 15.20571864 -26.80048869 15.20571864 -23 15 C-23 12.69 -23 10.38 -23 8 C-22.401875 8.495 -21.80375 8.99 -21.1875 9.5 C-19.02970006 11.28276418 -19.02970006 11.28276418 -16 11 C-15.34 9.02 -14.68 7.04 -14 5 C-13.34 5.33 -12.68 5.66 -12 6 C-11.505 7.485 -11.505 7.485 -11 9 C-7.14938321 8.46448376 -5.7213255 6.90019861 -3.3125 3.9375 C-2.22435471 2.611687 -1.12422177 1.29536315 0 0 Z " fill="#0BA1E4" transform="translate(109,67)"/>
<path d="M0 0 C20.56451613 -0.82258065 20.56451613 -0.82258065 30 4 C30.4846875 4.50917969 30.969375 5.01835938 31.46875 5.54296875 C34.192183 8.13439862 37.924311 8.3576152 41.50390625 9.15625 C44 10 44 10 46 13 C44.19447288 14.80552712 41.43005096 14.17213747 38.99462891 14.20532227 C37.04682777 14.23520988 37.04682777 14.23520988 35.05967712 14.26570129 C33.61530727 14.28274618 32.17093566 14.2996433 30.7265625 14.31640625 C29.22900395 14.33722082 27.73145046 14.35840217 26.23390198 14.37992859 C22.20017966 14.4362854 18.16640299 14.48579326 14.13256454 14.53303528 C11.63504687 14.56238195 9.13754555 14.59287698 6.64004517 14.62365723 C-3.34981742 14.74589728 -13.33977637 14.85420629 -23.32989502 14.95318604 C-26.3248269 14.98288846 -29.3197373 15.01395817 -32.31463623 15.04681396 C-39.72274139 15.12790675 -47.13065003 15.19466412 -54.53912354 15.23117065 C-56.71457311 15.24368443 -58.88999998 15.26117025 -61.06536865 15.28372192 C-64.05023474 15.31308287 -67.03453903 15.32341684 -70.01953125 15.328125 C-70.88275497 15.34042648 -71.7459787 15.35272797 -72.63536072 15.36540222 C-76.04667783 15.35260354 -78.53275428 15.25457788 -81.5612793 13.60449219 C-83 12 -83 12 -83 10 C-82.34008057 9.9575415 -81.68016113 9.91508301 -81.00024414 9.87133789 C-72.94406633 9.25882195 -65.35382171 7.63122895 -57.51757812 5.72851562 C-51.23189005 4.27471184 -45.44867797 3.69048462 -39 4 C-39 4.33 -39 4.66 -39 5 C-46.59 6.32 -54.18 7.64 -62 9 C-42.695 9.495 -42.695 9.495 -23 10 C-23 9.34 -23 8.68 -23 8 C-22.34 8 -21.68 8 -21 8 C-20.67 7.34 -20.34 6.68 -20 6 C-18.02 6 -16.04 6 -14 6 C-14 6.66 -14 7.32 -14 8 C-13.34 8 -12.68 8 -12 8 C-12 8.66 -12 9.32 -12 10 C7.8 9.01 7.8 9.01 28 8 C26.68 7.34 25.36 6.68 24 6 C23.505 5.01 23.505 5.01 23 4 C15.67700838 1.60594505 7.62801758 1.45433334 0 1 C0 0.67 0 0.34 0 0 Z " fill="#EFF9FD" transform="translate(133,87)"/>
<path d="M0 0 C1.32 0.33 2.64 0.66 4 1 C4.05534912 1.74048584 4.11069824 2.48097168 4.16772461 3.24389648 C4.42266041 6.64189088 4.68006281 10.03969424 4.9375 13.4375 C5.06801758 15.18450195 5.06801758 15.18450195 5.20117188 16.96679688 C5.68505366 23.32894622 6.24779298 29.66384175 7 36 C8.0725 35.443125 9.145 34.88625 10.25 34.3125 C10.85328125 33.99925781 11.4565625 33.68601563 12.078125 33.36328125 C17.50490821 29.51379479 18.84676722 24.92997763 20.125 18.75 C20.68222015 16.13428889 21.29788852 13.58424225 22 11 C22.66 10.67 23.32 10.34 24 10 C23.71722382 12.89695169 23.42412587 15.7922295 23.125 18.6875 C23.04636719 19.50412109 22.96773437 20.32074219 22.88671875 21.16210938 C22.43785829 25.42628372 21.89557813 29.08937454 20 33 C19.01 33 18.02 33 17 33 C15.1245535 34.74490498 13.49859826 36.6358369 11.81640625 38.56640625 C10 40 10 40 7.83984375 39.90234375 C7.23269531 39.60457031 6.62554687 39.30679688 6 39 C5.67 38.01 5.34 37.02 5 36 C4.01 37.98 3.02 39.96 2 42 C-0.86724686 41.42655063 -1.8614515 41.1385485 -4 39 C-4.33 40.98 -4.66 42.96 -5 45 C-8.19957435 46.05711427 -9.96645088 45.95184778 -13.109375 44.78515625 C-13.86347656 44.51123047 -14.61757812 44.23730469 -15.39453125 43.95507812 C-16.17183594 43.66052734 -16.94914062 43.36597656 -17.75 43.0625 C-18.54277344 42.77181641 -19.33554688 42.48113281 -20.15234375 42.18164062 C-22.10512629 41.46405186 -24.05305941 40.73329094 -26 40 C-26.495 40.495 -26.495 40.495 -27 41 C-22.39893171 45.02188688 -22.39893171 45.02188688 -17.5625 48.75 C-16.7890625 49.36875 -16.7890625 49.36875 -16 50 C-16 50.66 -16 51.32 -16 52 C-20.43116603 51.5632745 -22.97062467 48.51314156 -26 45.5625 C-29.15403533 42.51385941 -32.01531684 39.91008894 -36 38 C-37.25 35.375 -37.25 35.375 -38 33 C-36.35 33.33 -34.7 33.66 -33 34 C-33 34.66 -33 35.32 -33 36 C-32.071875 36.0825 -31.14375 36.165 -30.1875 36.25 C-24.87465502 36.98242925 -19.97221202 39.06686151 -15 41 C-15.40992187 40.39671875 -15.81984375 39.7934375 -16.2421875 39.171875 C-16.78101562 38.37265625 -17.31984375 37.5734375 -17.875 36.75 C-18.40867187 35.96109375 -18.94234375 35.1721875 -19.4921875 34.359375 C-21.95890486 30.49953747 -23 28.70096675 -23 24 C-21.09765625 24.19921875 -21.09765625 24.19921875 -19 25 C-18.05859375 27.14453125 -18.05859375 27.14453125 -17.4375 29.8125 C-16.54220943 33.57716906 -15.50341553 36.02502697 -13 39 C-13.09539062 38.31292969 -13.19078125 37.62585938 -13.2890625 36.91796875 C-13.39992188 36.01691406 -13.51078125 35.11585937 -13.625 34.1875 C-13.74101563 33.29417969 -13.85703125 32.40085938 -13.9765625 31.48046875 C-14 29 -14 29 -12 26 C-8.875 25.8125 -8.875 25.8125 -6 26 C-5.81824219 26.60328125 -5.63648438 27.2065625 -5.44921875 27.828125 C-3.58012094 33.85585198 -3.58012094 33.85585198 0 39 C4.06636847 30.22180775 2.03333549 20.18375667 0.4453125 10.96875 C-0.1131793 7.24547131 -0.1472745 3.75549981 0 0 Z " fill="#E2F4FC" transform="translate(91,37)"/>
<path d="M0 0 C2.0625 -0.04125 4.125 -0.0825 6.25 -0.125 C7.99023438 -0.15980469 7.99023438 -0.15980469 9.765625 -0.1953125 C12.88231687 -0.00710647 14.34891199 0.50575039 17 2 C19.19747131 1.70194993 19.19747131 1.70194993 21 1 C21.66 2.65 22.32 4.3 23 6 C24.98 4.35 26.96 2.7 29 1 C30.32 1.99 31.64 2.98 33 4 C32.64338234 7.20955896 31.94120732 8.05438323 29.5 10.3125 C26.47596891 13.56333342 26.25606133 15.64695743 26 20 C24.02 19.67 22.04 19.34 20 19 C19.87882812 18.31292969 19.75765625 17.62585938 19.6328125 16.91796875 C19.46523437 16.01691406 19.29765625 15.11585938 19.125 14.1875 C18.96257812 13.29417969 18.80015625 12.40085938 18.6328125 11.48046875 C18.08811551 8.77272154 18.08811551 8.77272154 16 6 C14.35 8.31 12.7 10.62 11 13 C12.32 13.33 13.64 13.66 15 14 C14.34 15.32 13.68 16.64 13 18 C10 18 10 18 7 16 C6.67 16.99 6.34 17.98 6 19 C4.02 18.67 2.04 18.34 0 18 C0 12.06 0 6.12 0 0 Z " fill="#E6F5FC" transform="translate(135,128)"/>
<path d="M0 0 C1.41249023 0.1247168 1.41249023 0.1247168 2.85351562 0.25195312 C7.39531646 0.69106866 11.42500063 1.10557357 15.5625 3.1875 C15.5625 3.8475 15.5625 4.5075 15.5625 5.1875 C17.5425 5.8475 19.5225 6.5075 21.5625 7.1875 C21.5625 7.5175 21.5625 7.8475 21.5625 8.1875 C7.54946157 9.10317112 -6.39656245 9.31061627 -20.4375 9.1875 C-20.4375 8.5275 -20.4375 7.8675 -20.4375 7.1875 C-21.0975 7.1875 -21.7575 7.1875 -22.4375 7.1875 C-22.4375 6.5275 -22.4375 5.8675 -22.4375 5.1875 C-23.0975 4.8575 -23.7575 4.5275 -24.4375 4.1875 C-22.85550369 3.53839846 -21.27184276 2.89335306 -19.6875 2.25 C-18.80578125 1.89035156 -17.9240625 1.53070313 -17.015625 1.16015625 C-11.04510326 -1.09235877 -6.28309294 -0.62959418 0 0 Z " fill="#A0DBF5" transform="translate(141.4375,87.8125)"/>
<path d="M0 0 C-0.33 2.31 -0.66 4.62 -1 7 C-3.31 7 -5.62 7 -8 7 C-7.15115234 7.41572266 -7.15115234 7.41572266 -6.28515625 7.83984375 C-5.55167969 8.20207031 -4.81820312 8.56429687 -4.0625 8.9375 C-2.96615234 9.47697266 -2.96615234 9.47697266 -1.84765625 10.02734375 C0 11 0 11 1 12 C1.47124825 19.30434783 1.47124825 19.30434783 -0.3125 21.9375 C-3.60414545 24.0100175 -6.40932807 24.11156717 -10.1875 24.0625 C-11.08855469 24.05347656 -11.98960938 24.04445312 -12.91796875 24.03515625 C-13.60503906 24.02355469 -14.29210937 24.01195312 -15 24 C-16 21 -16 21 -15.0625 18.8125 C-14.5365625 17.9153125 -14.5365625 17.9153125 -14 17 C-11.69 17 -9.38 17 -7 17 C-7 16.34 -7 15.68 -7 15 C-7.928125 14.896875 -8.85625 14.79375 -9.8125 14.6875 C-13 14 -13 14 -14.9375 12.875 C-16 11 -16 11 -16 7.5625 C-15 4 -15 4 -13.0625 1.5625 C-8.70740598 -0.65948675 -4.79719226 -0.33533771 0 0 Z " fill="#F1FAFD" transform="translate(102,125)"/>
<path d="M0 0 C2.3125 1 2.3125 1 4 3 C5.12091458 7.55838598 5.38300838 9.87225309 3.875 14.3125 C1.77695441 17.31969868 0.37441999 18.5874521 -3 20 C-6.0625 20.4375 -6.0625 20.4375 -9 20 C-12.20829293 17.39868141 -13.77184565 15.40151958 -14.4375 11.3125 C-13.82231999 6.6547085 -11.35850176 4.15838378 -8 1 C-5.19084526 -0.40457737 -3.11189466 -0.24895157 0 0 Z " fill="#F3FAFD" transform="translate(129,127)"/>
<path d="M0 0 C-0.33 0.99 -0.66 1.98 -1 3 C-3.29096253 4.01388551 -5.51506669 4.87056694 -7.875 5.6875 C-15.23896005 8.40272288 -20.90244325 12.00532773 -27 17 C-26.67 17.33 -26.34 17.66 -26 18 C-23.86189096 17.63186828 -21.73802231 17.17960564 -19.625 16.6875 C-18.46226562 16.42324219 -17.29953125 16.15898438 -16.1015625 15.88671875 C-12.86956521 15.13304486 -12.86956521 15.13304486 -10 13 C-7.3125 12.875 -7.3125 12.875 -5 13 C-5 13.66 -5 14.32 -5 15 C-5.97582031 15.40992187 -6.95164063 15.81984375 -7.95703125 16.2421875 C-9.24225575 16.78629714 -10.52740825 17.33057689 -11.8125 17.875 C-12.45509766 18.14441406 -13.09769531 18.41382812 -13.75976562 18.69140625 C-16.71490408 19.94695731 -19.31915767 21.21277178 -22 23 C-19.36 24.32 -16.72 25.64 -14 27 C-16 28 -16 28 -18.1640625 27.44140625 C-19.38222656 27.00634766 -19.38222656 27.00634766 -20.625 26.5625 C-21.44226563 26.27503906 -22.25953125 25.98757812 -23.1015625 25.69140625 C-23.72804687 25.46324219 -24.35453125 25.23507813 -25 25 C-24.835 24.360625 -24.67 23.72125 -24.5 23.0625 C-23.96073333 21.19173179 -23.96073333 21.19173179 -24 20 C-27.96 20.495 -27.96 20.495 -32 21 C-31.67 19.68 -31.34 18.36 -31 17 C-33.64 17.66 -36.28 18.32 -39 19 C-39 17 -39 15 -39 13 C-40.98 13.99 -40.98 13.99 -43 15 C-43.33 14.01 -43.66 13.02 -44 12 C-40.60137557 6.95687988 -36.43792 3.71295788 -31 1 C-30.34 1 -29.68 1 -29 1 C-30.11806432 3.51564471 -31.29533983 5.35798767 -33.0625 7.5 C-34.89959186 9.87044112 -35.50442185 11.12564673 -36 14 C-36.33 14.66 -36.66 15.32 -37 16 C-28.33535852 12.73434914 -20.4690212 8.60971027 -12.46875 3.98828125 C-5.0238806 -0.27910448 -5.0238806 -0.27910448 0 0 Z " fill="#DAF1FB" transform="translate(176,60)"/>
<path d="M0 0 C3.50031438 3.31895094 6.25362853 6.60111048 8.8125 10.6875 C9.41707031 11.64011719 10.02164063 12.59273437 10.64453125 13.57421875 C12 16 12 16 12 18 C9.69 18.66 7.38 19.32 5 20 C4.67 19.01 4.34 18.02 4 17 C2.02 17 0.04 17 -2 17 C-2.33 17.99 -2.66 18.98 -3 20 C-5.31 19.67 -7.62 19.34 -10 19 C-8.40376856 14.60616294 -6.21975667 10.71004193 -3.875 6.6875 C-3.50246094 6.04232422 -3.12992187 5.39714844 -2.74609375 4.73242188 C-1.83367787 3.15324055 -0.91724491 1.57638136 0 0 Z " fill="#F1FAFD" transform="translate(68,129)"/>
<path d="M0 0 C1.32 0.33 2.64 0.66 4 1 C4.08302368 2.11072876 4.08302368 2.11072876 4.16772461 3.24389648 C4.42266041 6.64189088 4.68006281 10.03969424 4.9375 13.4375 C5.02451172 14.60216797 5.11152344 15.76683594 5.20117188 16.96679688 C5.68505366 23.32894622 6.24779298 29.66384175 7 36 C8.0725 35.443125 9.145 34.88625 10.25 34.3125 C10.85328125 33.99925781 11.4565625 33.68601563 12.078125 33.36328125 C17.50490821 29.51379479 18.84676722 24.92997763 20.125 18.75 C20.68222015 16.13428889 21.29788852 13.58424225 22 11 C22.66 10.67 23.32 10.34 24 10 C23.71722382 12.89695169 23.42412587 15.7922295 23.125 18.6875 C23.00705078 19.91243164 23.00705078 19.91243164 22.88671875 21.16210938 C22.43785829 25.42628372 21.89557813 29.08937454 20 33 C19.01 33 18.02 33 17 33 C15.1245535 34.74490498 13.49859826 36.6358369 11.81640625 38.56640625 C10 40 10 40 7.85546875 39.875 C6 39 6 39 4.75 36.4375 C4.5025 35.633125 4.255 34.82875 4 34 C3.67 34 3.34 34 3 34 C2.91697632 33.13834229 2.91697632 33.13834229 2.83227539 32.25927734 C2.5778124 29.63097381 2.32018189 27.00298982 2.0625 24.375 C1.93198242 23.01955078 1.93198242 23.01955078 1.79882812 21.63671875 C1.43465164 17.94100181 1.04823501 14.28941004 0.4375 10.625 C-0.16151604 7.03090375 -0.06273347 3.63854099 0 0 Z " fill="#EAF7FC" transform="translate(91,37)"/>
<path d="M0 0 C0.66 1.65 1.32 3.3 2 5 C3.98 3.35 5.96 1.7 8 0 C9.32 0.99 10.64 1.98 12 3 C11.64338234 6.20955896 10.94120732 7.05438323 8.5 9.3125 C5.47596891 12.56333342 5.25606133 14.64695743 5 19 C3.02 18.67 1.04 18.34 -1 18 C-1.16435547 16.98679688 -1.16435547 16.98679688 -1.33203125 15.953125 C-1.49058594 15.06109375 -1.64914063 14.1690625 -1.8125 13.25 C-2.03873047 11.92742187 -2.03873047 11.92742187 -2.26953125 10.578125 C-3.05666768 7.79999644 -4.22364302 6.23869646 -6 4 C-6 3.34 -6 2.68 -6 2 C-3 0 -3 0 0 0 Z " fill="#F1FAFD" transform="translate(156,129)"/>
<path d="M0 0 C0 1.65 0 3.3 0 5 C-0.66 5 -1.32 5 -2 5 C-2 9.62 -2 14.24 -2 19 C-3.98 19 -5.96 19 -8 19 C-8 15.04 -8 11.08 -8 7 C-9.32 7 -10.64 7 -12 7 C-12 5.02 -12 3.04 -12 1 C-7.93631321 0.22596442 -4.13574827 -0.0984702 0 0 Z " fill="#F3FAFD" transform="translate(115,124)"/>
<path d="M0 0 C2.31 0 4.62 0 7 0 C7.93423645 3.01031744 8.04449911 3.86650268 7 7 C7 7.99 7 8.98 7 10 C6.113125 10.144375 5.22625 10.28875 4.3125 10.4375 C2.30247965 10.77882421 0.29830245 11.16318548 -1.6875 11.625 C-4 12 -4 12 -7 11 C-7 11.66 -7 12.32 -7 13 C-8.32 12.67 -9.64 12.34 -11 12 C-10.32902328 7.80639551 -8.1441606 4.59665648 -6 1 C-5.360625 1.804375 -4.72125 2.60875 -4.0625 3.4375 C-2.59396498 5.2750504 -2.59396498 5.2750504 -1 7 C-0.67 4.69 -0.34 2.38 0 0 Z " fill="#EEF8FD" transform="translate(108,108)"/>
<path d="M0 0 C0.89009766 -0.01611328 1.78019531 -0.03222656 2.69726562 -0.04882812 C8.83608383 -0.05331229 13.87393403 1.01464277 19.5625 3.3125 C19.5625 3.6425 19.5625 3.9725 19.5625 4.3125 C6.3625 4.3125 -6.8375 4.3125 -20.4375 4.3125 C-15.40517993 -0.71982007 -6.67015324 -0.02404525 0 0 Z " fill="#0DA2E4" transform="translate(143.4375,91.6875)"/>
<path d="M0 0 C0 0.99 0 1.98 0 3 C-0.66 3 -1.32 3 -2 3 C-2 5.64 -2 8.28 -2 11 C-2.99 11 -3.98 11 -5 11 C-5 8.36 -5 5.72 -5 3 C-5.66 3 -6.32 3 -7 3 C-7 3.66 -7 4.32 -7 5 C-7.99 5 -8.98 5 -10 5 C-9.01 5.66 -8.02 6.32 -7 7 C-7.875 11.875 -7.875 11.875 -9 13 C-10.99958364 13.04080783 -13.00045254 13.04254356 -15 13 C-15 11.68 -15 10.36 -15 9 C-14.01 9 -13.02 9 -12 9 C-12.99 8.34 -13.98 7.68 -15 7 C-14.67 5.35 -14.34 3.7 -14 2 C-9.126739 0.4087311 -5.19209404 -0.21192221 0 0 Z " fill="#E7F6FC" transform="translate(97,109)"/>
<path d="M0 0 C2.97 0 5.94 0 9 0 C8.67 3.3 8.34 6.6 8 10 C5.36 10 2.72 10 0 10 C0 8.35 0 6.7 0 5 C-0.66 5 -1.32 5 -2 5 C-2 6.98 -2 8.96 -2 11 C-2.99 11 -3.98 11 -5 11 C-5.33 8.36 -5.66 5.72 -6 3 C-4.02 3 -2.04 3 0 3 C0 2.01 0 1.02 0 0 Z " fill="#D9F1FB" transform="translate(157,110)"/>
<path d="M0 0 C2.81091259 -0.46466106 5.30086743 -1.51493197 7.9375 -2.5625 C13.87043299 -4.60628628 19.80157689 -4.25866681 26 -4 C26 -3.34 26 -2.68 26 -2 C24.99839844 -1.97421875 23.99679688 -1.9484375 22.96484375 -1.921875 C15.67800577 -1.64365361 10.13207085 -1.26578842 4 3 C1.5 4 1.5 4 -1 4 C-3.49272886 2.85888412 -5.66755238 1.46857813 -8 0 C-11.16245541 -1.0541518 -13.86948218 -1.31275672 -17.1875 -1.5625 C-18.81751953 -1.68818359 -18.81751953 -1.68818359 -20.48046875 -1.81640625 C-21.31191406 -1.87699219 -22.14335938 -1.93757813 -23 -2 C-23 -2.33 -23 -2.66 -23 -3 C-14.85395433 -4.98147057 -7.30517003 -3.91984733 0 0 Z " fill="#DDF2FB" transform="translate(114,87)"/>
<path d="M0 0 C0.66 0.99 1.32 1.98 2 3 C-1.63 6.3 -5.26 9.6 -9 13 C-9 9.39426104 -8.18292538 8.58663434 -6 5.8125 C-5.443125 5.09707031 -4.88625 4.38164063 -4.3125 3.64453125 C-3.6628125 2.83048828 -3.6628125 2.83048828 -3 2 C-11.05895863 6.27905124 -11.05895863 6.27905124 -17 13 C-17.185625 13.7425 -17.37125 14.485 -17.5625 15.25 C-17.7790625 16.11625 -17.7790625 16.11625 -18 17 C-18.99 17.33 -19.98 17.66 -21 18 C-20.17966857 13.21473334 -19.49213039 9.30017536 -15.72265625 6.015625 C-14.84480469 5.43296875 -13.96695313 4.8503125 -13.0625 4.25 C-12.18722656 3.65703125 -11.31195313 3.0640625 -10.41015625 2.453125 C-6.89310939 0.33263646 -4.07521968 -0.41797125 0 0 Z " fill="#E4F5FC" transform="translate(150,59)"/>
<path d="M0 0 C2.475 0.495 2.475 0.495 5 1 C5 1.66 5 2.32 5 3 C6.03125 3.12375 7.0625 3.2475 8.125 3.375 C11.62116846 3.93889814 14.68397627 4.78682059 18 6 C18 6.66 18 7.32 18 8 C15.36 7.67 12.72 7.34 10 7 C11.24839499 8.105981 12.49879234 9.20970201 13.75 10.3125 C14.44609375 10.92738281 15.1421875 11.54226562 15.859375 12.17578125 C17.96978683 14.02916165 17.96978683 14.02916165 20.265625 15.60546875 C20.83796875 16.06566406 21.4103125 16.52585937 22 17 C22 17.66 22 18.32 22 19 C17.56883397 18.5632745 15.02937533 15.51314156 12 12.5625 C8.84596467 9.51385941 5.98468316 6.91008894 2 5 C0.75 2.375 0.75 2.375 0 0 Z " fill="#E3F5FC" transform="translate(53,70)"/>
<path d="M0 0 C0.66 0 1.32 0 2 0 C0.43544883 5.93752028 -2.67553583 10.68877269 -5.9375 15.8125 C-6.47568359 16.68326172 -7.01386719 17.55402344 -7.56835938 18.45117188 C-8.09107422 19.27810547 -8.61378906 20.10503906 -9.15234375 20.95703125 C-9.8637854 22.08588745 -9.8637854 22.08588745 -10.58959961 23.23754883 C-12 25 -12 25 -15 26 C-12.04169532 16.3565068 -7.15897336 7.15897336 0 0 Z " fill="#EDF8FD" transform="translate(137,36)"/>
<path d="M0 0 C0 0.33 0 0.66 0 1 C-11.22 1 -22.44 1 -34 1 C-27.55575382 -5.44424618 -7.96161575 -2.65387192 0 0 Z " fill="#079DE3" transform="translate(107,95)"/>
<path d="M0 0 C-0.33 0.99 -0.66 1.98 -1 3 C-3.37547706 4.08407058 -5.67305861 5.00435573 -8.125 5.875 C-12.51448671 7.50718062 -16.47323587 9.00690478 -20.1875 11.9375 C-21.115625 12.618125 -22.04375 13.29875 -23 14 C-25.17578125 13.62890625 -25.17578125 13.62890625 -27 13 C-23.55551961 10.25302689 -19.82740063 8.0954173 -16 5.9375 C-15.38382813 5.58623047 -14.76765625 5.23496094 -14.1328125 4.87304688 C-5.05284162 -0.28071342 -5.05284162 -0.28071342 0 0 Z " fill="#D5EFFB" transform="translate(176,60)"/>
<path d="M0 0 C0 0.66 0 1.32 0 2 C-1.46373047 2.61488281 -1.46373047 2.61488281 -2.95703125 3.2421875 C-4.24225575 3.78629714 -5.52740825 4.33057689 -6.8125 4.875 C-7.77639648 5.27912109 -7.77639648 5.27912109 -8.75976562 5.69140625 C-11.71490408 6.94695731 -14.31915767 8.21277178 -17 10 C-14.36 11.32 -11.72 12.64 -9 14 C-11 15 -11 15 -13.1640625 14.44140625 C-13.97617188 14.15136719 -14.78828125 13.86132812 -15.625 13.5625 C-16.44226563 13.27503906 -17.25953125 12.98757812 -18.1015625 12.69140625 C-18.72804687 12.46324219 -19.35453125 12.23507813 -20 12 C-19.625 10.0625 -19.625 10.0625 -19 8 C-18.34 7.67 -17.68 7.34 -17 7 C-17 6.01 -17 5.02 -17 4 C-16.38511719 3.87882812 -15.77023438 3.75765625 -15.13671875 3.6328125 C-14.32847656 3.46523437 -13.52023438 3.29765625 -12.6875 3.125 C-11.88699219 2.96257812 -11.08648437 2.80015625 -10.26171875 2.6328125 C-0.71392617 -0.0385906 -0.71392617 -0.0385906 0 0 Z " fill="#DAF1FB" transform="translate(171,73)"/>
<path d="M0 0 C9.82736719 0.3037826 18.34538458 1.34381268 26 8 C22.33106156 9.22297948 21.69170782 8.63726556 18.25 7.125 C11.22383177 4.38998149 4.47244948 4.20168555 -3 4 C-2.01 3.34 -1.02 2.68 0 2 C0 1.34 0 0.68 0 0 Z " fill="#39B3EA" transform="translate(90,84)"/>
<path d="M0 0 C-0.88303238 4.77257975 -3.54392318 7.71755384 -7 11 C-9.875 12.4375 -9.875 12.4375 -12 13 C-12 9.6252665 -11.52061981 7.5848218 -9.2578125 5.04296875 C-3.64994908 0 -3.64994908 0 0 0 Z " fill="#12A4E5" transform="translate(133,59)"/>
<path d="M0 0 C0 1.32 0 2.64 0 4 C-0.66 4 -1.32 4 -2 4 C-2 6.97 -2 9.94 -2 13 C-3.32 13 -4.64 13 -6 13 C-6 10.36 -6 7.72 -6 5 C-6.66 5 -7.32 5 -8 5 C-8 3.68 -8 2.36 -8 1 C-5.23735711 0.40267181 -2.83967231 0 0 0 Z " fill="#EFF9FD" transform="translate(76,109)"/>
<path d="M0 0 C1.2065625 0.0309375 1.2065625 0.0309375 2.4375 0.0625 C2.4375 1.0525 2.4375 2.0425 2.4375 3.0625 C1.4475 3.5575 1.4475 3.5575 0.4375 4.0625 C1.4275 4.7225 2.4175 5.3825 3.4375 6.0625 C2.5625 9.9375 2.5625 9.9375 1.4375 11.0625 C-0.56208364 11.10330783 -2.56295254 11.10504356 -4.5625 11.0625 C-4.5625 10.0725 -4.5625 9.0825 -4.5625 8.0625 C-3.9025 7.7325 -3.2425 7.4025 -2.5625 7.0625 C-3.2225 6.7325 -3.8825 6.4025 -4.5625 6.0625 C-3.48963568 0.08511307 -3.48963568 0.08511307 0 0 Z " fill="#EBF8FD" transform="translate(129.5625,106.9375)"/>
<path d="M0 0 C0.66 0 1.32 0 2 0 C2 2.97 2 5.94 2 9 C0.68 8.67 -0.64 8.34 -2 8 C-2.33 8.66 -2.66 9.32 -3 10 C-3.66 10 -4.32 10 -5 10 C-8.11450382 5.84732824 -8.11450382 5.84732824 -7.6875 2.6875 C-7.460625 2.130625 -7.23375 1.57375 -7 1 C-4.69 1.66 -2.38 2.32 0 3 C0 2.01 0 1.02 0 0 Z " fill="#E3F4FC" transform="translate(143,111)"/>
<path d="M0 0 C2.31 0 4.62 0 7 0 C7 0.99 7 1.98 7 3 C6.34 3 5.68 3 5 3 C5 5.64 5 8.28 5 11 C3.68 11 2.36 11 1 11 C0.67 7.37 0.34 3.74 0 0 Z " fill="#DDF2FB" transform="translate(117,108)"/>
<path d="M0 0 C-1.52763464 4.08596252 -4.11084191 5.79826179 -7.625 8.25 C-8.62789062 8.95640625 -9.63078125 9.6628125 -10.6640625 10.390625 C-11.43492187 10.92171875 -12.20578125 11.4528125 -13 12 C-13.66 11.67 -14.32 11.34 -15 11 C-11.55874023 6.37580718 -6.28085826 0 0 0 Z " fill="#18A6E5" transform="translate(147,61)"/>
<path d="M0 0 C0 4.29 0 8.58 0 13 C-1.32 13 -2.64 13 -4 13 C-4 9.04 -4 5.08 -4 1 C-2 0 -2 0 0 0 Z " fill="#EEF9FD" transform="translate(66,110)"/>
<path d="M0 0 C1.32 0 2.64 0 4 0 C4.625 2.3125 4.625 2.3125 5 5 C4.01 6.485 4.01 6.485 3 8 C0.375 8.1875 0.375 8.1875 -2 8 C-2.125 5.125 -2.125 5.125 -2 2 C-1.34 1.34 -0.68 0.68 0 0 Z " fill="#1BA7E6" transform="translate(123,133)"/>
<path d="M0 0 C0.73863281 0.28875 1.47726563 0.5775 2.23828125 0.875 C-1.01845825 1.96057983 -1.86139293 1.78835726 -5.07421875 1 C-11.58132226 -0.42674269 -18.1236983 -0.7615349 -24.76171875 -1.125 C-16.84544776 -5.70617534 -8.04147915 -2.94275222 0 0 Z " fill="#22AAE7" transform="translate(107.76171875,92.125)"/>
<path d="M0 0 C1.32 0.66 2.64 1.32 4 2 C4 5.63 4 9.26 4 13 C1.12290934 10.12290934 0.0846772 8.79637021 -1 5 C-0.625 2.1875 -0.625 2.1875 0 0 Z " fill="#17A6E5" transform="translate(80,66)"/>
<path d="M0 0 C0.33 0.66 0.66 1.32 1 2 C-6.92 3.485 -6.92 3.485 -15 5 C-15.33 4.01 -15.66 3.02 -16 2 C-14.27507022 1.46530198 -12.544802 0.94780825 -10.8125 0.4375 C-9.36810547 0.00244141 -9.36810547 0.00244141 -7.89453125 -0.44140625 C-4.84169837 -1.03054944 -2.94421418 -0.95700035 0 0 Z " fill="#B8E5F8" transform="translate(83,90)"/>
<path d="M0 0 C0 0.99 0 1.98 0 3 C-0.66 3 -1.32 3 -2 3 C-2 5.64 -2 8.28 -2 11 C-2.99 11 -3.98 11 -5 11 C-5 8.36 -5 5.72 -5 3 C-5.66 2.67 -6.32 2.34 -7 2 C-4.35261084 0.5393715 -3.10551666 0 0 0 Z " fill="#F7FCFE" transform="translate(97,109)"/>
<path d="M0 0 C0.33 0.66 0.66 1.32 1 2 C0.06421005 4.35981813 -0.93347808 6.69631264 -2 9 C-4.86724686 8.42655063 -5.8614515 8.1385485 -8 6 C-8.33 6.66 -8.66 7.32 -9 8 C-9.66 8 -10.32 8 -11 8 C-10.67 6.68 -10.34 5.36 -10 4 C-9.34 4 -8.68 4 -8 4 C-7.67 3.34 -7.34 2.68 -7 2 C-6.01 3.32 -5.02 4.64 -4 6 C-3.566875 4.7934375 -3.566875 4.7934375 -3.125 3.5625 C-2 1 -2 1 0 0 Z " fill="#D9F1FB" transform="translate(95,70)"/>
<path d="M0 0 C-1 3 -1 3 -2.70703125 3.94921875 C-3.40183594 4.19285156 -4.09664062 4.43648438 -4.8125 4.6875 C-5.49957031 4.93886719 -6.18664062 5.19023438 -6.89453125 5.44921875 C-9 6 -9 6 -13 6 C-13 5.34 -13 4.68 -13 4 C-4.738041 -0.59225513 -4.738041 -0.59225513 0 0 Z " fill="#EAF7FD" transform="translate(176,60)"/>
<path d="M0 0 C1.4049404 3.89060419 0.69513239 7.23092362 0.0625 11.25 C-0.13214844 12.51328125 -0.32679687 13.7765625 -0.52734375 15.078125 C-0.68332031 16.04234375 -0.83929688 17.0065625 -1 18 C-1.99 17.67 -2.98 17.34 -4 17 C-3.52555245 14.35323911 -3.04568672 11.70766636 -2.5625 9.0625 C-2.42779297 8.30775391 -2.29308594 7.55300781 -2.15429688 6.77539062 C-1.11328125 1.11328125 -1.11328125 1.11328125 0 0 Z " fill="#D7F0FB" transform="translate(114,47)"/>
<path d="M0 0 C1.32 0.33 2.64 0.66 4 1 C3.01 2.32 2.02 3.64 1 5 C3.31 5 5.62 5 8 5 C5.09907498 6.93395001 4.10325263 7.30131941 0.8125 7.625 C-0.445625 7.74875 -1.70375 7.8725 -3 8 C-2.37240135 5.07120629 -1.41377341 2.63904371 0 0 Z " fill="#E8F7FC" transform="translate(147,73)"/>
<path d="M0 0 C1.32 0 2.64 0 4 0 C4.66 3.63 5.32 7.26 6 11 C5.34 11 4.68 11 4 11 C3.67 11.66 3.34 12.32 3 13 C2.83723958 10.98177083 2.67447917 8.96354167 2.51171875 6.9453125 C2.12606964 4.60480784 2.12606964 4.60480784 -1 3 C-0.67 2.01 -0.34 1.02 0 0 Z " fill="#E3F5FC" transform="translate(81,63)"/>
<path d="M0 0 C0.33 0.99 0.66 1.98 1 3 C1.928125 2.484375 2.85625 1.96875 3.8125 1.4375 C7 0 7 0 10 1 C7.87330165 3.33936818 5.93775144 4.80653848 3 6 C2.01 6 1.02 6 0 6 C0 4.02 0 2.04 0 0 Z " fill="#EEF9FD" transform="translate(119,69)"/>
<path d="M0 0 C0.99 0.33 1.98 0.66 3 1 C2.0409375 2.11375 2.0409375 2.11375 1.0625 3.25 C-1.09297199 5.75342211 -1.09297199 5.75342211 -1.5625 8.25 C-1.706875 8.8275 -1.85125 9.405 -2 10 C-2.99 10.33 -3.98 10.66 -5 11 C-4.39102647 7.44765442 -3.54266151 4.2668126 -2 1 C-1.34 0.67 -0.68 0.34 0 0 Z " fill="#F1F9FD" transform="translate(134,66)"/>
<path d="M0 0 C1.65 0 3.3 0 5 0 C4.67 2.64 4.34 5.28 4 8 C3.01 8 2.02 8 1 8 C0.67 5.36 0.34 2.72 0 0 Z " fill="#FDFEFE" transform="translate(151,113)"/>
<path d="M0 0 C1.98 0.66 3.96 1.32 6 2 C6 2.66 6 3.32 6 4 C0.06 3.67 -5.88 3.34 -12 3 C-12 2.67 -12 2.34 -12 2 C-11.21753906 1.93941406 -10.43507812 1.87882812 -9.62890625 1.81640625 C-8.61699219 1.73261719 -7.60507813 1.64882812 -6.5625 1.5625 C-5.55316406 1.48128906 -4.54382813 1.40007812 -3.50390625 1.31640625 C-1.06359221 1.26788532 -1.06359221 1.26788532 0 0 Z " fill="#9FDCF5" transform="translate(151,89)"/>
<path d="M0 0 C0.66 0 1.32 0 2 0 C1.67 2.64 1.34 5.28 1 8 C0.01 8 -0.98 8 -2 8 C-2.66 7.01 -3.32 6.02 -4 5 C-2.71937515 3.2925002 -1.38232443 1.62626404 0 0 Z " fill="#C1E8F9" transform="translate(131,63)"/>
<path d="M0 0 C0.99 0 1.98 0 3 0 C3 2.64 3 5.28 3 8 C2.01 8 1.02 8 0 8 C0 5.36 0 2.72 0 0 Z " fill="#E2F4FC" transform="translate(147,113)"/>
<path d="M0 0 C0.33 0 0.66 0 1 0 C1.66 3.63 2.32 7.26 3 11 C1 11 1 11 -0.6875 9.375 C-2.44121876 6.20160414 -1.91530623 4.43239834 -1 1 C-0.67 0.67 -0.34 0.34 0 0 Z " fill="#F7FCFE" transform="translate(96,64)"/>
<path d="M0 0 C1.32 1.32 2.64 2.64 4 4 C3.01 4 2.02 4 1 4 C1 4.66 1 5.32 1 6 C-0.32 5.67 -1.64 5.34 -3 5 C-2.625 3.0625 -2.625 3.0625 -2 1 C-1.34 0.67 -0.68 0.34 0 0 Z " fill="#DDF2FB" transform="translate(100,115)"/>
<path d="M0 0 C0.66 0 1.32 0 2 0 C2 2.64 2 5.28 2 8 C0 7 0 7 -1 4 C-2.49985609 2.33289654 -2.49985609 2.33289654 -4 1 C-2.68 1.33 -1.36 1.66 0 2 C0 1.34 0 0.68 0 0 Z " fill="#33B0E9" transform="translate(90,112)"/>
<path d="M0 0 C0.66 0 1.32 0 2 0 C2 0.66 2 1.32 2 2 C4.64 3.32 7.28 4.64 10 6 C8 7 8 7 5.8359375 6.44140625 C5.02382812 6.15136719 4.21171875 5.86132812 3.375 5.5625 C2.55773437 5.27503906 1.74046875 4.98757812 0.8984375 4.69140625 C0.27195313 4.46324219 -0.35453125 4.23507813 -1 4 C-0.67 2.68 -0.34 1.36 0 0 Z " fill="#ACE1F7" transform="translate(152,81)"/>
<path d="M0 0 C0.66 0.33 1.32 0.66 2 1 C0.02 3.97 0.02 3.97 -2 7 C-3.32 6.67 -4.64 6.34 -6 6 C-5.34 5.67 -4.68 5.34 -4 5 C-4 4.34 -4 3.68 -4 3 C-2 1.375 -2 1.375 0 0 Z " fill="#D0EEFA" transform="translate(103,70)"/>
<path d="M0 0 C0.66 0.33 1.32 0.66 2 1 C0.875 2.9375 0.875 2.9375 -1 5 C-4.1875 5.75 -4.1875 5.75 -7 6 C-2.25 1.125 -2.25 1.125 0 0 Z " fill="#15A4E5" transform="translate(121,87)"/>
<path d="M0 0 C1.32 0.33 2.64 0.66 4 1 C3.25 3.4375 3.25 3.4375 2 6 C-0.125 6.8125 -0.125 6.8125 -2 7 C-1.67 6.401875 -1.34 5.80375 -1 5.1875 C0.20787988 2.94613529 0.20787988 2.94613529 0 0 Z " fill="#E3F4FC" transform="translate(105,51)"/>
<path d="M0 0 C-1.33333333 0.66666667 -2.66666667 1.33333333 -4 2 C-4.680625 2.37125 -5.36125 2.7425 -6.0625 3.125 C-8 4 -8 4 -11 4 C-11 3.34 -11 2.68 -11 2 C-7.36576791 -0.32590854 -4.22911669 -0.16265833 0 0 Z " fill="#E1F4FC" transform="translate(129,84)"/>
<path d="M0 0 C0.66 0.33 1.32 0.66 2 1 C1.34 3.64 0.68 6.28 0 9 C-0.66 9 -1.32 9 -2 9 C-2.25 3.375 -2.25 3.375 0 0 Z " fill="#D7F0FB" transform="translate(79,63)"/>
<path d="M0 0 C0.99 0 1.98 0 3 0 C2.67 1.98 2.34 3.96 2 6 C1.01 6 0.02 6 -1 6 C-1.042721 4.33388095 -1.04063832 2.66617115 -1 1 C-0.67 0.67 -0.34 0.34 0 0 Z " fill="#F5FBFE" transform="translate(133,57)"/>
<path d="M0 0 C1.32 1.65 2.64 3.3 4 5 C3.01 5 2.02 5 1 5 C0.67 4.67 0.34 4.34 0 4 C-0.33 4.66 -0.66 5.32 -1 6 C-1.66 6 -2.32 6 -3 6 C-2.67 4.68 -2.34 3.36 -2 2 C-1.34 2 -0.68 2 0 2 C0 1.34 0 0.68 0 0 Z " fill="#CDEDFA" transform="translate(87,72)"/>
<path d="M0 0 C0.66 0 1.32 0 2 0 C2.33 1.98 2.66 3.96 3 6 C2.34 6 1.68 6 1 6 C0.67 6.66 0.34 7.32 0 8 C0 5.36 0 2.72 0 0 Z " fill="#F0F9FD" transform="translate(84,68)"/>
</svg>
