<?xml version="1.0" standalone="no"?>
<!DOCTYPE svg PUBLIC "-//W3C//DTD SVG 20010904//EN"
 "http://www.w3.org/TR/2001/REC-SVG-20010904/DTD/svg10.dtd">
<svg version="1.0" xmlns="http://www.w3.org/2000/svg"
 width="1080.000000pt" height="689.000000pt" viewBox="0 0 1080.000000 689.000000"
 preserveAspectRatio="xMidYMid meet">

<g transform="translate(0.000000,689.000000) scale(0.100000,-0.100000)"
fill="#232323" stroke="none">
<path d="M8530 5321 c-115 -14 -290 -90 -349 -151 -34 -35 -39 -48 -46 -104
-12 -113 -71 -164 -174 -150 -55 7 -169 -2 -190 -16 -11 -6 -6 -17 22 -51 21
-23 37 -46 37 -50 0 -5 -17 -13 -37 -19 -105 -31 -270 -158 -340 -262 -61 -91
-126 -252 -121 -300 3 -30 6 -33 41 -36 46 -4 178 15 190 27 9 9 -4 15 -60 26
-17 3 -37 13 -43 20 -10 12 -5 18 24 32 26 12 35 21 30 32 -23 56 -23 71 -1
85 12 8 39 18 60 21 43 8 47 17 12 33 -14 6 -25 16 -25 21 0 27 104 44 113 19
7 -21 -12 -48 -33 -48 -26 0 -25 -8 1 -29 21 -16 21 -18 5 -65 -12 -36 -13
-52 -5 -67 8 -15 8 -28 -1 -49 -20 -48 25 -180 61 -180 10 0 64 80 95 142 51
100 122 185 227 269 56 45 117 89 135 97 34 16 34 16 143 -41 116 -60 136 -66
146 -42 9 24 63 43 98 34 17 -5 42 -11 58 -14 33 -7 35 -28 5 -49 l-21 -15 27
-11 c15 -5 31 -10 35 -10 4 0 15 -6 25 -13 15 -11 16 -17 5 -39 -10 -23 -8
-32 11 -63 12 -19 20 -41 17 -48 -3 -7 -24 -19 -48 -26 -31 -9 -39 -15 -28
-22 25 -15 83 -9 129 14 38 19 46 27 48 55 3 29 -28 114 -58 162 -6 8 -18 31
-29 50 -61 110 -255 267 -363 294 -16 3 -28 12 -28 19 0 6 18 45 40 85 22 40
40 78 40 83 0 33 57 127 102 168 90 83 158 151 158 161 0 21 -62 31 -140 21z
m-621 -594 c12 -15 -4 -34 -46 -56 -20 -10 -63 -15 -63 -7 0 20 25 66 38 69
34 9 60 7 71 -6z m459 -24 c-4 -21 -34 -25 -49 -7 -9 11 -9 17 1 29 15 19 53
1 48 -22z m-668 -122 c0 -11 -40 -22 -52 -15 -5 3 -6 10 -3 15 8 12 55 12 55
0z m823 -16 c-4 -11 -9 -12 -23 -2 -13 7 -15 14 -8 18 17 10 38 -1 31 -16z"/>
<path d="M7593 4844 c-7 -19 8 -66 22 -71 6 -2 19 3 29 10 18 13 18 15 -4 45
-27 36 -38 40 -47 16z"/>
<path d="M8525 4829 c-29 -30 -29 -31 -11 -45 42 -30 66 -13 66 47 0 37 -17
37 -55 -2z"/>
<path d="M7380 4711 c0 -5 12 -29 26 -55 21 -38 29 -44 44 -36 38 21 28 70
-16 70 -6 0 -17 7 -24 15 -14 17 -30 20 -30 6z"/>
<path d="M8774 4706 c-3 -9 -15 -16 -26 -16 -36 0 -58 -19 -58 -50 0 -21 5
-30 16 -30 23 0 54 19 54 33 0 7 7 25 15 41 9 16 13 31 10 34 -2 3 -7 -3 -11
-12z"/>
<path d="M7244 4499 c-3 -6 7 -24 22 -40 35 -36 77 -37 82 -1 3 18 -4 26 -32
37 -42 18 -62 19 -72 4z"/>
<path d="M8838 4488 c-28 -22 -27 -68 0 -68 19 0 102 59 102 72 0 13 -85 9
-102 -4z"/>
<path d="M1690 4475 c-52 -8 -113 -24 -136 -35 -23 -11 -44 -20 -47 -20 -11 0
-92 -59 -120 -87 -39 -39 -87 -104 -87 -116 0 -6 -7 -18 -15 -27 -9 -9 -24
-62 -34 -117 -19 -97 -19 -102 -1 -194 11 -55 30 -115 47 -144 70 -126 239
-240 393 -266 71 -12 360 -12 424 0 71 13 99 45 104 119 3 48 1 60 -12 65 -11
4 -20 -2 -30 -21 -24 -46 -58 -69 -135 -92 -121 -37 -259 -20 -400 49 -71 34
-178 142 -215 215 -25 51 -29 73 -34 170 -6 147 7 209 58 283 44 65 79 95 155
132 47 24 60 25 221 26 160 0 174 -2 225 -24 57 -26 119 -77 119 -97 0 -7 5
-25 11 -41 l11 -28 14 30 c17 41 28 126 19 164 -8 36 -11 37 -145 52 -163 17
-290 19 -390 4z"/>
<path d="M7088 4363 c-30 -5 -42 -31 -54 -116 -10 -72 8 -87 105 -87 123 0
124 1 150 116 15 62 8 80 -31 88 -32 6 -125 6 -170 -1z"/>
<path d="M8870 4323 c0 -29 2 -29 19 5 10 18 9 22 -4 22 -10 0 -15 -9 -15 -27z"/>
<path d="M2710 4283 c-93 -3 -112 -7 -170 -35 -64 -31 -190 -145 -190 -172 0
-6 -10 -29 -22 -51 -20 -35 -23 -54 -23 -150 1 -99 3 -116 29 -170 30 -64 154
-195 184 -195 9 0 33 -10 52 -22 33 -21 46 -23 190 -22 140 1 158 3 190 22 19
12 42 22 50 22 30 0 129 86 171 148 33 49 65 140 75 214 12 86 -46 232 -116
295 -14 12 -38 33 -54 47 -16 14 -36 26 -44 26 -8 0 -29 9 -47 20 -36 22 -113
29 -275 23z m208 -69 c15 -11 34 -23 43 -26 27 -10 104 -110 127 -165 32 -75
31 -245 -1 -320 -26 -59 -85 -126 -143 -162 -35 -22 -50 -24 -144 -25 -93 0
-111 3 -160 27 -69 33 -139 102 -173 170 -50 99 -47 312 5 388 35 52 70 89 83
89 7 0 20 9 29 19 23 25 54 29 194 27 94 -2 116 -5 140 -22z"/>
<path d="M4279 4283 c-62 -4 -70 -7 -113 -47 -53 -48 -72 -101 -61 -171 8 -49
53 -121 97 -157 229 -184 223 -177 223 -258 0 -62 -2 -69 -34 -101 -34 -33
-36 -34 -116 -33 -77 0 -84 2 -123 34 -24 19 -45 44 -48 57 -13 50 -34 17 -34
-51 0 -33 6 -48 26 -67 24 -23 32 -24 147 -23 115 0 125 2 169 28 65 38 104
94 112 159 12 106 -23 173 -137 261 -175 135 -206 177 -186 249 17 63 30 71
112 75 88 5 139 -14 163 -60 8 -16 19 -26 24 -23 14 9 12 112 -2 121 -14 9
-130 13 -219 7z"/>
<path d="M4636 4269 c-13 -11 -20 -28 -20 -52 0 -47 9 -55 37 -31 38 34 75 44
167 44 78 0 91 -2 100 -19 13 -25 13 -610 0 -665 -4 -21 -14 -43 -21 -47 -22
-13 -1 -23 61 -27 64 -5 150 5 150 16 0 4 -10 12 -22 17 -33 15 -37 52 -37
396 -1 261 1 308 14 319 23 19 184 9 215 -13 14 -9 31 -17 39 -17 7 0 20 -8
27 -17 12 -16 13 -10 14 40 0 37 -4 59 -12 62 -7 3 -166 6 -352 8 -301 2 -342
0 -360 -14z"/>
<path d="M3546 4242 c-14 -21 -26 -47 -26 -58 0 -10 -9 -32 -20 -49 -11 -16
-20 -37 -20 -45 0 -8 -11 -37 -25 -65 -13 -27 -25 -57 -25 -65 0 -8 -9 -30
-20 -48 -11 -18 -20 -38 -20 -45 0 -6 -11 -34 -25 -62 -13 -27 -25 -57 -25
-65 0 -8 -8 -28 -18 -45 -10 -16 -22 -43 -26 -59 -12 -47 -57 -117 -82 -128
-49 -23 -21 -38 69 -38 70 0 99 12 79 32 -17 17 -14 57 8 103 11 22 19 46 20
54 0 8 11 38 25 68 l26 53 123 0 124 0 25 -43 c14 -24 29 -57 33 -73 3 -16 15
-43 25 -59 10 -17 21 -50 25 -73 8 -52 24 -62 101 -62 98 0 129 16 76 39 -24
10 -83 85 -83 105 0 9 -45 111 -70 158 -11 20 -20 42 -20 48 0 13 -40 105 -70
162 -11 20 -20 42 -20 49 0 11 -29 78 -70 159 -9 19 -20 47 -24 63 -9 39 -38
34 -70 -11z m60 -225 c3 -16 17 -53 30 -81 28 -59 30 -91 8 -100 -24 -9 -147
-7 -162 3 -15 9 -7 45 39 182 l23 67 28 -21 c15 -11 30 -34 34 -50z"/>
<path d="M5626 4243 c-14 -21 -26 -45 -26 -55 0 -9 -11 -38 -25 -64 -14 -26
-25 -54 -25 -63 0 -9 -6 -26 -14 -37 -8 -11 -19 -39 -26 -62 -6 -24 -20 -58
-31 -75 -10 -18 -19 -39 -19 -47 0 -8 -9 -32 -20 -53 -11 -20 -20 -43 -20 -50
0 -7 -9 -31 -20 -52 -11 -22 -25 -56 -30 -75 -10 -36 -62 -102 -90 -113 -31
-12 14 -27 80 -27 83 0 93 6 78 47 -10 26 -8 38 10 81 12 28 22 56 22 62 0 6
12 36 26 66 l25 54 124 0 124 0 25 -52 c53 -114 76 -170 82 -206 4 -20 12 -40
18 -44 17 -12 149 -9 166 3 13 9 13 11 0 16 -31 13 -76 75 -108 150 -18 43
-42 95 -53 115 -10 20 -19 42 -19 49 0 7 -11 35 -24 63 -43 93 -64 141 -76
178 -6 21 -16 40 -20 43 -5 3 -15 25 -21 48 -6 23 -16 48 -22 56 -7 8 -16 28
-22 45 -14 44 -39 44 -69 -1z m32 -183 c12 -11 24 -33 27 -48 3 -15 14 -45 25
-67 29 -60 35 -96 19 -106 -18 -11 -150 -11 -168 0 -16 10 -9 41 35 166 9 28
19 56 20 63 5 17 17 15 42 -8z"/>
<path d="M6220 4270 c-12 -7 -11 -13 10 -35 l25 -27 3 -283 c3 -293 -4 -383
-35 -417 -9 -10 -13 -21 -9 -26 4 -4 110 -8 236 -10 l227 -3 22 36 c22 38 28
80 11 90 -5 3 -10 2 -10 -4 0 -5 -20 -23 -46 -40 -42 -29 -51 -31 -132 -31
-77 1 -90 3 -117 25 l-30 25 -3 320 c-3 323 0 360 33 360 23 0 18 17 -7 24
-36 9 -161 7 -178 -4z"/>
<path d="M9180 3996 c-14 -38 -183 -204 -224 -221 -18 -8 -38 -20 -45 -28 -6
-8 -24 -18 -38 -22 -15 -3 -37 -15 -50 -25 -13 -10 -37 -21 -52 -25 -15 -3
-34 -17 -41 -30 -7 -14 -17 -25 -22 -25 -4 0 -8 -29 -8 -65 0 -64 0 -65 28
-65 15 0 42 9 60 20 18 11 39 20 47 20 8 0 15 4 15 9 0 5 18 16 40 25 23 9 43
23 46 31 4 8 11 15 17 15 17 0 146 140 168 182 10 20 23 39 28 42 5 4 13 21
16 39 4 17 13 39 20 47 18 21 27 72 16 90 -8 11 -12 9 -21 -14z"/>
<path d="M7026 3945 c-3 -9 -6 -39 -6 -67 l0 -51 20 23 c11 13 21 28 21 34 3
26 -4 52 -15 64 -11 11 -14 11 -20 -3z"/>
<path d="M7220 3769 c-103 -11 -200 -40 -217 -66 -10 -16 -16 -64 -20 -161 -6
-135 -5 -139 15 -144 11 -3 30 1 41 9 11 7 44 16 73 19 29 3 74 13 101 21 35
11 76 13 160 9 160 -7 327 -30 362 -49 18 -11 53 -17 90 -17 34 0 73 -7 89
-15 15 -8 53 -15 83 -15 l55 0 -4 110 -3 110 -32 6 c-18 3 -43 14 -56 24 -12
9 -47 20 -77 23 -32 4 -60 13 -66 22 -7 9 -38 20 -69 25 -32 5 -69 17 -82 26
-14 8 -55 20 -92 25 -36 5 -86 16 -111 23 -54 18 -152 23 -240 15z"/>
<path d="M9184 3715 c-4 -8 -11 -15 -18 -15 -6 0 -50 -38 -98 -85 -48 -46
-101 -91 -119 -101 -18 -9 -37 -20 -43 -25 -33 -27 -103 -69 -117 -69 -9 0
-28 -9 -42 -20 -14 -11 -40 -23 -59 -27 -18 -3 -46 -14 -63 -24 -16 -10 -48
-21 -70 -25 -22 -4 -56 -15 -75 -25 -74 -38 -550 -33 -635 6 -16 8 -61 19 -99
25 -38 6 -80 17 -95 24 -14 8 -66 19 -116 26 -49 7 -101 17 -115 23 -45 18
-156 20 -182 3 -13 -8 -53 -18 -90 -22 -54 -5 -77 -13 -120 -43 -29 -21 -57
-49 -62 -64 -10 -27 -1 -180 25 -427 15 -149 18 -156 58 -152 18 2 48 14 68
28 20 13 40 24 46 24 6 0 18 6 26 14 22 18 63 27 80 17 19 -12 5 -31 -23 -31
-13 0 -34 -9 -47 -20 -13 -11 -53 -44 -89 -73 l-65 -54 2 -70 c2 -38 12 -96
23 -128 11 -32 20 -68 20 -79 1 -12 8 -39 16 -61 8 -22 22 -62 29 -90 9 -31
24 -57 40 -68 16 -12 25 -28 25 -45 0 -15 9 -49 19 -77 20 -51 109 -226 120
-235 3 -3 32 -43 63 -90 31 -47 73 -101 93 -120 l36 -35 537 0 c494 0 540 2
570 18 17 10 32 21 32 25 0 4 10 19 23 34 35 42 110 148 127 178 8 15 24 45
36 66 11 22 25 48 31 59 37 69 55 125 52 165 -3 37 0 45 19 53 14 7 26 25 33
51 5 23 19 62 29 88 11 26 20 57 20 70 0 13 9 48 19 78 11 30 22 82 26 115 4
33 13 82 21 109 7 26 18 96 24 155 6 58 15 122 21 141 12 42 41 484 33 505 -4
8 -16 15 -29 15 -17 0 -26 -8 -34 -30 -5 -16 -14 -30 -18 -30 -5 0 -16 -12
-25 -27 -24 -40 -105 -124 -161 -166 -26 -20 -55 -43 -63 -52 -9 -8 -24 -15
-34 -15 -10 0 -20 -9 -23 -20 -4 -15 -14 -20 -37 -20 -41 0 -35 21 8 34 18 5
32 15 32 22 0 8 4 14 10 14 28 0 246 226 280 290 7 14 16 27 19 30 18 15 62
141 88 248 6 25 -4 30 -13 7z m-466 -672 c2 -9 -7 -13 -27 -13 -31 0 -42 14
-18 23 19 8 40 3 45 -10z m-98 -42 c0 -14 -18 -23 -30 -16 -6 4 -8 11 -5 16 8
12 35 12 35 0z m-95 -42 c4 -6 -2 -17 -13 -25 -17 -12 -20 -24 -19 -89 1 -41
-3 -79 -9 -85 -7 -7 -148 -9 -419 -8 l-410 3 -13 28 c-10 21 -11 32 -3 40 7 7
88 14 214 19 111 4 218 12 237 17 19 6 73 16 119 21 46 6 101 20 122 30 21 11
49 20 61 20 13 0 37 9 53 19 34 22 70 26 80 10z m-1120 -149 c-3 -5 -24 -10
-46 -10 -21 0 -39 5 -39 10 0 6 21 10 46 10 27 0 43 -4 39 -10z m1085 -169
c14 -27 13 -134 -2 -154 -12 -16 -47 -17 -428 -15 l-415 3 -3 78 c-2 50 1 84
9 93 9 12 81 14 420 14 393 0 409 -1 419 -19z m-7 -270 c13 -10 17 -30 17 -78
0 -113 40 -103 -429 -103 -339 0 -411 2 -420 14 -8 9 -11 43 -9 92 3 79 3 79
33 86 17 3 201 6 411 5 306 -2 384 -5 397 -16z m-580 -398 c22 -6 47 -60 47
-100 0 -15 5 -46 11 -67 14 -50 25 -34 34 48 12 98 51 148 92 115 20 -17 13
-102 -11 -128 -10 -11 -23 -54 -31 -107 -14 -95 -36 -159 -57 -167 -38 -13
-66 43 -88 178 -12 75 -36 152 -54 172 -8 9 -16 8 -31 -3 -18 -13 -20 -30 -25
-169 -4 -127 -8 -157 -22 -171 -14 -14 -20 -15 -32 -4 -13 10 -16 40 -16 166
0 164 0 166 -56 201 -19 12 -19 13 1 28 16 13 42 16 120 14 55 -1 108 -4 118
-6z m579 -11 c10 -10 5 -18 -25 -43 l-37 -30 0 -149 c0 -122 -3 -151 -16 -164
-40 -41 -48 -16 -54 169 l-5 160 -26 12 c-19 9 -44 11 -80 5 l-54 -7 0 -55 0
-55 38 -6 c20 -3 40 -9 44 -13 14 -14 -15 -41 -48 -46 -34 -5 -34 -5 -34 -60
l0 -55 43 -6 c89 -12 73 -59 -21 -59 -89 0 -87 -6 -87 208 0 134 3 191 12 200
17 17 332 12 350 -6z"/>
<path d="M1447 3370 c-27 -5 -54 -13 -60 -18 -7 -5 -30 -14 -52 -20 -22 -6
-59 -18 -82 -26 -23 -8 -72 -16 -110 -17 -112 -4 -103 20 -103 -287 0 -207 3
-272 13 -286 12 -16 25 -18 108 -14 59 3 105 11 124 21 33 18 107 43 173 59
24 5 108 8 190 6 147 -4 187 -12 322 -63 60 -23 88 -26 249 -26 118 0 168 4
202 16 24 8 78 28 119 42 70 26 86 28 235 28 167 0 212 -8 355 -65 83 -33 219
-43 362 -26 70 8 137 20 149 27 12 6 65 23 118 36 74 20 121 25 208 25 116 0
167 -10 290 -57 138 -54 435 -56 551 -5 25 11 72 25 106 30 33 6 79 15 101 20
68 16 175 11 275 -13 52 -13 104 -28 115 -34 31 -17 191 -51 265 -57 98 -7
314 27 363 58 32 21 169 46 248 46 81 0 243 -26 280 -45 31 -17 131 -43 217
-57 52 -8 66 -8 77 3 17 19 28 542 11 564 -6 8 -29 17 -51 20 -91 13 -202 38
-229 52 -51 26 -206 53 -308 53 -98 0 -225 -26 -273 -55 -33 -21 -196 -45
-296 -45 -92 1 -244 26 -284 47 -11 6 -63 22 -116 37 -120 32 -229 34 -347 6
-46 -11 -90 -20 -98 -20 -8 0 -35 -9 -60 -20 -72 -33 -198 -44 -353 -31 -74 7
-142 16 -152 21 -9 6 -58 23 -107 40 -82 27 -102 30 -223 30 -137 0 -189 -9
-339 -61 -73 -25 -235 -39 -343 -29 -81 8 -136 22 -277 73 -67 24 -260 34
-365 19 -38 -6 -115 -27 -170 -47 -100 -37 -100 -38 -260 -38 -168 0 -205 7
-350 65 -42 17 -77 21 -210 24 -88 2 -182 -1 -208 -6z m1898 -215 c1 -58 10
-68 43 -51 15 8 45 32 67 55 34 34 46 41 80 41 22 -1 49 -7 59 -15 18 -14 17
-16 -25 -35 -61 -29 -120 -65 -130 -81 -18 -29 -24 -23 158 -161 19 -16 41
-28 48 -28 7 0 18 -7 25 -15 25 -30 -73 -47 -120 -20 -14 8 -35 19 -47 24 -12
6 -30 17 -40 26 -61 55 -96 75 -110 63 -10 -8 -13 -23 -10 -42 3 -17 7 -40 9
-50 4 -27 -49 -43 -100 -30 -33 8 -37 12 -35 39 1 17 5 78 9 136 6 91 4 109
-10 132 -10 14 -15 31 -11 36 10 16 66 28 105 21 33 -5 35 -8 35 -45z m786 40
c37 -12 29 -22 -173 -234 -73 -76 -69 -83 49 -79 71 3 85 6 104 27 20 21 23
22 34 7 18 -24 6 -66 -22 -77 -13 -5 -98 -9 -187 -9 -231 0 -231 1 -56 190 52
56 96 105 98 110 8 22 -147 25 -200 5 -14 -6 -18 -2 -18 18 0 13 6 29 13 35
20 17 310 22 358 7z m585 -34 c-3 -14 -8 -90 -12 -169 -5 -113 -10 -145 -21
-149 -19 -8 -44 6 -208 117 -12 8 -40 27 -63 42 -22 15 -43 32 -47 38 -3 5
-18 10 -32 10 -25 0 -25 0 -18 -62 3 -35 11 -78 16 -95 13 -40 7 -50 -31 -58
-65 -14 -65 -13 -62 172 2 94 8 173 14 181 18 22 55 13 105 -26 26 -21 73 -54
104 -74 30 -20 61 -44 68 -52 8 -9 19 -16 27 -16 7 0 17 -6 21 -14 4 -8 19
-16 33 -18 25 -3 25 -3 22 67 -2 39 -10 80 -18 93 -18 28 -12 39 29 50 47 13
79 -4 73 -37z"/>
<path d="M1708 2610 c-37 -3 -73 -11 -80 -17 -7 -6 -30 -16 -52 -23 -111 -36
-250 -175 -271 -271 -4 -19 -14 -46 -21 -61 -24 -47 -18 -188 12 -279 14 -43
32 -83 40 -90 8 -6 14 -17 14 -23 1 -22 134 -146 158 -146 5 0 20 -8 33 -18
20 -16 86 -39 188 -68 38 -10 376 -6 419 5 46 13 63 31 86 93 17 48 19 117 2
121 -5 1 -14 -11 -20 -28 -32 -87 -159 -142 -305 -132 -148 10 -266 57 -352
139 -134 129 -182 311 -127 483 57 180 193 265 423 265 106 0 137 -6 225 -39
61 -23 136 -98 142 -141 2 -14 8 -24 13 -23 10 3 26 179 17 201 -9 26 -62 41
-178 51 -129 12 -261 12 -366 1z"/>
<path d="M2686 2419 c-22 -5 -44 -13 -50 -18 -6 -5 -28 -12 -48 -16 -20 -4
-44 -16 -54 -26 -9 -10 -22 -19 -29 -19 -17 0 -100 -97 -132 -155 -26 -47 -28
-57 -28 -175 0 -120 1 -127 30 -175 62 -106 107 -147 215 -193 43 -19 79 -25
165 -29 63 -3 125 -1 145 5 106 32 175 68 230 122 33 33 80 96 80 108 0 6 9
29 20 53 30 66 28 195 -4 273 -24 58 -110 166 -132 166 -6 0 -17 6 -23 14 -38
46 -292 89 -385 65z m230 -69 c72 -36 130 -89 169 -155 29 -49 30 -53 30 -190
0 -137 -1 -141 -30 -190 -31 -53 -77 -105 -93 -105 -5 0 -27 -12 -48 -26 -36
-25 -43 -26 -134 -21 -102 5 -147 21 -222 79 -35 27 -98 109 -98 127 0 5 -9
37 -20 71 -26 81 -25 131 3 219 29 87 89 162 147 181 21 7 41 19 44 26 4 11
29 14 99 14 84 0 100 -3 153 -30z"/>
<path d="M5625 2421 c-22 -4 -49 -12 -60 -18 -11 -6 -39 -14 -62 -18 -23 -3
-52 -15 -64 -26 -12 -10 -26 -19 -32 -19 -22 0 -111 -109 -138 -168 -25 -57
-29 -76 -29 -159 0 -81 4 -102 26 -151 53 -113 116 -171 246 -224 128 -52 432
-48 503 6 l33 25 3 150 c4 136 6 152 24 165 11 8 16 18 12 22 -10 11 -166 11
-191 1 -17 -7 -17 -8 5 -26 23 -18 24 -24 24 -156 0 -175 7 -168 -165 -162
-128 4 -157 13 -244 70 -65 43 -121 125 -150 224 -20 65 -20 95 0 180 23 104
86 179 167 201 20 6 44 17 53 26 12 12 37 16 113 16 81 0 109 -4 172 -27 77
-29 139 -68 139 -89 0 -6 7 -17 15 -24 12 -10 15 -7 20 12 3 13 5 49 3 79 l-3
54 -70 17 c-78 20 -288 31 -350 19z"/>
<path d="M4875 2410 c-113 -3 -193 -9 -184 -13 34 -17 40 -81 37 -399 -3 -298
-4 -307 -25 -336 -19 -25 -20 -31 -7 -36 8 -3 103 -6 210 -6 171 -1 198 1 215
16 26 23 31 47 19 79 -11 28 -11 28 -25 7 -21 -28 -68 -50 -126 -58 -58 -8
-136 24 -144 59 -3 12 -4 83 -3 157 l3 135 93 -1 c88 -2 96 -4 122 -29 l29
-28 6 25 c4 14 5 40 3 59 l-3 33 -125 0 -125 1 -3 129 c-2 86 1 133 9 142 21
26 176 9 211 -23 17 -15 20 -15 35 -1 8 9 16 28 16 42 0 26 -19 58 -32 54 -3
-1 -96 -5 -206 -8z"/>
<path d="M6452 2413 l-192 -3 15 -24 c27 -40 38 -187 32 -426 -5 -217 -15
-296 -41 -312 -29 -20 32 -28 215 -28 192 0 196 0 217 23 23 24 30 81 12 92
-5 3 -10 1 -10 -4 0 -6 -19 -23 -42 -38 -59 -37 -157 -39 -206 -5 l-33 24 3
151 3 152 47 3 c62 4 157 -14 178 -33 16 -14 18 -14 24 0 8 22 7 68 -2 80 -4
6 -59 10 -127 10 l-120 0 -3 129 c-2 86 1 133 9 142 23 28 177 8 215 -27 l22
-21 11 20 c22 42 7 106 -23 100 -6 -2 -98 -4 -204 -5z"/>
<path d="M3388 2378 c15 -29 17 -74 17 -358 0 -301 -1 -328 -19 -354 -15 -23
-16 -30 -5 -37 12 -7 335 -15 409 -9 31 2 50 25 50 61 0 41 -16 44 -60 14 -57
-40 -140 -45 -200 -13 -41 22 -46 29 -53 74 -5 27 -7 178 -5 335 2 224 6 290
17 302 12 16 6 17 -77 17 l-90 0 16 -32z"/>
<path d="M4035 2394 c19 -14 20 -27 20 -368 0 -328 -1 -355 -18 -374 -10 -11
-14 -23 -9 -26 19 -11 422 -9 436 3 23 19 48 80 41 102 -6 19 -7 19 -27 -6
-10 -14 -24 -25 -30 -25 -6 0 -20 -7 -30 -17 -14 -12 -39 -16 -99 -17 l-80 -1
-35 38 -35 38 3 313 c3 292 4 315 22 335 l19 21 -99 0 c-91 -1 -97 -2 -79 -16z"/>
<path d="M7587 1483 c-16 -15 -5 -41 29 -69 20 -16 47 -38 60 -49 55 -47 147
-106 253 -163 114 -60 164 -62 266 -7 39 20 83 44 99 52 75 40 286 197 286
213 0 28 -34 30 -505 30 -265 0 -485 -3 -488 -7z"/>
<path d="M5294 1378 c-11 -34 -7 -209 4 -220 6 -6 18 -8 28 -4 13 5 15 14 11
43 -8 45 6 63 45 63 36 0 34 23 -3 28 -39 6 -50 21 -43 59 5 25 3 38 -7 44
-21 13 -27 11 -35 -13z"/>
<path d="M1182 1378 c-7 -7 -12 -18 -12 -25 0 -19 -25 -16 -70 7 -24 12 -41
16 -45 10 -3 -6 1 -13 9 -16 9 -3 16 -14 16 -24 0 -9 9 -29 20 -43 12 -15 24
-45 28 -68 11 -66 29 -59 36 15 5 44 15 74 31 96 30 41 20 81 -13 48z"/>
<path d="M1953 1383 l-43 -4 0 -105 c0 -80 3 -105 13 -102 6 3 14 20 17 38 4
30 10 35 42 42 44 9 88 50 88 83 0 19 -9 28 -36 40 -20 8 -37 14 -38 13 0 -1
-20 -3 -43 -5z m67 -62 c0 -11 -25 -21 -51 -21 -24 0 -35 25 -19 45 11 13 16
13 41 -1 16 -8 29 -18 29 -23z"/>
<path d="M3709 1368 c-16 -29 -15 -174 1 -193 12 -15 42 -20 52 -9 4 3 -2 24
-13 47 -23 52 -24 79 -2 124 14 30 14 36 2 44 -21 13 -27 11 -40 -13z"/>
<path d="M3790 1380 c-13 -9 -12 -12 5 -25 24 -19 40 -14 40 11 0 22 -23 29
-45 14z"/>
<path d="M6111 1372 c-13 -24 -15 -181 -2 -201 20 -31 31 3 31 97 0 105 -10
140 -29 104z"/>
<path d="M5048 1359 c-28 -21 -35 -52 -19 -77 7 -12 14 -11 39 2 35 18 40 28
34 68 -5 33 -17 35 -54 7z"/>
<path d="M3091 1354 c0 -11 3 -14 6 -6 3 7 2 16 -1 19 -3 4 -6 -2 -5 -13z"/>
<path d="M4285 1340 c-18 -20 -18 -22 -1 -51 13 -22 17 -42 13 -66 -8 -45 8
-79 28 -63 10 8 12 26 8 64 -3 32 -1 61 7 75 10 19 9 26 -6 42 -22 24 -27 24
-49 -1z"/>
<path d="M6020 1276 c0 -49 2 -87 4 -85 9 9 13 148 5 160 -5 9 -9 -22 -9 -75z"/>
<path d="M1305 1317 c-31 -19 -35 -28 -35 -90 0 -43 4 -59 16 -64 24 -9 36 10
25 40 -6 14 -7 42 -4 62 5 30 10 35 27 33 19 -3 21 -10 21 -65 0 -68 7 -82 30
-63 10 8 15 30 15 62 0 40 -5 53 -26 73 -30 28 -40 29 -69 12z"/>
<path d="M2240 1312 c-29 -24 -35 -128 -8 -146 28 -17 44 6 24 36 -22 33 -11
86 20 100 13 6 21 15 18 19 -8 14 -30 10 -54 -9z"/>
<path d="M2490 1322 c-8 -3 -19 -10 -23 -16 -6 -8 -10 -7 -14 2 -9 23 -41 13
-51 -17 -12 -33 -6 -111 9 -126 13 -13 29 12 29 47 0 15 5 39 12 53 l11 25 19
-30 c10 -17 18 -45 18 -62 0 -59 20 -14 23 50 2 63 -7 83 -33 74z"/>
<path d="M2613 1301 c-43 -36 -44 -76 -5 -114 15 -15 33 -27 40 -27 20 0 13
37 -10 52 -26 17 -17 38 17 38 56 0 70 25 35 60 -26 26 -38 25 -77 -9z"/>
<path d="M2782 1302 c-27 -23 -32 -33 -28 -55 3 -15 8 -38 11 -52 5 -21 11
-25 40 -25 19 0 35 5 35 10 0 6 -4 10 -10 10 -5 0 -14 9 -20 20 -14 26 5 69
23 51 14 -14 44 -14 52 -1 11 18 -4 47 -31 58 -33 16 -34 16 -72 -16z"/>
<path d="M3081 1298 c-11 -32 -8 -124 3 -136 23 -22 36 103 17 153 -7 17 -10
15 -20 -17z"/>
<path d="M3223 1309 l-43 -20 0 -60 c0 -38 4 -58 10 -54 6 3 10 17 10 29 0 28
12 39 61 56 32 12 36 16 30 38 -9 33 -17 34 -68 11z"/>
<path d="M3917 1307 c-26 -20 -28 -27 -25 -77 3 -54 4 -55 36 -58 36 -4 40 3
15 30 -13 15 -14 23 -5 43 10 22 15 24 33 15 23 -13 49 -7 49 10 0 14 -49 60
-64 60 -6 0 -24 -10 -39 -23z"/>
<path d="M4553 1299 c-18 -16 -33 -36 -33 -43 0 -55 56 -114 83 -87 9 10 6 17
-15 34 -34 28 -23 51 24 51 26 1 34 6 36 23 2 13 -5 27 -20 37 -31 22 -38 20
-75 -15z"/>
<path d="M4861 1311 c-21 -16 -24 -26 -22 -77 2 -64 10 -80 36 -70 12 4 15 11
9 24 -4 9 -8 37 -9 62 0 42 2 45 27 48 l27 3 -3 -65 c-4 -68 4 -87 29 -66 16
14 20 96 6 118 -8 13 -57 42 -70 42 -3 0 -17 -9 -30 -19z"/>
<path d="M5696 1321 c-3 -5 0 -11 7 -13 17 -7 38 2 31 13 -7 12 -31 12 -38 0z"/>
<path d="M5846 1315 c-22 -23 -26 -45 -18 -100 6 -41 11 -50 27 -50 21 0 25
23 10 57 -7 17 4 25 58 42 17 5 16 8 -4 36 -25 33 -49 38 -73 15z"/>
<path d="M6230 1312 c-34 -23 -40 -32 -40 -67 0 -57 10 -75 41 -75 32 0 34 2
18 29 -7 10 -9 30 -5 44 6 24 8 25 31 15 18 -8 29 -8 36 -1 16 16 2 48 -27 61
-30 14 -23 15 -54 -6z"/>
<path d="M6610 1316 c0 -9 5 -16 12 -16 6 0 20 -8 31 -17 18 -17 19 -17 15 12
-2 24 -8 31 -30 33 -20 2 -28 -1 -28 -12z"/>
<path d="M6763 1310 c-31 -18 -33 -24 -33 -74 0 -57 15 -81 44 -70 12 5 15 15
11 43 -7 48 5 67 34 52 12 -7 26 -9 31 -6 19 12 10 42 -17 56 -16 7 -30 15
-33 16 -3 2 -20 -6 -37 -17z"/>
<path d="M1680 1304 c-13 -15 -5 -120 9 -129 5 -2 11 12 15 33 3 20 9 51 12
68 7 35 -16 53 -36 28z"/>
<path d="M2950 1300 c-17 -31 -9 -135 10 -135 10 0 16 12 18 38 2 20 10 49 18
65 12 24 12 28 -3 40 -23 17 -31 15 -43 -8z"/>
<path d="M3396 1289 c-2 -19 -4 -54 -3 -79 2 -44 3 -45 36 -46 43 0 63 -30 29
-43 -13 -5 -31 -10 -41 -12 -34 -7 -22 -24 19 -27 36 -3 45 1 64 25 19 25 21
38 18 110 -1 45 -6 85 -10 89 -4 4 -30 9 -57 12 l-50 4 -5 -33z m82 -30 c4
-58 -15 -78 -46 -49 -20 19 -20 21 -5 60 22 56 47 51 51 -11z"/>
<path d="M4076 1304 c-10 -26 -7 -132 5 -139 15 -10 21 0 31 52 5 27 11 60 15
76 5 24 2 27 -20 27 -14 0 -28 -7 -31 -16z"/>
<path d="M4140 1301 c0 -10 7 -32 15 -47 8 -16 15 -41 15 -56 0 -30 20 -40 21
-10 0 9 3 28 5 42 3 14 2 40 -1 58 -5 26 -11 32 -30 32 -18 0 -25 -6 -25 -19z"/>
<path d="M6391 1311 c-18 -12 -26 -102 -12 -130 16 -29 28 -19 35 31 15 100
10 120 -23 99z"/>
<path d="M6444 1297 c2 -13 7 -30 11 -38 5 -7 11 -29 14 -48 10 -58 26 -35 26
37 0 65 -1 67 -27 70 -23 3 -26 0 -24 -21z"/>
<path d="M4432 1298 c-17 -17 -15 -55 3 -62 18 -7 41 35 32 58 -8 19 -19 20
-35 4z"/>
<path d="M5496 1265 c5 -37 3 -50 -12 -66 -13 -15 -15 -22 -6 -31 9 -9 16 -7
30 5 23 21 31 21 54 0 17 -15 21 -15 28 -3 6 10 3 21 -9 35 -13 14 -16 27 -10
45 15 51 12 61 -17 48 -20 -9 -30 -9 -45 1 -20 12 -20 10 -13 -34z"/>
<path d="M5662 1298 c-18 -18 -16 -124 3 -132 24 -9 47 4 39 23 -4 9 -9 36
-12 61 -5 52 -13 65 -30 48z"/>
<path d="M1454 1277 c-3 -13 -4 -41 -2 -63 3 -37 5 -39 45 -48 49 -10 93 -1
93 19 0 20 -22 65 -32 65 -4 0 -8 -6 -8 -13 0 -22 -34 -47 -49 -38 -7 5 -16
29 -18 55 -6 50 -19 60 -29 23z"/>
<path d="M2301 1252 c1 -27 -1 -54 -4 -59 -4 -6 0 -17 9 -24 14 -11 18 -10 30
6 27 36 14 125 -17 125 -17 0 -19 -7 -18 -48z"/>
<path d="M5750 1281 c0 -12 6 -21 16 -21 9 0 14 7 12 17 -5 25 -28 28 -28 4z"/>
<path d="M6561 1267 c-6 -16 -11 -32 -11 -37 0 -15 51 -70 65 -70 25 0 29 23
7 41 -12 9 -22 26 -22 36 0 11 -6 28 -14 39 -14 18 -15 18 -25 -9z"/>
<path d="M3309 1266 c-8 -8 2 -86 11 -86 10 0 19 47 13 71 -5 18 -15 24 -24
15z"/>
</g>
</svg>
