<?xml version="1.0" encoding="utf-8"?>
<!-- Generator: Adobe Illustrator 25.4.1, SVG Export Plug-In . SVG Version: 6.00 Build 0)  -->
<svg version="1.0" id="Layer_1" xmlns="http://www.w3.org/2000/svg" xmlns:xlink="http://www.w3.org/1999/xlink" x="0px" y="0px"
	 viewBox="0 0 307.3 98" enable-background="new 0 0 307.3 98" xml:space="preserve">
<path fill="#212B4E" d="M52.8,27.8c-1.2-0.2-2.5-0.3-3.8-0.3s-2.6,0.1-3.8,0.3c-0.2-3.2-1-6.8-2.9-10c-0.5-0.9-1.1-1.8-1.8-2.6
	C42,6.6,48.9,0,48.9,0s6.9,6.6,8.5,15.2c-0.6,0.8-1.3,1.7-1.8,2.6C53.8,21,53,24.6,52.8,27.8z M81.8,22.4c-2.7,0.1-5.2,0.4-7.4,1.2
	c0.8-2.5,1.1-5.1,1.2-7.4c3.9-0.9,7-0.8,7-0.8S82.6,18.5,81.8,22.4z M83.7,58.3c2.6-0.6,5-1.6,7-2.7c2.7,3,4.2,5.7,4.2,5.7
	s-2.6,1.6-6.4,2.8C87.2,62.2,85.6,60.1,83.7,58.3z M58.2,83.8c1.8,2,3.8,3.5,5.8,4.8c-1.2,3.8-2.8,6.4-2.8,6.4s-2.7-1.5-5.7-4.2
	C56.7,88.7,57.7,86.4,58.2,83.8z M23.5,74.5c-0.8,2.5-1.1,5.1-1.2,7.4c-3.9,0.9-7,0.8-7,0.8s-0.1-3.1,0.8-7
	C18.8,75.6,21.3,75.2,23.5,74.5z M14.2,39.7c-2.6,0.6-5,1.6-7,2.7c-2.7-3-4.2-5.7-4.2-5.7s2.6-1.6,6.4-2.8
	C10.7,35.9,12.3,37.9,14.2,39.7z M39.6,14.3c-1.8-2-3.8-3.5-5.8-4.7c1.2-3.8,2.8-6.4,2.8-6.4s2.7,1.5,5.7,4.2
	C41.2,9.3,40.2,11.7,39.6,14.3z M74.4,74.5c2.2,0.7,4.7,1.1,7.4,1.2c0.9,4,0.8,7,0.8,7s-3.1,0.1-7-0.8C75.5,79.6,75.2,77,74.4,74.5z
	 M83.7,39.7c2-1.8,3.5-3.8,4.7-5.8c3.8,1.2,6.4,2.8,6.4,2.8s-1.5,2.7-4.2,5.7C88.6,41.3,86.2,40.3,83.7,39.7z M39.7,83.8
	c0.6,2.6,1.6,5,2.7,7c-3,2.7-5.7,4.2-5.7,4.2s-1.6-2.6-2.8-6.4C35.8,87.3,37.9,85.7,39.7,83.8z M14.2,58.3c-2,1.8-3.5,3.8-4.7,5.8
	c-3.8-1.2-6.4-2.8-6.4-2.8s1.5-2.7,4.2-5.7C9.3,56.8,11.7,57.8,14.2,58.3z M23.5,23.6c-2.2-0.7-4.7-1.1-7.4-1.2c-0.9-4-0.8-7-0.8-7
	s3.1-0.1,7,0.8C22.4,18.5,22.7,21.1,23.5,23.6z M64.1,9.5c-2,1.2-4.1,2.8-5.8,4.7c-0.6-2.6-1.6-5-2.7-7c3-2.7,5.7-4.2,5.7-4.2
	S62.8,5.7,64.1,9.5z M79.3,39.2c-3.7,0-7.2,1.1-10.1,2.5c-0.9-2.4-2.2-4.7-3.8-6.6c2.7-1.8,5.4-4.3,7.2-7.5c0.5-0.9,1-1.9,1.3-2.9
	c8.3-3,17.4-0.2,17.4-0.2s-2.2,9.3-8.9,15C81.4,39.3,80.4,39.2,79.3,39.2z M72.6,70.4c-1.9-3.2-4.5-5.7-7.2-7.5
	c1.6-1.9,3-4.2,3.8-6.6c2.9,1.4,6.4,2.5,10.1,2.5c1.1,0,2.1-0.1,3.1-0.3c6.7,5.7,8.9,15,8.9,15s-9.1,2.7-17.4-0.2
	C73.6,72.3,73.1,71.4,72.6,70.4z M45.1,70.2c1.2,0.2,2.5,0.3,3.8,0.3s2.6-0.1,3.8-0.3c0.2,3.2,1,6.8,2.9,10c0.5,0.9,1.1,1.8,1.8,2.6
	C55.9,91.5,48.9,98,48.9,98s-6.9-6.6-8.5-15.2c0.6-0.8,1.3-1.7,1.8-2.6C44.1,77,44.9,73.5,45.1,70.2z M18.6,58.8
	c3.7,0,7.2-1.1,10.1-2.5c0.9,2.4,2.2,4.7,3.8,6.6c-2.7,1.8-5.4,4.3-7.2,7.5c-0.5,0.9-1,1.9-1.3,2.9c-8.3,3-17.4,0.2-17.4,0.2
	s2.2-9.3,8.9-15C16.5,58.7,17.5,58.8,18.6,58.8z M25.3,27.6c1.9,3.2,4.5,5.7,7.2,7.5c-1.6,1.9-3,4.2-3.8,6.6
	c-2.9-1.4-6.4-2.5-10.1-2.5c-1.1,0-2.1,0.1-3.1,0.3c-6.7-5.7-8.9-15-8.9-15s9.1-2.7,17.4,0.2C24.3,25.7,24.8,26.7,25.3,27.6z
	 M69.5,55.4c0.6-2,1-4.1,1-6.3c0-2.2-0.3-4.3-1-6.3c2.8-1.4,6.2-2.5,9.8-2.5c10.3,0,18.6,8.8,18.6,8.8s-8.3,8.8-18.6,8.8
	C75.7,57.8,72.4,56.8,69.5,55.4z M64.7,34.4c-2.9-3.1-6.7-5.4-11-6.4c0.2-3.2,1-6.6,2.7-9.7C61.6,9.4,73.4,6.6,73.4,6.6
	s3.5,11.6-1.7,20.5C70,30.2,67.3,32.6,64.7,34.4z M53.7,70c4.3-1,8.1-3.2,11-6.4c2.6,1.8,5.2,4.1,7,7.2c5.1,8.9,1.7,20.5,1.7,20.5
	s-11.8-2.8-16.9-11.7C54.7,76.7,54,73.2,53.7,70z M33.2,63.7c2.9,3.1,6.7,5.4,11,6.4c-0.2,3.2-1,6.6-2.7,9.7
	c-5.1,8.9-16.9,11.7-16.9,11.7S21,79.8,26.1,70.9C27.9,67.8,30.5,65.5,33.2,63.7z M28.4,42.7c-0.6,2-1,4.1-1,6.3
	c0,2.2,0.3,4.3,1,6.3c-2.8,1.4-6.2,2.5-9.8,2.5C8.3,57.8,0,49,0,49s8.3-8.8,18.6-8.8C22.2,40.2,25.5,41.3,28.4,42.7z M44.1,28
	c-4.3,1-8.1,3.2-11,6.4c-2.6-1.8-5.2-4.1-7-7.2C21,18.2,24.5,6.6,24.5,6.6s11.8,2.8,16.9,11.7C43.2,21.4,43.9,24.8,44.1,28z
	 M48.9,28.4c-11.4,0-20.6,9.2-20.6,20.6s9.2,20.6,20.6,20.6S69.5,60.4,69.5,49S60.3,28.4,48.9,28.4z M62.1,42.6l0.3-0.1
	c0.5-0.2,1.1,0,1.3,0.5c0.2,0.5-0.1,1-0.6,1.2l-0.3,0.1c-0.5,0.2-1.1,0-1.3-0.5C61.3,43.3,61.6,42.8,62.1,42.6z M53.7,35.1l0.1-0.3
	c0.2-0.5,0.8-0.8,1.2-0.6c0.5,0.2,0.7,0.8,0.5,1.3l-0.1,0.3c-0.2,0.5-0.8,0.8-1.2,0.6C53.7,36.2,53.5,35.6,53.7,35.1z M48,34.1
	c0-0.6,0.4-1,0.9-1s0.9,0.4,0.9,1v0.3c0,0.6-0.4,1-0.9,1s-0.9-0.5-0.9-1V34.1z M48,41.5c0-0.6,0.4-1,0.9-1s0.9,0.4,0.9,1v0.3
	c0,0.6-0.4,1-0.9,1s-0.9-0.4-0.9-1V41.5z M42.9,34.3c0.5-0.2,1,0.1,1.2,0.6l0.1,0.3c0.2,0.5,0,1.1-0.5,1.3c-0.5,0.2-1-0.1-1.2-0.6
	l-0.1-0.3C42.2,35,42.4,34.5,42.9,34.3z M33,49c0-0.5,0.4-0.9,1-0.9h0.3c0.6,0,1,0.4,1,0.9c0,0.5-0.4,0.9-1,0.9H34
	C33.4,50,33,49.5,33,49z M35.8,55.5l-0.3,0.1c-0.5,0.2-1.1,0-1.3-0.5s0.1-1,0.6-1.2l0.3-0.1c0.5-0.2,1.1,0,1.3,0.5
	C36.5,54.7,36.3,55.3,35.8,55.5z M36.3,43.8c-0.2,0.5-0.8,0.7-1.3,0.5l-0.3-0.1c-0.5-0.2-0.8-0.8-0.6-1.2c0.2-0.5,0.8-0.7,1.3-0.5
	l0.3,0.1C36.3,42.8,36.5,43.3,36.3,43.8z M39.3,60L39,60.3c-0.4,0.4-1,0.4-1.4,0.1c-0.4-0.4-0.3-1,0.1-1.4l0.2-0.2
	c0.4-0.4,1-0.4,1.4-0.1C39.7,59,39.6,59.7,39.3,60z M39.3,39.4c-0.4,0.4-1,0.3-1.4-0.1l-0.2-0.2c-0.4-0.4-0.4-1-0.1-1.4
	c0.4-0.4,1-0.3,1.4,0.1l0.2,0.2C39.6,38.4,39.7,39,39.3,39.4z M40.5,47.5c0.1-0.5,0.6-0.8,1.1-0.7l0.3,0.1c0.5,0.1,0.9,0.6,0.8,1.1
	c-0.1,0.5-0.6,0.8-1.1,0.7l-0.3-0.1C40.8,48.5,40.4,48,40.5,47.5z M41.5,53.3c-0.3-0.4-0.1-1,0.4-1.3l0.3-0.2
	c0.5-0.3,1.1-0.1,1.3,0.3s0.1,1-0.4,1.3l-0.3,0.2C42.4,53.9,41.8,53.8,41.5,53.3z M44.2,62.9l-0.1,0.3c-0.2,0.5-0.8,0.8-1.2,0.6
	c-0.5-0.2-0.7-0.8-0.5-1.3l0.1-0.3c0.2-0.5,0.8-0.8,1.2-0.6C44.2,61.8,44.4,62.4,44.2,62.9z M44.9,44.2c-0.4,0.3-1,0.3-1.4-0.2
	l-0.2-0.2c-0.4-0.4-0.3-1,0.1-1.4c0.4-0.3,1-0.3,1.3,0.2l0.2,0.2C45.4,43.3,45.3,43.9,44.9,44.2z M47.3,56.2l-0.1,0.3
	C47,57,46.5,57.2,46,57.1c-0.5-0.2-0.7-0.7-0.5-1.3l0.1-0.3c0.2-0.5,0.7-0.8,1.2-0.6C47.3,55.1,47.5,55.6,47.3,56.2z M49.9,64
	c0,0.6-0.4,1-0.9,1S48,64.5,48,64v-0.3c0-0.6,0.4-1,0.9-1s0.9,0.4,0.9,1V64z M49.1,50h-0.3c-0.6,0-1-0.4-1-0.9c0-0.5,0.4-0.9,1-0.9
	h0.3c0.6,0,1,0.4,1,0.9C50.1,49.5,49.7,50,49.1,50z M51.9,57.1c-0.5,0.2-1-0.1-1.2-0.6l-0.1-0.3c-0.2-0.5,0-1.1,0.5-1.3
	c0.5-0.2,1,0.1,1.2,0.6l0.1,0.3C52.6,56.3,52.4,56.9,51.9,57.1z M52.9,42.9l0.2-0.2c0.4-0.4,1-0.5,1.3-0.2c0.4,0.3,0.4,0.9,0.1,1.4
	l-0.2,0.2c-0.4,0.4-1,0.5-1.4,0.2C52.6,43.9,52.5,43.3,52.9,42.9z M55.1,63.8c-0.5,0.2-1-0.1-1.2-0.6l-0.1-0.3
	c-0.2-0.5,0-1.1,0.5-1.3c0.5-0.2,1,0.1,1.2,0.6l0.1,0.3C55.7,63,55.5,63.6,55.1,63.8z M56.4,53.3c-0.3,0.4-0.8,0.6-1.3,0.3l-0.3-0.2
	c-0.5-0.3-0.7-0.9-0.4-1.3s0.9-0.6,1.3-0.3l0.3,0.2C56.4,52.3,56.6,52.9,56.4,53.3z M56.5,48.6l-0.3,0.1c-0.5,0.1-1.1-0.2-1.1-0.7
	c-0.1-0.5,0.3-1,0.8-1.1l0.3-0.1c0.5-0.1,1.1,0.2,1.1,0.7C57.5,48,57.1,48.5,56.5,48.6z M60.2,60.3c-0.4,0.4-1,0.3-1.4-0.1L58.6,60
	c-0.4-0.4-0.4-1-0.1-1.4c0.4-0.4,1-0.3,1.4,0.1l0.2,0.2C60.6,59.3,60.6,60,60.2,60.3z M60.2,39.1l-0.2,0.2c-0.4,0.4-1,0.4-1.4,0.1
	c-0.4-0.4-0.3-1,0.1-1.4l0.2-0.2c0.4-0.4,1-0.4,1.4-0.1C60.6,38.1,60.6,38.7,60.2,39.1z M63.7,55.1c-0.2,0.5-0.8,0.7-1.3,0.5
	l-0.3-0.1c-0.5-0.2-0.8-0.8-0.6-1.2c0.2-0.5,0.8-0.7,1.3-0.5l0.3,0.1C63.6,54.1,63.9,54.7,63.7,55.1z M63.9,50h-0.3
	c-0.6,0-1-0.4-1-0.9c0-0.5,0.4-0.9,1-0.9h0.3c0.6,0,1,0.4,1,0.9C64.9,49.5,64.4,50,63.9,50z M252.1,36.2c0.8,0.3,1.9,0.3,3,0.3
	c4,0,7.3-1.8,7.3-6.4c0-1.9-1.3-7.3-7.5-7.3c-1.1,0-1.9,0.1-2.8,0.2V36.2z M244.5,51.1h0.8c2,0,2.9-0.7,2.9-3.6V26.1
	c0-2.9-0.9-3.6-2.9-3.6h-0.8v-1.3c1.6,0,3.7,0.1,5.7,0.1c3,0,5.1-0.1,7-0.1c7.8,0,9.3,6.1,9.3,8.1c0,5.7-4.1,7.5-6.3,8.2l5.9,9.7
	c2.4,3.9,3.1,4.2,6.7,4.4v0.9c-0.8,0-1.6,0-2.5,0c-3.9,0-5.7-0.5-8.1-4.3l-5.2-8.4c-1-1.6-1.6-1.7-5-1.8v8.3c0,4.2,0.8,4.7,2.5,4.7
	h1.3v1.3c-2,0-3.8-0.1-5.8-0.1c-2,0-4.1,0.1-5.7,0.1V51.1z M126.6,22.5c-6.2,0-12.1,3.8-12.1,14c0,7.1,4.7,14.9,12.3,14.9
	c8.2,0,12-6,12-14C138.8,30.3,134.3,22.5,126.6,22.5z M126.7,20.7c8.8,0,16.5,7.1,16.5,16.2c0,7.7-6,16.2-16.7,16.2
	c-9.6,0-16.5-7.2-16.5-15.8C110.1,27.4,118,20.7,126.7,20.7z M145.2,51.1h0.6c2.6,0,3.9-1,6.1-3.6l8.3-10.3l-9.1-11.8
	c-1.9-2.5-3.4-2.9-5.1-2.9h-0.8v-1.3c1.9,0,4.3,0.1,6.5,0.1c2.2,0,4.5-0.1,6.5-0.1v1.3H157c-1,0-1.6,0.4-1.6,1.4
	c0,0.5,0.4,1.3,0.7,1.7l7,9.1l6.2-7.8c0.6-0.7,1.8-2.4,1.8-3.1c0-0.9-0.4-1.2-1.5-1.2h-0.8v-1.3c1.8,0,3.5,0.1,5.2,0.1
	c1.7,0,3.5-0.1,5.2-0.1v1.3h-0.8c-2.4,0-3.5,0.5-5.9,3.5l-8.3,10l10,12.9c1.4,1.8,2.6,2.2,4.3,2.2h1v1.3c-2.4-0.1-4.7-0.1-7-0.1
	c-2.1,0-4.3,0.1-5.9,0.1v-1.3h1c1.4,0,1.9-0.4,1.9-1.2c0-0.6-0.4-1.1-1-1.9l-7.2-9.2l-5.8,7.3c-0.7,0.9-2.1,2.7-2.1,3.9
	c0,0.8,0.5,1.1,1.6,1.1h0.8v1.3c-1.8,0-3.5-0.1-5.3-0.1c-1.8,0-3.8,0.1-5.3,0.1V51.1z M182.1,51.1h0.8c2,0,2.9-0.7,2.9-3.6V26.1
	c0-2.9-0.9-3.6-2.9-3.6h-0.8v-1.3c1.3,0,6.3,0.1,10.8,0.1c5.2,0,7.3-0.1,10.4-0.1c0,2.5,0.2,5.1,0.3,7.2h-1.2
	c-0.4-3.4-0.8-5.6-8.1-5.6h-4.6v12.4h3.9c5.4,0,5.6-0.9,5.7-3.2h1.2c0,0.7-0.1,2.1-0.1,4c0,1.7,0,3.1,0.1,4.7h-1.2
	C199,37.9,199,37,194,37h-4.3v10.6c0,2.9,0.9,3.6,2.9,3.6h0.8v1.3c-1.9,0-3.7-0.1-5.7-0.1c-2,0-4.1,0.1-5.7,0.1V51.1z M223.4,22.5
	c-6.2,0-12.1,3.8-12.1,14c0,7.1,4.7,14.9,12.3,14.9c8.2,0,12-6,12-14C235.6,30.3,231.2,22.5,223.4,22.5z M223.5,20.7
	c8.8,0,16.5,7.1,16.5,16.2c0,7.7-6,16.2-16.7,16.2c-9.6,0-16.5-7.2-16.5-15.8C206.9,27.4,214.8,20.7,223.5,20.7z M282.4,46.8
	c0,3.4,1.4,4,6.5,4c7.8,0,14.2-3.3,14.2-13.1c0-6.4-4-15-15-15c-1.9,0-3.7,0.2-5.6,0.4V46.8z M274.8,51.1h0.8c2,0,2.9-0.7,2.9-3.6
	V26.1c0-2.9-0.9-3.6-2.9-3.6h-0.8v-1.3c1.6,0,3.7,0.1,5.7,0.1c3.5,0,7.1-0.1,10.7-0.1c12,0,16.2,9.7,16.2,15.3
	c0,6.4-4.3,15.9-17.8,15.9c-2.7,0-5.9-0.1-9-0.1c-2,0-4.1,0.1-5.7,0.1V51.1z M276.2,76.4h0.4c1.1,0,1.6-0.4,1.6-1.9V63.1
	c0-1.5-0.5-1.9-1.6-1.9h-0.4v-0.7c0.8,0,2,0.1,3,0.1c1,0,2,0,3.1-0.1v0.7h-0.5c-1.1,0-1.6,0.4-1.6,1.9v10.9c0,1.8,0.4,2.4,3.3,2.4
	c3.9,0,4.3-0.7,4.8-3.3h0.7l-0.1,4.1c-2.1,0-4.8-0.1-6.8-0.1c-2.8,0-5,0-5.9,0.1V76.4z M110.4,76.4h0.4c1.1,0,1.6-0.4,1.6-1.9V63.1
	c0-1.5-0.5-1.9-1.6-1.9h-0.4v-0.7c0.8,0,2,0.1,3,0.1c1,0,2,0,3.1-0.1v0.7h-0.7c-0.9,0-1.4,0.3-1.4,2.5V68h9.8v-4.3
	c0-2.2-0.4-2.5-1.3-2.5h-0.7v-0.7c1,0,2,0.1,3.1,0.1c1.1,0,2.2,0,3-0.1v0.7h-0.4c-1.1,0-1.6,0.4-1.6,1.9v11.4c0,1.5,0.5,1.9,1.6,1.9
	h0.4v0.7c-0.8,0-2-0.1-3-0.1c-1,0-2,0-3.1,0.1v-0.7h0.7c0.9,0,1.3-0.3,1.3-2.5v-5h-9.8v5c0,2.2,0.4,2.5,1.4,2.5h0.7v0.7
	c-1,0-2-0.1-3.1-0.1c-1.1,0-2.2,0-3,0.1V76.4z M130.1,76.4h0.4c1.1,0,1.6-0.4,1.6-1.9V63.1c0-1.5-0.5-1.9-1.6-1.9h-0.4v-0.7
	c0.8,0,2,0.1,3,0.1c1,0,2,0,3-0.1v0.7h-0.4c-1.1,0-1.6,0.4-1.6,1.9v11.4c0,1.5,0.5,1.9,1.6,1.9h0.4v0.7c-1,0-2-0.1-3-0.1
	c-1.1,0-2.2,0-3,0.1V76.4z M154.5,64.6h-0.7c-0.4-2.5-3.3-3.4-5.8-3.4c-4,0-7.1,2.6-7.1,7.3c0,4.2,3.1,8.1,7.5,8.1
	c1.8,0,2.5-0.3,4-1v-3.9c0-0.7-0.2-1.2-1.4-1.2h-0.3v-0.7c0.8,0,1.8,0.1,2.7,0.1c0.9,0,1.8,0,2.7-0.1v0.7h-0.5
	c-0.6,0-1.1,0.2-1.1,1.2v4.7c-1.9,0.6-4.1,1.1-6.6,1.1c-7.1,0-9.5-5-9.5-8.4c0-5,3.8-8.8,9.7-8.8c2.3,0,4.7,0.7,6.3,1.2V64.6z
	 M157.7,76.4h0.4c1.1,0,1.6-0.4,1.6-1.9V63.1c0-1.5-0.5-1.9-1.6-1.9h-0.4v-0.7c0.8,0,2,0.1,3,0.1c1,0,2,0,3.1-0.1v0.7h-0.7
	c-0.9,0-1.3,0.3-1.3,2.5V68h9.8v-4.3c0-2.2-0.4-2.5-1.3-2.5h-0.7v-0.7c1,0,2,0.1,3.1,0.1c1.1,0,2.2,0,3-0.1v0.7h-0.4
	c-1.1,0-1.6,0.4-1.6,1.9v11.4c0,1.5,0.5,1.9,1.6,1.9h0.4v0.7c-0.8,0-2-0.1-3-0.1c-1,0-2,0-3.1,0.1v-0.7h0.7c0.9,0,1.3-0.3,1.3-2.5
	v-5h-9.8v5c0,2.2,0.4,2.5,1.3,2.5h0.7v0.7c-1,0-2-0.1-3.1-0.1c-1.1,0-2.2,0-3,0.1V76.4z M194.2,64.7h-0.8c0-0.7-0.2-3.7-3.8-3.7
	c-2,0-3.2,1.2-3.2,2.8c0,1.4,0.7,2.3,2.7,3.2l2.2,1c1.7,0.8,3.5,2,3.5,4.4c0,2.9-1.9,5-5.9,5c-0.4,0-2.4,0-4.2-0.6l-0.1-3.8h0.7
	c0.2,2.1,2,3.6,4,3.6c2,0,3.8-1.2,3.8-3.2c0-2.1-1.6-2.9-3-3.5l-2.6-1.2c-1.8-0.8-3.1-2.1-3.1-4c0-2.4,2.1-4.6,5.3-4.6
	c1.5,0,3,0.3,4.4,0.6V64.7z M213,64.6h-0.4c-0.6-1.2-1.8-3.5-6.2-3.5c-4.8,0-6.3,4.4-6.3,7.8c0,5.6,4,7.5,6.5,7.5
	c3.7,0,5.4-2.1,6.5-3.5h0.2v1.8c-0.8,0.8-2.8,2.7-6.5,2.7c-5.4,0-9-3.3-9-8c0-4.5,3.2-9.2,8.8-9.2c2.3,0,4.6,0.7,5.4,1
	c0.5,0.1,0.9,0.3,1.2,0.3L213,64.6z M215.1,76.4h0.4c1.1,0,1.6-0.4,1.6-1.9V63.1c0-1.5-0.5-1.9-1.6-1.9h-0.4v-0.7c0.8,0,2,0.1,3,0.1
	c1,0,2,0,3.1-0.1v0.7h-0.7c-0.9,0-1.3,0.3-1.3,2.5V68h9.8v-4.3c0-2.2-0.4-2.5-1.3-2.5h-0.7v-0.7c1,0,2,0.1,3.1,0.1
	c1.1,0,2.2,0,3-0.1v0.7h-0.4c-1.1,0-1.6,0.4-1.6,1.9v11.4c0,1.5,0.5,1.9,1.6,1.9h0.4v0.7c-0.8,0-2-0.1-3-0.1c-1,0-2,0-3.1,0.1v-0.7
	h0.7c0.9,0,1.3-0.3,1.3-2.5v-5h-9.8v5c0,2.2,0.4,2.5,1.3,2.5h0.7v0.7c-1,0-2-0.1-3.1-0.1c-1.1,0-2.2,0-3,0.1V76.4z M244.2,61.1
	c-3.3,0-6.4,2-6.4,7.4c0,3.8,2.5,7.9,6.6,7.9c4.4,0,6.4-3.2,6.4-7.5C250.7,65.3,248.3,61.1,244.2,61.1z M244.2,60.2
	c4.7,0,8.8,3.8,8.8,8.6c0,4.1-3.2,8.6-8.9,8.6c-5.1,0-8.8-3.8-8.8-8.4C235.3,63.8,239.6,60.2,244.2,60.2z M264.7,61.1
	c-3.3,0-6.4,2-6.4,7.4c0,3.8,2.5,7.9,6.6,7.9c4.4,0,6.4-3.2,6.4-7.5C271.3,65.3,268.9,61.1,264.7,61.1z M264.8,60.2
	c4.7,0,8.8,3.8,8.8,8.6c0,4.1-3.2,8.6-8.9,8.6c-5.1,0-8.8-3.8-8.8-8.4C255.9,63.8,260.2,60.2,264.8,60.2z"/>
</svg>
