<?xml version="1.0" encoding="utf-8"?>
<!-- Generator: Adobe Illustrator 24.1.0, SVG Export Plug-In . SVG Version: 6.00 Build 0)  -->
<svg version="1.1" id="Layer_1" xmlns="http://www.w3.org/2000/svg" xmlns:xlink="http://www.w3.org/1999/xlink" x="0px" y="0px"
	 viewBox="0 0 256 255.4" style="enable-background:new 0 0 256 255.4;" xml:space="preserve">
<style type="text/css">
	.st0{fill:#00AFF0;}
</style>
<g>
	<path class="st0" d="M246.9,149c-0.1,0.5-0.1,0.9-0.2,1.4l-0.4-2.6C246.5,148.2,246.7,148.6,246.9,149c1.3-7.2,2-14.6,2-21.9
		c0-16.3-3.2-32.1-9.5-47.1c-6.1-14.4-14.8-27.3-25.9-38.4c-11.1-11.1-24-19.8-38.4-25.9c-14.9-6.3-30.7-9.5-47-9.5
		c-7.7,0-15.4,0.7-22.9,2.2c0,0,0,0-0.1,0c0.4,0.2,0.8,0.4,1.3,0.7l-2.5-0.4c0.4-0.1,0.9-0.2,1.3-0.3C94.8,2.9,83.3,0,71.6,0
		C52.4,0,34.5,7.4,21,21C7.4,34.5,0,52.5,0,71.6c0,12.2,3.1,24.1,9,34.7c0.1-0.4,0.1-0.9,0.2-1.3l0.4,2.5c-0.2-0.4-0.4-0.8-0.7-1.2
		c-1.2,6.8-1.8,13.8-1.8,20.8c0,16.3,3.2,32.1,9.5,47.1c6.1,14.4,14.8,27.3,25.9,38.4c11.1,11.1,24,19.8,38.4,25.9
		c14.9,6.3,30.7,9.5,47.1,9.5c7.1,0,14.2-0.6,21.2-1.9c-0.4-0.2-0.8-0.4-1.2-0.7l2.6,0.5c-0.4,0.1-0.9,0.1-1.4,0.2
		c10.7,6.1,22.8,9.3,35.2,9.3c19.1,0,37.1-7.4,50.6-21c13.5-13.5,21-31.5,21-50.6C256,171.6,252.9,159.6,246.9,149L246.9,149z
		 M128.6,201.1c-42.9,0-62.2-21.1-62.2-36.9c0-8.1,6-13.8,14.3-13.8c18.4,0,13.6,26.4,47.9,26.4c17.6,0,27.2-9.5,27.2-19.3
		c0-5.9-2.9-12.4-14.5-15.2l-38.2-9.5c-30.8-7.7-36.3-24.3-36.3-40c0-32.5,30.6-44.6,59.3-44.6c26.4,0,57.6,14.6,57.6,34.1
		c0,8.3-7.2,13.2-15.5,13.2c-15.7,0-12.8-21.7-44.4-21.7c-15.7,0-24.4,7.1-24.4,17.3c0,10.1,12.4,13.4,23.1,15.8l28.3,6.3
		c31,6.9,38.8,25,38.8,42C189.7,181.4,169.4,201.1,128.6,201.1z M148,245.4c0.4,0.2,0.8,0.4,1.2,0.7c0.5-0.1,0.9-0.1,1.4-0.2
		L148,245.4z M246.7,150.4c0.1-0.5,0.1-0.9,0.2-1.4c-0.2-0.4-0.4-0.8-0.7-1.2L246.7,150.4z M9.2,104.9c-0.1,0.4-0.1,0.9-0.2,1.3
		c0.2,0.4,0.4,0.8,0.7,1.2L9.2,104.9z M106.4,9c-0.4-0.2-0.8-0.4-1.3-0.7c-0.4,0.1-0.9,0.2-1.3,0.3L106.4,9z"/>
</g>
</svg>
