<?xml version="1.0" encoding="utf-8"?>
<!-- Generator: Adobe Illustrator 24.1.0, SVG Export Plug-In . SVG Version: 6.00 Build 0)  -->
<svg version="1.1" id="unilever" xmlns="http://www.w3.org/2000/svg" xmlns:xlink="http://www.w3.org/1999/xlink" x="0px" y="0px"
	 viewBox="0 0 199.6 220.9" style="enable-background:new 0 0 199.6 220.9;" xml:space="preserve">
<style type="text/css">
	.st0{fill:#1766A6;}
</style>
<g>
	<path class="st0" d="M27.4,182.2c-1.8,0.6-3.8,3.1-3.3,6.9c0.3,1.7,1.2,4.1,1.5,5.1c0.6,1.8,1.3,4.7,0.4,10.6
		c-1.2,7.5-3.9,12.6-10.1,12.5c-4.1,0-7.9-3.2-8.4-11.5c-0.5-7.8,0.1-11.1,1.4-18c0.6-3.1,0.8-5.7-1.7-5.3c-3.2,0.7-4.1,1.9-5.2,5.5
		c-1.9,6.6-2.3,11.3-2.1,16c0.5,10,4.9,16.5,15,16.7c11.7,0.2,16.4-11.1,16.8-20.5c0.3-6.9,0.2-11.7-0.8-15.3
		C30.3,182.6,29.5,181.6,27.4,182.2z"/>
	<path class="st0" d="M193.6,195.2c-10.8,0-13.1,16.2-14.8,16.2c-2.9,0-1.9-12.9-4-12.9c-1.8,0-2.7,2.2-3,3.2
		c-1.4,5.9-5.7,14.6-12.1,14.6c-1.5,0-4.1-0.6-4.1-2.1c0-1.6,10.1-1.8,10.1-9.5c0-2.9-2.6-6.9-6.5-6.9c-5.2,0-10.2,5.6-10.2,13.4
		c0,7,4.3,9.3,8.7,9.3c7.6,0,12.1-6.2,14.6-11.3c1.1,3.4,1.8,11.3,4.7,11.3c1.1,0,1.9-0.6,3.3-3.7c3.4-7.7,6.8-16.5,11.3-16.5
		c1.7,0,0.7,3.1,4.8,3.1c1.9,0,3.3-1.6,3.3-3.4C199.6,197.3,197.2,195.2,193.6,195.2z M157.6,202.3c2.4,0,3.1,2.9,2.5,4.6
		c-0.6,1.7-2.6,3.7-5.8,4.2C153.6,209.4,153.3,202.3,157.6,202.3z"/>
	<path class="st0" d="M69.6,184.9c0.1,1.9,1.3,3.4,3.4,3.4c2.5,0,4.3-2.9,4.1-5.5c-0.2-1.8-1.6-3.1-3.6-3.1
		C71.5,179.8,69.4,182,69.6,184.9z"/>
	<path class="st0" d="M144.9,195.8c-2.6,0-4.6,3.1-4.6,6.8c0,3.3,0.8,3.6,0.8,5.8c0,3.1-1.6,7.1-3.6,7.1c-4.6,0-5.7-18.1-8.5-18.1
		c-1.6,0-2.4,1.9-2.9,3.3c-2.5,7.2-6,15.1-12.5,15.1c-1.3,0-2.7-0.6-3.6-1.4c4.6-2.9,7.7-5.8,7.7-9.5c0-3.1-2.1-7.8-5.6-7.8
		c-4.5,0-9.6,6.8-9.6,14.8c0,1.5,0.2,2.5,0.5,3.3c-0.3,0.5-1.7,1-2.9,1c-3.1,0-6.4-3.3-6.8-5.2c2.3-5,6.9-10.8,6.1-24.6
		c-0.3-5.3-3.1-8.5-6.5-8.3c-4.7,0.3-9,10.7-8.3,21.8c0.1,2.2,1.1,8.1,2.4,11.1c-2.3,3.7-5.3,4.3-7,4.3c-2.4,0-6.1-1.4-6.1-7
		c1.7-4.7,0.6-10.1-1.8-10.1c-3.4,0-4.6,6.1-4.7,10.3c-1.1,2.5-2.4,4.6-4.1,4.6c-5.2,0-5.6-16-9.4-16c-3.1,0-8.4,10.2-10,10.2
		c-0.9,0-1.7-2.9-2.3-5.7c-0.2-0.8-0.3-1.8-0.8-1.8c-1-0.1-2.3,0.8-2.8,2c-0.5,1.2-1.3,5-2.3,8.5c-0.6,2-1.9,6.2-2.1,7.8
		c-0.1,1.1,0.4,2,1.5,2.1c2.8,0.3,13.3-12.6,16.7-12.6c4.2,0,5.3,12.7,10.1,12.7c2.9,0,5.5-7.3,7.2-7.3c1.9,0,2.9,7.3,8.4,7.3
		c6.9,0,9.2-4.5,11.2-4.5c1.7,0,3.5,4.4,7.8,4.4c2.6,0,4.9-0.8,7.7-2.6c1.6,1.8,3.5,2.8,5.4,2.8c11.3,0,14.5-10.2,16.8-10.2
		c2.1,0,1.6,10.1,7.5,10.1c7.8,0,13.1-13.6,13.1-21C147.1,197.4,146.5,195.8,144.9,195.8z M92,205.5c-0.7,0-1.4-0.7-1.7-5.6
		c-0.5-7.5,0.6-14.7,2.9-14.9c1.7-0.1,2.5,1.3,2.7,4.5C96.3,196.7,93.2,205.5,92,205.5z M108.6,212.3c-0.5-0.6-1.5-1.9-1.5-4.8
		c0-3.7,2.4-4.8,3.4-4.8c1.2,0,2.3,1.6,2.3,3.5C112.8,208.5,111.9,211.3,108.6,212.3z"/>
	<path class="st0" d="M166.2,29.2c-2,0-4.6,1.9-7.4,1.9c-0.9,0-1.9,0-3-0.3c1,0.8,0.9,2.6,1.4,3.7c0.7,1.3,1.9,1.3,2.7,1.3
		c2.6,0,8-2.2,8-4.9C167.9,30,167.5,29.2,166.2,29.2z"/>
	<path class="st0" d="M159.9,38c-2,0-2.6,1.4-2.6,2.1c0,1.7,1.6,2.4,4,2.4c6.3,0,12.1-5,12.1-9.5c0-2.1-1-3.8-3.5-4.1
		c0.4,0.5,0.6,1,0.6,1.9C170.5,34.3,165.4,38,159.9,38z"/>
	<path class="st0" d="M173.3,38.6c-2.8,5.7-10.1,6.8-12.5,6.6c0.8,5.8,9.5,13.6,11.9,13.4c1.6-0.1,2.2-7.5,2.2-13.4
		C174.9,41.8,175.1,39.2,173.3,38.6z"/>
	<path class="st0" d="M27.2,105.9c1.5,3,3,3.4,6.9,3.6c-2.4-2.1-2.7-3.8-2.7-5.4c0-3.2,3.2-9,5.3-13c2.7-5.2,5.7-12.9,5.7-16.2
		c0-1.4-0.5-2.1-1.2-2.1c-0.7,0-1.4,0.9-1.9,2.6c-1,3.3-4,9.8-5.5,9.8c-0.3,0-0.4-0.3-0.4-0.7c0-2.4,3.7-10.8,3.7-13.7
		c0-0.8-0.4-1.6-1.2-1.6c-2.5,0-5,13.9-6.5,13.9c-0.5,0-0.9-0.4-0.9-1.5c0-2.3,1.4-6.5,1.4-9.4c0-1-0.2-1.8-1-1.8
		c-3.3,0-2.9,12.6-5,12.6c-0.5,0-1.2-0.2-1.2-3.1c0-2.7,0.2-4.3,0.2-5c0-0.5-0.2-0.9-0.7-0.9c-1.9,0-3.4,6.7-3.4,13.4
		c0,7.5,1.5,12.2,3.3,12.2c1.9,0,4.6-4.6,4.6-6.3c0-0.7-0.4-1.2-0.9-2c-1.5-2.4-0.1-5,1.1-5c1.6,0,1.6,1.4,3.6,3.1
		c0.8,0.7,1.1,1.4,1.1,2.2c0,4.3-9.1,10.4-9.1,20.8c0,12,9.1,14.2,10.3,16.2C39.2,117.6,20.7,118.9,27.2,105.9z"/>
	<path class="st0" d="M39,97.6c-1.4,0-1.8-1.3-2.3-1.3c-0.4,0-0.5,1.1-0.5,1.4c0,2.2,1.6,3.5,3.3,3.5c2.6,0,4.7-1.9,4.7-6.1v-6.2
		c0-2.4,0.2-5,1.8-6.9c-0.2,0.8-0.2,1.6-0.2,2.4c0,5.2,2.9,8.8,2.9,13.9c0,1.9-0.5,2.9-2,2.9c-1.4,0-1.3-1.3-1.6-1.3
		c-0.2,0-0.6,0.8-0.6,1.6c0,1.3,0.9,3.3,3.5,3.3c2.2,0,3.9-2,3.9-4.3c0-5.5-4.3-11.5-4.3-17.4c0-2.6,0.7-4.3,1.2-5.6
		c0,12.1,10.3,20.9,10.3,26c0,1.2-0.9,2.1-2.1,2.1c-1.4,0-2.1-1.1-2.1-1.9c0-0.4-0.1-0.5-0.2-0.5c-0.4,0-1.5,1.2-1.5,2.8
		c0,2,1.6,4.4,4.7,4.4c3.5,0,5.3-2.9,5.3-5.5c0-6.4-12.5-16-12.5-26.4c0-1.8,0.3-4.6,1.6-6.8c-8,5.2-10.5,12-10.5,18
		C41.9,94.9,41.7,97.6,39,97.6z"/>
	<path class="st0" d="M144.2,45c5.5,0,10.2-1.9,10.2-5c0-2.7-2.6-8.4-4.4-8.4c-1.2,0-3.1,1.3-4.6,1.3c-1.9,0-1.4-2.4-3.5-2.4
		c-0.5,0-1,0.1-1.6,0.4c-4.4,2.2-7.9,1.4-8.6,1.9c-0.2,0.1-0.4,0.2-0.4,0.6C131.2,37.9,136.1,45,144.2,45z M137.8,36.2
		c0.7,0,2.7,1,5.2,1.4c3,0.5,4.6,0.5,5.4,0.5c0.8,0,1.2,0.2,1.2,0.4c0,0.7-2,1.9-4.7,1.9c-4.5,0-7.4-2.4-7.4-4
		C137.4,36.3,137.5,36.2,137.8,36.2z"/>
	<path class="st0" d="M52.4,147.9c8.9,0,11.1-6.1,11.1-10.3c0-9.2-5.6-15.6-13-15.6c-4,0-7.6,2.9-7.6,7.2c0,4,3,10,10.3,10
		c3.4,0,5.4-2.4,5.4-5.2c0-2.7-2.5-6.5-6.1-6.5c-1.1,0-1.9,0.7-1.9,1.9c0,1.5,2,2.9,4.5,2.9c0.6,0,1.1-0.1,1.3-0.2
		c0.1,0.2,0.2,0.5,0.2,0.7c0,1.4-1.3,2.3-3.4,2.3c-3.1,0-6.1-2.3-6.1-6c0-2.2,1.9-3.8,4.6-3.8c5.4,0,8.6,4.8,8.6,9.6
		c0,4.3-2.4,6.8-7.2,6.8c-9.7,0-14.5-8.8-12.3-17.6c-2,0.5-5.2,3.6-5.2,8.6C35.5,138.7,41.9,147.9,52.4,147.9z"/>
	<path class="st0" d="M82.8,147.5c-0.4,3.6-3.2,4.5-5.4,4.5c-1.6,0-4.1-0.5-4.2-1.2c-0.9-5.2-4.8-8.1-6.5-8.7
		c0.1,0.5,0.1,1.1,0.1,1.7c0,4.4-3,7.1-8.6,7.1c-0.9,0-2.1-0.1-2.9-0.2c6.4,7.1,10.9,4.5,13.9,5.8c3.9,1.8,7.1,7.2,19.5,7.2
		c4.6,0,9.2-1.8,12.2-3.7c0.5,1.8,2.4,3.5,5.5,3.5c5.3,0,8.3-1.6,8.3-3c0-0.4-0.1-0.9-1-0.9c-0.9,0-0.8,0.2-3.7,0.2
		c-3.4,0-8.8-1.3-11.3-7.2c-0.4-1-1.1-1-1.4-1c-1.7,0-4.3,6-15,6c-4.5,0-6.6-1.6-6.6-2.1c0-0.1,0-0.1,0.2-0.1c0.4,0,2.1,0.2,4.1,0.2
		c6.7,0,12.2-3.1,15.5-6.7c1.2-1.3,1.7-1.5,2.7-1.5c0.9,0,1.8,0.7,2.2,1.9c1.5,3.9,5,7,8.8,7c5.1,0,5.2-8.7,6.4-9.2
		c0.2,0.1,0.5,0.1,0.7,0.1c0.6,0,1.6-0.4,1.6-1.6c0-1.2-1.5-1.6-1.8-2.2c-0.6-1.1-0.1-3.2-1.9-3.2c-1.2,0-1.3,1-1.5,1.8
		c-2.6-0.8-4.8-1.2-6.7-1.2c-1.4,0-2.6,0.2-3.6,0.5c-0.7-1.2-3.7-3.6-6.3-4.4C95.1,142.5,90.1,146.8,82.8,147.5z M107.9,145.1
		c1.3,0,2.4,1.1,2.4,2.4c0,1.3-1.1,2.4-2.4,2.4c-1.3,0-2.4-1.1-2.4-2.4C105.4,146.2,106.5,145.1,107.9,145.1z"/>
	<path class="st0" d="M162.1,125.6c0-7.5-5.5-10.9-10.4-10.9c-8.9,0-6.6,7.8-17.1,10.2c-2,0.4-2.5,1-2.5,1.9c0,1.6,0.9,3.6,2,3.6
		c4.5,0,11.6-9.4,12.9-9.4c0.5,0,1.1,0.1,1.1,1.3c0,3.4-9.9,7.9-9.9,10.3c0,1.5,3.5,4.6,6.9,4.6c4.9,0,9.4-10.1,10.4-10.1
		c0.8,0,1.1,0.6,1.1,1.2c0,2.7-3.3,8.1-9.2,10.4c-1.2,0.5-1.4,1-1.4,1.5c0,1.3,1.5,3.3,2.9,3.3C150.7,143.6,162.1,133.6,162.1,125.6
		z M155.8,123.4c-0.7,0-1.3-0.2-1.8-0.5c-0.8-0.4-2.2-1.5-2.2-3.3c0-1.6,0.9-2.3,1.8-2.3c2.6,0,5.4,2.3,5.4,4.2
		C158.9,122.9,157.5,123.4,155.8,123.4z"/>
	<path class="st0" d="M42.1,66c3,0,4.4-2.6,4.4-5.2c0-4.1-3.7-6.9-6.7-7.8c-1.3,1.6-2.7,4.3-2.7,7C37,63.3,39,66,42.1,66z"/>
	<path class="st0" d="M21.6,71.1c1.9,0,4.6-1.4,7.7-4.1C26.9,67.6,25,68,23.4,68c-2.2,0-3.9-0.9-5.7-3.6
		C17.7,68.9,19.1,71.1,21.6,71.1z"/>
	<path class="st0" d="M30.4,63.1c0,2.2,1.7,3.6,3.8,3.6c1.1,0,1.9-0.2,2.4-0.6c-1.7-1.6-2.3-3.5-2.3-5.3c0-1.3,0.2-2.1,0.4-2.8
		C33.3,58.4,30.4,60.1,30.4,63.1z"/>
	<path class="st0" d="M34,36.5c0-2.9-1.3-7.4-5.5-7.4c-2.4,0-4.1,1.9-4.1,4.1c0,4.8,4.8,6.7,9,6.7C33.7,39,34,37.8,34,36.5z"/>
	<path class="st0" d="M22.8,42.7c2.2,0,4-1.3,4-1.3c-3.5-1-5.5-3.6-5.5-7.1c0-0.4,0-0.7,0.1-1c-2.2,1-3.2,2.9-3.2,4.8
		C18.1,40.7,20.2,42.7,22.8,42.7z"/>
	<path class="st0" d="M39.3,39c-1.3,0-2.4,1.1-2.4,2.4c0,1.3,1.1,2.4,2.4,2.4c1.3,0,2.4-1.1,2.4-2.4C41.7,40.1,40.7,39,39.3,39z"/>
	<path class="st0" d="M40,46.9c0,1.3,1.1,2.4,2.4,2.4c1.3,0,2.4-1.1,2.4-2.4c0-1.3-1.1-2.4-2.4-2.4C41.1,44.4,40,45.5,40,46.9z"/>
	<path class="st0" d="M19.8,58.9c-0.1,0.3-0.1,0.6-0.1,0.9c0,2.9,1.5,4.4,3.5,4.4c1.5,0,3.3-0.9,4.9-2.9c-0.7,0.1-1.5,0.2-2.2,0.2
		C23.7,61.5,21.3,60.9,19.8,58.9z"/>
	<path class="st0" d="M36.5,46.1c-0.8-1.1-0.5-2-1-2.5c-0.3-0.3-1.2-0.3-2.2-0.4c-0.4,0-0.9-0.1-1.3-0.1c-2,0-4.4,0.2-7,1.9
		c-5.3,3.4-4.5,8.9-5.3,10.3c-0.1,0.2-0.2,0.4-0.2,0.7c0,0.5,0.6,1.2,1.2,1.2c0.5,0,0.8-0.1,1-0.1c1.5,0,3.1,1,5.5,1
		c1.4,0,3-0.4,5.1-1.5c4.4-2.2,6.1-7.6,6.1-8.5C38.2,47,37.3,47.2,36.5,46.1z M28.3,55.3c-2,0-4.2-2.5-4.2-4.7
		c0-1.2,0.9-2.7,1.6-2.7c0.2,0,0.4,0.2,0.4,0.6c0.4,3,2.3,4.7,4.1,5.5c0.2,0.1,0.3,0.2,0.3,0.3C30.5,54.7,29.3,55.3,28.3,55.3z
		 M34,51.5c-2.1,0-3.8-3.2-3.8-5c0-1.2,0.7-1.3,1.6-1.3c0.4,0,0.6,0.1,0.9,0.2c0.5,0.3,0.5,1.5,1.2,2.4c0.4,0.6,1.6,1.3,1.6,1.7
		C35.4,50.4,34.9,51.5,34,51.5z"/>
	<path class="st0" d="M114.9,63.1c-1.9,0-3.5,1.6-3.5,3.5c0,1.9,1.6,3.5,3.5,3.5c1.9,0,3.5-1.6,3.5-3.5
		C118.4,64.7,116.8,63.1,114.9,63.1z"/>
	<path class="st0" d="M136.4,59c-1.4,0-2.5,1.2-2.5,2.6c0,1.4,1.2,2.6,2.5,2.6c1.4,0,2.6-1.2,2.6-2.6C139,60.1,137.8,59,136.4,59z"
		/>
	<path class="st0" d="M130.4,48.9c0,1.3,1,2.3,2.3,2.3s2.3-1,2.3-2.3c0-1.3-1-2.3-2.3-2.3S130.4,47.6,130.4,48.9z"/>
	<path class="st0" d="M116,55.6c-1.3,0-2.4,1.1-2.4,2.4c0,1.3,1.1,2.4,2.4,2.4c1.3,0,2.4-1.1,2.4-2.4S117.3,55.6,116,55.6z"/>
	<path class="st0" d="M136.9,66.3c-1.6,0-2.8,1.3-2.8,2.9c0,1.6,1.3,2.9,2.8,2.9c1.6,0,2.9-1.3,2.9-2.9
		C139.8,67.6,138.5,66.3,136.9,66.3z"/>
	<path class="st0" d="M127.6,65.8c0,1.3,1.1,2.4,2.4,2.4c1.3,0,2.4-1.1,2.4-2.4c0-1.3-1.1-2.4-2.4-2.4
		C128.7,63.3,127.6,64.4,127.6,65.8z"/>
	<path class="st0" d="M125.9,56.4c0,2.1,1.8,3.9,3.9,3.9c2.1,0,3.9-1.8,3.9-3.9c0-2.1-1.8-3.9-3.9-3.9
		C127.6,52.5,125.9,54.3,125.9,56.4z"/>
	<path class="st0" d="M119.4,54.8c0,1.3,1,2.3,2.3,2.3c1.3,0,2.3-1,2.3-2.3c0-1.3-1-2.3-2.3-2.3C120.5,52.5,119.4,53.5,119.4,54.8z"
		/>
	<path class="st0" d="M129.5,78.5c2.3,0,4.2-1.9,4.2-4.2c0-2.3-1.9-4.2-4.2-4.2c-2.3,0-4.2,1.9-4.2,4.2
		C125.3,76.6,127.2,78.5,129.5,78.5z"/>
	<path class="st0" d="M137.2,74.5c-1.2,0-2.3,1-2.3,2.2c0,1.4,1.1,2.4,2.3,2.4c1.3,0,2.4-1,2.4-2.4
		C139.5,75.5,138.5,74.5,137.2,74.5z"/>
	<path class="st0" d="M119.6,70.6c0,1.3,1.1,2.4,2.4,2.4c1.3,0,2.4-1.1,2.4-2.4s-1.1-2.4-2.4-2.4C120.7,68.2,119.6,69.3,119.6,70.6z
		"/>
	<path class="st0" d="M126.5,62.7c0-2.1-1.6-3.7-3.7-3.7c-2.1,0-3.7,1.6-3.7,3.7c0,2.1,1.6,3.7,3.7,3.7
		C124.9,66.4,126.5,64.7,126.5,62.7z"/>
	<path class="st0" d="M123.4,144.2c-0.6,0-1.3,0.6-1.9,1.4c-1.4,1.7-3.3,4.9-3.3,8.3c0,2.4,1.9,4.9,5.4,4.9
		c11.4,0,19.9-7.1,19.9-12.9c0-3.3-1.9-4.6-3.3-4.6c-1.6,1.2-5.3,3.9-11.4,3.9C125.4,145.2,123.9,144.2,123.4,144.2z M136.4,146.6
		c0.3,0,0.7,0.2,0.7,1.3c0,1.3-0.6,3.1-2.8,4.5c-1.5,1-3.6,1.9-6.6,1.9c0.5-1.5,0.9-3,0.9-4.4c0-0.5-0.1-0.9-0.1-1.4h0.8
		C134,148.5,136.1,146.6,136.4,146.6z"/>
	<path class="st0" d="M131.2,134.6c-4.4,0-6.8,2-6.8,2.9v2.8c0,1.2,2.7,2.3,6,2.3c2.6,0,5-0.7,6.6-2c0.5-0.4,0.6-1.1,0.6-1.8v-1.4
		C137.5,135.7,134.9,134.6,131.2,134.6z"/>
	<path class="st0" d="M120.1,93.3c0.7,0,1,0.5,1,0.8c0,1-1.8,2.7-1.8,4.4c0,2.1,2.5,3.4,4.1,3.4c1.9,0,2.7-0.7,2.7-1.9
		c0-1.5-2.7-3.5-2.7-5.2c0-0.9,0.9-1,2-1c2.4,0,3.3,0.4,3.3,0.9c0,0.7-1,2-1,2.4c0,0.2,0.1,0.7,0.7,0.7c2,0,8.9-1.4,8.9-2.8
		c0-1.5-6.6-6.5-7.9-6.5c-0.3,0-0.5,0.2-0.5,0.5c0,0.4,0.1,1.1,0.1,1.7c0,1.1-0.4,1.3-1.7,1.3c-1.4,0-3.5-0.5-3.5-2.6
		c0-4.3,8-3.2,8.8-7.1c-3.5,0-5.2-2.4-7.5-2.4c-0.9,0-2.4,0.5-2.4,2.6c0,0.7,0.2,1.9,0.2,2.9c0,1-0.2,1.7-1.3,1.7
		c-1,0-1.1-1.2-1.1-2.5c0-1.2,0.2-2.5,0.2-3.4c0-6.3-6.9-3.6-7.6-8.8c-1.6,3-2.2,5.2-2.2,7c0,6.5,8.9,5.8,8.9,10.5
		c0,1.1-0.9,1.8-1.6,1.8c-1.5,0-2.6-3.2-4.8-3.2c-1.2,0-2.1,0.9-2.1,2.7c0,1.4,0.3,2.4,0.3,3.7c0,2.6-1.1,3.9-2.4,5
		C117.2,99.3,117.8,93.3,120.1,93.3z"/>
	<path class="st0" d="M147,96.8c4.7,0,6.7,7.2,7.5,7.2c0.8,0,0.3-3.2,0.7-3.7c0.2-0.2,0.6-0.3,1.1-0.3c0.8,0,1.8,0.2,2.5,0.2
		c0.4,0,0.7-0.1,0.7-0.2c0.1-0.6-3.7-1.8-3.7-2.9c0-0.9,2.1-2.9,2.1-3.5c0-0.2-0.1-0.3-0.3-0.3c-0.9,0-3.8,2.2-7.8,2.2
		c-1.7,0-2.9-0.2-2.9-1.5c0-1.2,1-2.1,2.7-2.9c1.8-0.8,5.5-0.8,5.5-1.7c0-0.6-3.5-0.7-3.5-1.4c0-0.8,1.4-2.8,1.4-3.7
		c0-0.1-0.1-0.3-0.2-0.3c-0.7,0-2.3,2-3.4,2c-1,0-1.8-2.5-2.7-2.6c-0.2,0-0.4,0.2-0.4,0.6c0,1,0.4,2.9,0.4,5.3
		c0,2.1-1.1,4.1-2.4,4.1c-1.5,0-2-1.8-2-3.3c0-2.2,1.2-4.7,1.2-7c0-0.5-0.1-0.7-0.4-0.7c-0.9,0-2.3,2.4-3.2,2.4c-0.6,0-1.9-3-2.8-3
		c-0.2,0-0.3,0.5-0.3,1.1c0,0.9,0.1,1.9,0.1,2.5c0,0.7-0.9,0.8-1.8,0.8c-0.6,0-2.1,0-2.1,0.5c0,0.5,1.3,1.1,2.4,1.8
		c2.2,1.5,5.6,3,5.6,6.5c0,3.2-4.6,5.4-7.7,6c-1.5,0.2-3,0.5-3,1c0,0.7,4,0.9,4,1.8c0,0.5-1.8,2.9-1.8,3.6c0,0.1,0.1,0.2,0.2,0.2
		c0.7,0,2.6-1.6,3.5-1.6c1.2,0,1,3.5,1.9,3.5c1,0,0.7-5.2,1.1-6.5c0.7-2.3,2.4-4.6,3.8-4.6c1.8,0,1.9,3.2,1.9,4.6
		c0,3.1-2.3,6.3-2.3,7.7c0,0.2,0.1,0.4,0.3,0.4c0.7,0,2.3-2,3-2c0.9,0,2.6,3.3,3.3,3.3c0.4,0,0.4-0.4,0.4-0.7c0-1-0.5-2.6-0.5-3.7
		c0-1.2,3.9-0.5,3.9-1.3c0-0.4-1.7-1-2.7-1.7c-2.3-1.3-4.6-4.1-4.6-6.6C145.9,97.4,146.4,96.8,147,96.8z"/>
	<path class="st0" d="M113.8,137.7c10.9,0,16.2-8.8,16.2-15.5c-2,1.8-7.4,2.4-10.2,2.4c-8.4,0-10.6-4.3-11.7-4.3
		c-1.2,0-1.2,1.9-1.2,2.6c0,0.7-0.1,0.9-0.4,0.9c-0.4,0-0.9-0.2-1.3-0.2c-0.4,0-0.6,0.3-0.6,0.9c0,2.6,3.2,4.4,6.5,4.4
		c4.2,0,6.3-1.8,7.4-1.8c0.5,0,0.7,0.6,0.7,0.8c0,0.7-0.7,1.5-0.7,1.9c0,1,2.1,0.2,2.1,1.3c0,1.5-2.5,2.7-6.4,2.7
		c-7.5,0-12.5-5.2-12.5-10c0-9.1,9.8-6.1,9.8-9.7c0-1.2-1.2-1.8-1.9-1.9c1.1-1.3,2.4-1.6,3.8-1.6c1,0,2,0.2,2.9,0.2
		c1.2,0,2.4-0.4,2.4-1.8c0-0.8-0.7-1.8-3.5-2.1c0.3-1.9,4.3-0.9,4.3-2.5c0-1.2-2.3-2.1-4.9-2.1c-10.4,0-18,8.4-18,17.7
		C96.3,128.5,102.4,137.7,113.8,137.7z"/>
	<path class="st0" d="M116.6,121.6c1.7,0,2.9-1.3,2.9-2.9c0-2.3-2.4-4.6-5.9-4.6c0.6,0.6,0.8,1.2,0.8,1.8c0,0.9-0.4,1.9-0.4,2.9
		C113.9,120.3,115,121.6,116.6,121.6z"/>
	<path class="st0" d="M121.6,103.8c0.9,1,1.2,2.1,1.2,3.1c0,2.6-2,5.3-2,7.8c0,3.4,2.2,5.5,5.3,5.5c3.4,0,5.4-2.9,5.4-6
		C131.5,109.8,128,105,121.6,103.8z M126.2,113.4c-0.9,0-1.5-0.7-1.5-1.5c0-0.5,0.3-1.2,0.4-1.8c0.1-0.8-0.1-1.5,0.4-1.5
		c1.1,0,2.3,1.8,2.3,3C127.8,112.5,127.2,113.4,126.2,113.4z"/>
	<path class="st0" d="M136.9,120.8c2.5,0,4.2-2,4.2-4.4c0-3.2-2.9-6-7.5-6.3c0.4,0.7,0.6,1.3,0.6,1.9c0,1.7-1.2,3.3-1.2,5.1
		C133.1,119.2,134.6,120.8,136.9,120.8z"/>
	<path class="st0" d="M52.4,46.8c-3,0-1.6-5-3.2-5c-1.3,0-1.6,2.7-1.6,3.7c0,3.5,2.2,7.1,7.2,7.1c5.4,0,8.3-2.5,11.6-5.9
		c0.6,3.6,2.6,9.9,8,9.9c2.9,0,5-2.4,5.2-5.2c-0.4,0.4-0.9,0.7-1.5,0.7c-1.1,0-1.3-1.6-1.3-3c0-2.3,0.7-4.7,1.7-4.7
		c0.5,0,0.9,0.4,1,2c0.1,1.3,0,2.7,0.8,2.7c0.8,0,1.3-2.5,1.3-4.2c0-3.9-1.8-7.4-5.8-7.4c-3.1,0-6,2.6-8,6c0.1-0.7,0.2-1.4,0.2-2.1
		c0-4.7-2.6-9-7.4-9c-3.9,0-7.4,2.2-8.9,6.6c0.4-0.4,1.7-1.2,2.7-1.2c1.2,0,1.6,1,1.6,2.7c0,1.1-0.2,2.4-0.7,3.6
		C54.5,46.2,53.2,46.8,52.4,46.8z M75.3,41.5c0.4,0,0.5,0.8,0.5,1.6c0,3.6-1.7,9.5-3.2,9.5c-0.4,0-0.7-0.5-0.7-1.8
		C71.9,47.5,74,41.5,75.3,41.5z M70.5,43.5c0.2,0,0.5,0.2,0.5,1.3c0,2.1-1,4.3-1.6,4.3c-0.6,0-1-1-1.1-3.2
		C69.2,44.2,69.9,43.5,70.5,43.5z M64.7,39.7c0.7,0,1.2,1.3,1.2,2.6c0,0.9,0,1.6-0.1,2.4c-1.6,1.8-2.4,2.5-3.1,2.5
		c-0.4,0-0.7-0.6-0.7-1.3C61.9,44.6,62.8,39.7,64.7,39.7z M61.5,35.4c0.4,0,0.6,0.4,0.6,0.9c0,1.9-2.4,13.1-4.4,13.1
		c-0.6,0-0.7-0.5-0.7-0.9C57,46,59.6,35.4,61.5,35.4z"/>
	<path class="st0" d="M45.8,73.8C48,69.1,53.6,67,57.3,67c0.7,0,1.3,0.1,1.7,0.1c-1.9,1.7-2.3,4.7-2.4,6.7c-0.1,1-0.4,1-1.1,1
		c0,2,1.6,5,1.6,6.5c0,0.5-0.3,1-0.6,1.2c0,2.7,2.7,4.6,2.7,6.3c0,0.4-0.1,0.8-0.3,1c0.2,1.1,3.1,2.9,3.5,3.9c0.5,1.1,1,1.3,1.3,1.3
		c1,0,2.7-1.2,2.7-2.3c0-0.4-0.3-0.8-0.5-1c-1.2-0.8-1.8-2.7-2.3-3.9c-0.4,0-1-0.2-1.2-0.9c-0.3-1.3-0.3-3.6-0.8-5
		c-0.8-0.2-1.2-0.5-1.2-2.1c0-0.8,0.5-3.9,0.5-5c-0.4,0-0.9-0.2-0.9-1c0-1.9,1.9-3.5,2.5-6c3.5,2.6,4.3,5.2,4.3,7.5
		c0,1.2-0.2,2.4-0.4,3.5c2.6-1.3,6.4-3.2,6.4-7c0-2.3-1-4.7-7.9-5.7c2.1-0.8,4.8-1.2,7.1-1.2c3.9,0,6.1,1.2,6.6,3.9
		c0.8-1.2,1.4-2.6,1.4-3.9c0-3-2.5-4.9-5.7-4.9c-3.7,0-7,1.9-10.5,4.3c1.6-3.3,2.7-5.2,4.6-5.2c0.3,0,0.6,0.1,0.9,0.1
		c-0.7-2.7-3.5-5.3-4.9-5.3c-2.6,0-2.7,3.2-2.7,9.5c-1.9-4.2-5.2-8.7-8.9-8.7c-2.6,0-3.5,1.7-3.5,4.7c0,0.6,0.1,1.5,0.2,2.1
		c0.3-1,1.3-1.5,2.5-1.5c2.6,0,5.8,2,7.8,4.7c-2.4-0.4-4.7-0.9-6.6-0.9c-1.2,0-2.3,0.1-3.2,0.5c-1.8,0.8-4.1,3.4-4.1,7.4
		C45.6,72.5,45.7,73.1,45.8,73.8z"/>
	<path class="st0" d="M165.7,120.2c4.1-3.6,6.4-9,6.4-13.9c0-4.6-2.4-8.6-5.5-8.6c-2.7,0-4.1,2.1-4.1,4.4c0,1.4,0.5,2.9,1.6,3.9
		c-1.1-1.1-2.6-1.6-4.6-1.6c-2.2,0-4,1.7-4,4.3C155.6,114.6,165.7,112,165.7,120.2z"/>
	<path class="st0" d="M129.5,41.7c0-0.9-0.4-2.9-1.2-3.9c0,5.5-4,7.7-7.4,7.7c-0.9,0-1.6-0.1-2.4-0.4c0.7-0.6,1.3-1.7,1.3-2.4
		c0-0.4-0.4-0.7-0.9-0.7c-0.4,0-1.2,0.2-1.9,0.2c-1.7,0-3.1-0.7-4.7-2.2c-1.1,1.5-1.6,3.6-1.6,5.5c0,3.3,1.3,6.4,2.7,6.6
		c0.8,0.1,0.7-2.3,1.9-2.3c0.4,0,1.8,1,4.8,1C124.6,50.9,129.5,48.3,129.5,41.7z"/>
	<path class="st0" d="M120.3,37.4c0,0.4,0.2,0.7,0.6,0.9c1.6,0.7,2.5,1.9,3,2.9c2.7-1.5,3.8-5.7,3.8-8.1c0-0.7,0-1.8-0.7-1.8
		c-0.5,0-1.1,0.6-1.7,0.6c-0.6,0-2.1-2.1-5.9-2.1c-4.4,0-6.3,3.3-6.3,6c0,0.7,0.2,1.5,0.4,2.1c0.4-1.7,2.2-3.6,4.9-3.6
		c0.9,0,2.7,0.4,3.1,1.2C120.9,35.9,120.3,36.8,120.3,37.4z"/>
	<path class="st0" d="M74.7,7.5c0,1.1,3.8,3.5,5.6,3.5c1,0,1.3-1.4,1.3-2.9c0-1.8-0.8-1.9-2.4-1.9C77.2,6.3,74.7,6.8,74.7,7.5z"/>
	<path class="st0" d="M81.4,30.9c0-0.5-0.1-1-0.4-1.3c-1.1-1.5-8.8-7.6-10.5-7.6c-0.2,0-0.3,0.2-0.3,0.4c0,2.1,7.6,12.5,9.1,12.5
		C80.5,34.8,81.4,32.7,81.4,30.9z"/>
	<path class="st0" d="M36.4,8.5c1.3,0,3.5-0.6,5-0.6c0.9,0,1.6,0.2,1.6,1c0,1.5-3.3,4.3-3.3,5.5c0,0.4,0.3,0.5,0.6,0.5
		c1.2,0,3.3-3.1,5.2-3.1c3.2,0,1.1,6.9,2.9,6.9c1.8,0,1-6.7,3.6-6.7c2.1,0,3.7,4.7,5.2,4.7c0.4,0,0.7-0.3,0.7-0.7
		c0-1.3-1.8-3.9-1.8-5.6c0-1,0.7-1.5,1.7-1.5c1.4,0,3.3,0.9,4.3,0.9c0.4,0,0.7-0.1,0.7-0.5c0-1.5-5.4-3-5.4-4.9c0-1.9,3-1.9,3-2.7
		c0-0.4-1.8-0.7-4.3-0.7c-4,0-3.4,3.3-6.4,3.3c-3.2,0-2.4-3.4-6.4-3.4c-2.4,0-4.7,0.4-4.7,1c0,0.7,2.9,0.4,2.9,2.4
		c0,2.1-6.1,2.7-6.1,4C35.3,8.3,35.8,8.5,36.4,8.5z"/>
	<path class="st0" d="M23.7,15.4c-1.4,0-3.2,0.4-4,1.1c-0.7,0.5-1.2,2.3-1.2,3.5c0,0.7,0.2,1.4,0.8,1.4c1.6,0,6.3-4.1,6.3-5.3
		C25.5,15.6,24.5,15.4,23.7,15.4z"/>
	<path class="st0" d="M18.2,12c0,1.8,11.9,0.1,11.9,2c0,2.1-10.4,11-10.4,14c0,0.7,0.5,1,1.2,1c3.2,0,11.4-6,13.6-6
		c0.8,0,0.9,1,0.9,1.8c0,1.6-0.5,4-0.5,5.8c0,1.4,0.4,2.4,1.6,2.4c2.3,0,4.3-3.8,5.8-3.8c1.9,0,0.8,11.2,3.7,11.2
		c2.5,0,3.5-12.2,5.1-12.2c1.6,0,2.9,3.5,4.3,3.5c1.8,0,1-6.1,2.9-6.1c2.1,0,8.2,7.3,10.9,7.3c0.9,0,1.2-0.7,1.2-1.5
		c0-3.2-4.5-10.5-4.5-12.8c0-0.6,0.2-0.8,0.8-0.8C69,17.7,76,21,79.2,21c1.1,0,1.8-0.6,1.8-1.4c0-3.6-9.9-10.3-10-13.1
		c0-0.3,0.1-0.5,0.4-0.8c1.7-1.8,8.7-3.1,8.7-4.6c0-0.8-1.5-0.8-2.2-0.8C72.3,0.3,64,2.4,64,4.4c0,2.1,7.4,7.1,7.4,9.6
		c0,0.7-0.4,0.9-1.1,0.9c-2.1,0-6.6-2.5-8.7-2.5c-1,0-1.3,0.7-1.3,1.6c0,2.9,3.5,8.4,3.5,10.1c0,0.2-0.1,0.4-0.3,0.4
		c-1.1,0-6.3-6.1-8.1-6.1c-0.7,0-0.7,0.9-0.7,2.2v2.1c0,1.4-0.1,2.2-0.7,2.2c-1.6,0-2.3-4.4-3.8-4.4c-1.6,0-1.9,7.9-3.4,7.9
		c-1.8,0-0.2-8.7-1.9-8.7c-1.9,0-4,5.8-5.4,5.8c-0.5,0-0.6-0.5-0.6-0.9c0-1.8,1-4.6,1-6.3c0-0.9-0.2-1.3-1-1.3c-1.9,0-6,3-7.6,3
		c-0.2,0-0.5-0.1-0.5-0.4c0-1.5,6.6-6.1,6.6-8.1c0-2-9.1-0.7-9.1-3c0-1.9,6.5-4,6.5-6c0-1.8-7.7-2.5-10.7-2.5
		c-3.6,0-5.5,0.4-5.5,1.5c0,1.6,8.1,2.1,8.1,3.5C26.6,6.3,18.2,9.9,18.2,12z"/>
	<path class="st0" d="M156.3,8.7c-3,0.1-8.7,1.4-8.7,2.2c0,1,10.3,2.1,10.3,6.4c0,2.8-2.3,3.1-3.2,3.1c-3.4,0-5.2-3.5-6.1-3.5
		c-0.2,0-0.5,0.2-0.5,0.5c0,0.5,0.5,2,0.5,3.5c0,3.9-4.3,4.3-4.3,5.1c0,0.3,0.1,0.4,0.6,0.5c3.2,0.5,6.4,0.7,9.4,0.7
		c11,0,20-3.4,20-13c0-5.2-1.6-7-1.6-9.5c0-0.8,0.6-2.6,2.3-3.6c-3,0-3.5-0.9-5.6-0.9c-2.5,0-4.2,1.7-4.2,4.3c0,0.9,0.3,2.2,0.3,3.9
		c0,2.1-0.4,4.1-2.3,4.1c-1.8,0-2.4-1.2-2.4-2.5c0-2.4,1.3-4.1,1.3-5.7c0-2.9-3.5-3.7-7.3-3.7c-4.5,0-9.4,1.2-9.4,1.8
		C145.3,3.5,151.8,2.9,156.3,8.7z M169.3,2.4c0.9,0,1.5,0.7,1.5,1.5c0,0.8-0.7,1.5-1.5,1.5c-0.9,0-1.5-0.7-1.5-1.5
		C167.8,3,168.5,2.4,169.3,2.4z M168.2,11.2c1.6,0.5,2.6,2.1,2.6,3.8c0,3.2-3,6.9-11.4,6.9c-0.7,0-1.5,0-2.3-0.1
		C164.2,20.7,168.2,16.6,168.2,11.2z"/>
	<path class="st0" d="M173.2,84.4c-2.9,0-4.5,5-7.3,5.3c1.8-7.3,9-11.1,9-17.9c0-7.7-6.5-10.5-9.2-12.2c-4.5-6.4-7.7-11.5-15-11.5
		c-3.1,0-5.1,0.5-7.2,0.5c-4.1,0-5.4-1.6-5.7-1.6c-0.1,0-0.1,0.1-0.1,0.3c0,5.7,3,18.6,16,18.6c7,0,10-2.7,11.6-2.7
		c1.8,0,7.4,1.9,7.4,8.4c0,3.6-2.9,7.2-3.9,7.2c-1,0-2.1-1.6-2.1-3.3c0-1.9,1-5.4,1-7.6c0-0.8-0.1-1.2-0.6-1.2
		c-1.1,0-6.3,3.3-6.3,7.5c0,3.6,5.3,5.8,7.3,6.8c-2,3.3-3.2,5.4-4.2,8.4c0-2.3-2.2-7-2.9-8.9c-3.3-9.1-4.5-10.8-11.4-11.6
		c1,3.6,12.9,12.5,12.9,21.5c0,0.5-0.1,1.3-0.1,1.6c-3.6-10.5-9.8-12.9-12-15.5c-3.6-4-1.5-7.9-7.4-10.1c0.4,0.5,0.5,1.1,0.5,1.8
		c0,1.9-1.1,4.4-1.1,6.1c0,6.3,7.4,4.4,11.7,7.9c4.3,3.4,6.6,9,8.4,15.2c1.7-2.7,2.7-6,5.7-6c2,0,2.6,2.4,2.6,4.1
		c0,0.4,0,0.7-0.1,0.9c2.9-2.5,4.4-6.5,4.4-9.2C175.3,85.5,174.7,84.4,173.2,84.4z M161.7,60.5c-0.6,0-1.8-0.3-2.6-0.3
		c-2.1,0-3.5,2.9-4.6,2.9c-0.4,0-0.5-0.4-0.5-0.7c0-1.2,2.1-2.6,2.1-3.3c0-0.5-0.9-0.7-1.3-0.7c-2.1,0-5,2.9-6.6,2.9
		c-0.3,0-0.7-0.2-0.7-0.5c0-0.8,2.2-1.9,2.2-2.7c0-0.8-0.9-0.9-1.5-0.9c-1,0-3,0.5-4.3,0.5c-0.7,0-1.3-0.2-1.3-0.7
		c0-1.2,4-0.4,4-1.9c0-0.7-1.2-2-1.2-2.7c0-0.3,0.3-0.5,0.6-0.5c1.4,0,2.9,3.8,4.5,3.8c0.7,0,0.9-0.5,0.9-1.3c0-0.8-0.1-1.2-0.1-1.9
		c0-0.7,0.3-0.9,0.5-0.9c1,0,1.9,5.5,4.7,5.5c1.2,0,0.4-3.3,1.5-3.3c0.7,0,0.9,1,0.9,1.5c0.3,3.6,3.5,3.7,3.5,5
		C162.4,60.2,162.2,60.5,161.7,60.5z"/>
	<path class="st0" d="M110.2,19c0,1,4.1,0.3,4.1,1.6c0,1.3-3,5.5-3,6.7c0,0.3,0.1,0.3,0.3,0.3c1.2,0,4.6-4,5.5-4
		c1,0,1.2,2.4,1.3,3.8c0.1,0.7,0.2,0.8,0.5,0.8c0.7,0,1.9-2.8,2.7-2.8c1.2,0,4.3,3.2,9.4,3.2c7.4,0,14.3-5.2,14.3-14.3
		c0-8.8-6.2-14-14.8-14c-4.1,0-7.1,2-8.6,2c-1,0.1-2.4-2.4-3.2-2.4c-0.3,0-0.6,0.6-0.6,1.6c0,0.7,0,2.8-0.7,2.8
		c-1.5,0-7.1-4.2-7.1-2.7c0,1.4,3.8,5.7,3.8,6.7c0,1.1-3.7,2.1-3.7,2.9c0,1.3,4,1.6,4,3.3C114.4,16.3,110.2,17.7,110.2,19z
		 M130.5,3.2c6,0,9.6,4.1,9.6,11.1c0,8.8-6.1,10.9-9.4,10.9c-4.3,0-7.1-2.1-7.1-3.2c0-0.5,0.4-0.9,0.9-0.9c1.3,0,4.3,2.1,5.2,2.1
		c0.2,0,0.4-0.1,0.4-0.5c0-1.1-1-2.9-1-3.8c0-0.2,0.2-0.4,0.5-0.4c1.6,0,4.1,0.7,5.4,0.7c0.4,0,0.5-0.2,0.5-0.5c0-1.3-4-4-4-4.7
		c0-0.7,4.9-1.8,4.9-3c0-1.2-6.7-0.4-6.7-1.5c0-0.8,1.3-2.3,1.3-3c0-0.3-0.2-0.4-0.7-0.4c-0.5,0-3.5,1.2-4.7,1.2
		c-0.6,0-1.3-0.1-1.3-1C124.5,4.7,126.8,3.2,130.5,3.2z M116.5,11c0-0.1,0.1-0.2,0.3-0.2c0.7,0,1.8,0.2,2.7,0.2
		c0.8,0,0.9-3.4,1.5-3.4c0.4,0,1.2,3.2,1.8,3.2c0.8,0,2.2-0.9,2.9-0.9c0.1,0,0.2,0.1,0.2,0.2c0,0.4-1.5,2.1-1.5,2.6
		c0,0.5,3.4,1.2,3.4,1.7c0,0.6-3.5,0.5-3.5,1.1c0,0.4,1.3,2.1,1.3,2.7c0,0.1-0.1,0.2-0.2,0.2c-0.5,0-2.4-0.9-2.9-0.9
		c-0.7,0-1.8,2.5-2.3,2.5c-0.2,0-0.3-0.2-0.3-0.5l-0.1-2.4c0-0.2-0.1-0.5-0.4-0.5c-0.7,0-2.1-0.1-2.6-0.1c-0.3,0-0.4-0.1-0.4-0.2
		c0-0.5,2.4-2.2,2.4-2.6C118.9,13,116.5,11.7,116.5,11z"/>
	<path class="st0" d="M92.4,128c-0.1-1.1-0.7-2.1-1.9-2.1c-0.9,0-1.6,0.7-1.6,1.7c0,1,0.7,1.8,0.7,2.8c0,0.5-0.2,1.2-0.7,1.8
		c-0.7-1.2-2.6-1.8-3.4-1.8c-6.3,0-3.9,9.1-10.6,9.1c-2.8,0-3-0.4-4.1-0.4c-0.4,0-0.7,0.2-0.7,0.5c0,1.6,2.3,5.5,8.5,5.5
		c6.3,0,12.3-3.8,12.3-8.6c0-0.8-0.2-1.6-0.5-2.5c0.2-0.4,0.9-0.6,1.4-0.6c1,0,1.5,1.1,2.4,1.1c1,0,1.7-0.7,1.7-1.7
		c0-0.8-0.4-1.3-1.2-1.7c0.5-0.4,0.9-1,0.9-1.6c0-1-0.7-2-1.9-2C93.2,127.4,92.8,127.6,92.4,128z"/>
	<path class="st0" d="M56.3,113.5c-2.1,0-4.5,1.2-4.5,2.9c0,1,0.5,1.8,4.4,2.7c4.9,1.2,7.3,3.8,7.8,6.9c0.5,3,1.1,5.4,2.2,6.6
		c1.5,1.7,4.5,3.2,7.1,3.2c2.2,0,3.9-0.7,3.9-2.7c0-2.2-3-7.1-7.4-7.1c-0.4,0-1,0.1-1.6,0.1c-0.5,0-1.3-0.1-1.8-0.5
		c-1-0.9-1.3-5.4-3.1-8.1C61.5,114.3,59.3,113.5,56.3,113.5z M70.2,128.2c1.5,0,4.3,1.9,4.3,3.5c0,0.4-0.3,1-1.2,1
		c-1.8,0-4.6-2-4.6-3C68.7,128.7,69.5,128.2,70.2,128.2z"/>
	<path class="st0" d="M86.8,111.7c0,1.6-2.9,3.2-6.7,3.2c-4.3,0-7.3-0.7-10-3.5c-0.7-0.7-1-1.5-1.9-1.5c-1,0-1.5,1.8-1.5,3.5
		c0,6,5.7,13,13.6,13c9.8,0,13.7-6.8,13.7-12.3c0-3.2-0.7-6.3-6.1-8.3c-2.7-1-4-2.7-4.6-5.8c-1.3,1.9-2,3.6-2,4.7
		C81.1,108.9,86.8,108.9,86.8,111.7z M89.5,114.4c0.5,0,1,0.4,1,1.2c0,3.2-3.5,6.9-5.7,6.9c-0.9,0-1-0.4-1-1.2
		c0-0.6,0.2-1.6,0.2-2.4c0-2.1,0.8-2,2.9-2.9C88.5,115.4,89,114.4,89.5,114.4z"/>
	<path class="st0" d="M77.2,87.3c0-2.6,4.4-4.6,4.4-8.8c0-2.4-2.4-5.4-5.6-7.2c0.5,1,0.9,2.4,0.9,3.2c0,4.8-9.2,6.9-9.2,10.8
		c0,4.8,8.9,6.9,8.9,9.1c0,0.7-0.4,1.2-1.4,1.2c-1.1,0-2.8-1-4.5-2.4c-1.9,1.9-3.2,4.5-3.2,7.5c0,6,6.3,11.1,12.5,11.1
		c1,0,2-0.2,3.1-0.4c-3.3-0.4-5.5-3-5.5-6.1c0-4,4.4-7.6,4.4-10.7C81.9,90.8,77.2,90.3,77.2,87.3z"/>
	<path class="st0" d="M32.4,115.4c0.3,2.1,2.2,3.6,4.4,3.4c0.8-0.1,1.5-0.3,2-0.6c0.5,1.9,2.1,3.2,4.3,2.9c2.2-0.3,3.8-2.1,3.5-4.3
		c-0.1-0.6-0.2-1-0.4-1.4c0,0,0.3,0,0.5-0.1c2.2-0.4,3.7-2.2,3.5-4.3c-0.2-2.2-2.2-3.8-4.2-3.6c-0.8,0.1-1.5,0.4-2,0.8
		c-0.5-1.8-2.3-3.4-4.6-3c-2.1,0.4-3.5,2.1-3.3,4.4c0,0.4,0.1,0.8,0.3,1.2c0,0-0.4,0.1-0.6,0.1C34,111.2,32.1,113,32.4,115.4z
		 M41.2,110.9c1.3-0.1,2.4,0.8,2.6,2c0.1,1.3-0.8,2.4-2,2.6c-1.3,0.1-2.4-0.8-2.6-2C39,112.2,39.9,111.1,41.2,110.9z"/>
</g>
</svg>
